if (_typeface_js && _typeface_js.loadFace) _typeface_js.loadFace({"glyphs":{"S":{"x_min":0,"x_max":735.875,"ha":758,"o":"m 381 1019 q 456 982 416 987 q 617 908 549 965 q 735 850 693 850 l 735 848 q 629 790 666 790 l 613 790 l 605 791 q 559 716 605 755 q 512 687 530 695 l 512 695 q 512 737 512 714 q 468 790 512 766 q 419 809 440 809 q 378 782 395 809 l 377 782 q 337 811 357 811 q 290 786 314 809 q 267 729 267 759 l 267 722 q 419 601 267 638 q 436 600 427 600 q 497 616 463 600 l 499 614 q 497 610 499 610 q 581 531 497 571 q 724 280 724 446 q 539 9 724 88 q 444 -12 491 -4 q 396 -54 410 -26 l 394 -54 q 341 -17 373 -27 q 254 3 316 -9 q 174 40 206 18 q 106 97 147 59 q 0 143 71 120 l 0 145 q 122 215 75 215 l 128 215 q 145 213 129 215 l 145 220 q 226 329 145 286 l 227 329 q 224 303 224 304 q 299 186 224 238 q 354 166 330 166 q 396 190 378 166 q 435 164 412 164 l 439 164 q 497 196 461 164 q 522 267 522 223 q 447 360 522 339 q 406 366 435 364 q 352 352 383 366 q 339 404 347 396 q 276 434 330 413 q 164 502 215 463 q 73 714 73 579 l 73 720 q 172 924 73 845 q 306 982 215 960 q 381 1019 355 993 "},"/":{"x_min":0,"x_max":0,"ha":435},"K":{"x_min":0,"x_max":944.765625,"ha":814,"o":"m 672 324 q 714 282 687 291 l 716 282 q 703 247 704 262 l 703 243 q 756 82 699 207 q 804 -4 766 48 q 920 -90 853 -55 q 944 -105 941 -104 l 944 -107 q 817 -127 898 -134 l 809 -126 q 584 -19 665 -113 q 537 92 562 6 q 507 174 526 124 q 463 203 491 200 l 462 203 l 463 206 q 476 236 474 219 l 476 241 q 451 338 482 272 q 333 417 400 417 q 282 395 307 417 l 282 150 q 281 80 282 126 q 317 0 281 35 l 317 -1 q 271 -8 297 -8 q 179 27 216 -8 q 79 -8 144 -8 l 72 -8 q 37 0 39 -6 q 66 92 66 31 l 66 383 q 0 505 66 444 q 66 637 66 551 l 66 869 q 21 977 66 931 q 62 985 21 981 q 78 986 65 986 l 86 986 q 178 949 148 986 q 254 975 211 975 l 268 975 q 328 967 296 975 l 328 965 q 282 836 282 900 l 282 623 q 298 592 282 595 q 401 721 326 592 q 520 914 508 882 q 529 954 529 940 l 529 967 q 524 995 529 982 l 527 996 l 529 996 q 619 949 568 996 q 636 914 636 925 l 642 914 q 758 849 721 914 q 706 831 725 838 q 630 752 662 815 q 495 543 617 733 q 619 440 571 508 q 628 429 623 437 q 647 394 638 413 q 672 324 660 368 "},"7":{"x_min":0,"x_max":670.078125,"ha":678,"o":"m 8 963 q 72 944 43 944 q 250 946 188 946 l 425 946 q 486 935 480 946 q 497 918 497 923 q 596 952 527 952 q 670 934 645 952 q 615 878 638 922 q 468 545 571 808 q 449 474 449 498 q 468 419 449 445 l 468 417 q 393 320 419 388 q 334 107 369 255 q 332 84 332 96 l 332 73 q 364 10 332 35 l 364 8 q 308 3 341 4 q 218 33 244 3 q 139 0 187 0 l 130 0 q 71 8 100 0 l 71 10 q 113 57 101 35 q 151 174 123 75 q 222 373 184 269 q 228 410 228 393 l 228 415 q 193 490 228 457 l 195 491 q 315 588 281 491 q 386 743 386 739 q 387 750 387 749 q 341 776 387 776 l 116 776 q 12 746 36 776 q 2 786 2 762 q 23 862 2 825 q 0 924 0 887 l 0 936 q 8 963 2 963 "},"d":{"x_min":0,"x_max":626.671875,"ha":678,"o":"m 592 958 l 606 958 q 624 955 611 958 l 624 954 q 587 860 587 925 l 587 452 q 626 359 587 381 l 626 358 q 587 280 587 329 l 587 78 q 615 5 587 28 l 615 4 q 575 -2 598 -2 q 496 23 525 -2 q 463 -1 496 12 q 436 -6 449 -6 l 430 -6 q 394 6 404 -6 q 415 67 415 27 l 415 115 l 408 115 q 229 -5 337 -5 q 56 129 94 -5 q 43 280 43 189 q 29 329 40 309 q 0 357 13 353 l 0 359 q 40 404 32 380 q 46 516 43 404 q 59 594 46 535 q 90 655 71 628 q 221 709 134 709 q 400 605 314 709 l 404 605 l 404 835 q 383 927 404 910 q 367 946 383 929 l 367 948 q 392 952 379 952 l 400 952 q 497 918 461 952 q 535 946 514 938 q 592 958 565 958 m 232 436 q 272 364 232 388 q 246 339 254 354 q 232 270 232 310 q 278 163 232 179 q 307 158 293 158 q 411 212 364 158 l 411 270 q 386 349 411 332 q 366 362 374 361 l 366 364 q 406 408 398 384 q 411 451 411 422 l 411 520 q 305 573 350 573 l 302 573 q 244 537 258 573 q 232 436 232 497 "},",":{"x_min":0,"x_max":0,"ha":424},"Y":{"x_min":0,"x_max":889.15625,"ha":914,"o":"m 612 992 l 624 992 q 713 953 672 992 q 728 921 728 933 q 848 958 793 958 q 889 944 876 958 l 862 929 q 815 863 827 894 q 702 634 709 653 q 697 609 697 618 l 697 606 q 714 558 697 580 q 676 545 686 552 q 607 446 646 533 q 555 343 555 345 l 555 108 q 589 5 555 30 l 589 4 q 549 -4 573 -4 l 542 -4 q 450 27 482 -4 q 360 -6 411 -6 l 349 -6 q 311 2 328 -6 l 311 4 q 341 72 341 25 q 343 87 343 72 l 343 337 q 244 524 343 340 q 176 565 212 565 l 176 567 q 189 607 189 590 q 139 729 189 642 q 56 881 76 853 q 1 923 23 914 l 0 925 q 65 944 21 944 q 155 921 109 944 l 155 922 q 185 968 164 952 q 263 990 222 990 q 254 959 254 968 l 254 954 q 294 864 254 932 q 369 719 356 741 q 420 695 394 695 l 420 693 q 408 654 408 677 q 442 564 408 633 l 442 563 l 448 563 q 463 594 450 564 q 485 652 485 635 l 485 659 q 472 695 485 673 l 472 695 q 535 749 518 695 q 615 913 608 894 q 621 943 619 923 q 610 991 621 954 l 612 992 "},"E":{"x_min":0,"x_max":706.703125,"ha":746,"o":"m 658 1014 l 661 1014 q 668 969 668 990 l 668 963 q 643 877 668 920 q 666 805 666 849 q 666 760 666 770 l 663 755 l 661 755 q 555 790 602 790 q 477 790 538 790 q 372 790 395 790 q 282 754 297 790 q 278 718 278 738 l 278 588 l 283 586 l 302 586 q 402 617 383 586 q 428 649 412 623 q 446 597 446 630 q 412 508 446 551 q 441 417 441 474 q 432 363 441 390 l 432 363 q 321 408 398 408 l 283 408 q 281 406 281 408 l 281 250 q 326 179 281 193 l 341 178 q 369 180 364 180 l 604 180 q 703 220 656 180 q 706 161 706 204 l 706 160 q 679 92 706 122 q 701 48 693 78 q 705 -19 705 22 l 705 -23 l 704 -25 q 614 -2 668 -2 l 321 -2 q 198 48 255 -2 q 109 2 172 2 l 100 2 q 29 11 68 2 l 29 12 q 65 113 65 50 l 65 369 q 1 503 65 469 l 0 506 q 65 604 65 548 l 65 795 q 20 951 65 877 q 63 956 35 956 l 74 956 q 191 921 155 956 q 316 970 244 970 q 360 971 330 970 q 534 970 451 970 l 556 970 q 658 1014 600 970 "},"y":{"x_min":2.71875,"x_max":598.1875,"ha":638,"o":"m 376 722 l 387 722 q 468 678 435 722 q 478 649 476 663 q 521 663 496 663 l 524 663 q 598 631 570 663 q 540 585 549 610 q 503 437 503 455 l 503 433 q 527 387 503 406 l 527 386 q 488 362 509 383 q 446 236 469 334 q 370 -31 390 26 q 308 -145 347 -94 q 231 -200 266 -190 q 123 -218 216 -212 q 38 -239 84 -218 q 14 -256 27 -245 l 12 -256 q 4 -221 4 -239 l 4 -218 q 42 -143 4 -163 l 44 -143 l 44 -142 q 10 -58 10 -117 q 21 -3 10 -25 l 23 -3 q 66 -54 56 -46 q 92 -65 73 -62 q 169 -35 126 -65 q 207 23 197 -6 q 212 72 212 43 l 212 79 q 130 339 137 320 q 81 384 115 370 q 74 386 75 386 l 74 387 q 100 426 100 407 q 52 581 100 444 q 16 613 45 600 q 2 619 2 617 q 67 657 16 642 q 89 659 81 659 q 120 650 105 659 q 170 702 120 682 q 224 712 193 712 q 233 710 233 712 q 216 665 216 685 l 216 657 q 250 526 216 641 q 301 470 267 470 l 301 468 q 284 429 284 450 l 284 423 q 297 367 284 404 l 305 367 q 326 423 308 367 q 326 434 326 432 q 314 470 326 451 q 345 512 345 485 q 379 659 350 545 l 381 676 q 368 720 381 693 q 376 722 371 722 "},"\"":{"x_min":0,"x_max":0,"ha":496},"g":{"x_min":0,"x_max":645.671875,"ha":678,"o":"m 423 700 l 434 700 q 513 668 480 700 q 514 663 514 663 l 516 663 q 583 691 533 691 q 631 682 631 687 q 603 624 603 668 l 603 450 q 645 355 603 379 l 645 354 q 620 328 620 335 q 603 248 603 301 l 603 87 q 577 -110 603 -52 q 465 -229 544 -193 q 321 -257 401 -257 l 297 -257 q 145 -217 207 -257 q 59 -189 92 -189 l 55 -189 q 33 -192 48 -189 q 32 -191 33 -191 q 64 -137 42 -155 q 113 -118 85 -118 q 137 -123 124 -118 l 137 -122 q 136 -113 136 -116 l 136 -109 q 191 -47 136 -72 q 210 -44 204 -44 l 222 -44 q 227 -46 225 -44 q 220 -79 220 -60 q 253 -134 220 -122 q 298 -141 280 -141 q 384 -109 344 -141 q 415 -16 415 -84 l 415 103 l 410 103 q 303 15 363 38 q 219 2 259 2 q 87 71 143 2 q 50 233 50 111 l 50 269 q 0 353 50 327 l 0 354 q 50 432 50 382 q 143 674 50 626 q 224 696 177 696 l 234 696 q 400 600 328 696 q 421 563 421 566 l 427 563 l 427 604 q 392 691 427 670 l 392 693 q 423 700 406 700 m 236 397 q 263 357 236 368 q 273 355 264 357 l 273 354 q 242 318 251 343 q 238 280 238 299 q 251 188 238 234 q 313 147 273 147 l 314 147 q 415 198 370 147 l 415 273 q 383 342 415 324 q 370 346 373 346 l 370 348 q 415 408 415 369 l 415 467 q 362 503 415 480 q 318 514 337 514 l 313 514 q 250 475 267 514 q 236 403 243 464 l 236 397 "},"e":{"x_min":0,"x_max":582.59375,"ha":617,"o":"m 283 708 l 303 708 q 510 585 446 708 q 532 532 524 545 q 579 501 556 506 l 579 499 q 544 467 556 489 q 535 397 535 451 q 529 336 534 396 q 550 282 529 297 q 503 269 531 269 q 394 302 449 269 q 391 305 394 303 l 253 305 q 210 258 223 305 q 247 150 210 193 q 333 118 279 118 l 345 118 q 457 141 400 118 q 499 195 485 158 q 504 214 502 214 q 534 126 534 174 l 534 118 q 522 84 534 100 q 559 65 543 80 q 582 -2 582 40 l 580 -3 q 507 11 543 11 q 421 -6 485 11 q 326 -14 375 -14 l 307 -14 q 83 92 153 -14 q 44 216 48 154 q 35 310 39 256 q 8 354 29 337 q 0 361 0 360 q 16 372 1 364 q 40 437 40 392 q 62 564 40 486 q 153 677 92 644 q 283 708 211 708 m 212 448 l 212 406 l 387 406 l 387 419 q 358 485 387 469 q 344 491 344 491 q 377 530 377 517 q 354 572 377 546 q 299 590 333 590 l 290 590 q 215 501 226 590 q 212 448 212 479 "},"J":{"x_min":0,"x_max":670.078125,"ha":713,"o":"m 343 994 l 363 994 q 488 954 448 994 q 588 993 526 993 l 605 993 q 670 982 638 993 l 670 980 q 630 947 653 977 q 594 844 594 892 l 594 629 q 594 609 594 621 q 634 505 594 530 l 652 499 l 652 497 q 604 439 620 481 q 594 362 594 406 l 594 244 q 564 92 594 142 q 453 0 528 27 q 353 -27 388 -16 q 322 -48 336 -35 q 284 -18 311 -29 q 187 8 221 -9 q 82 140 107 53 q 68 233 72 183 q 8 311 50 286 q 0 316 2 316 l 0 319 l 71 336 l 90 336 q 137 314 113 336 l 138 314 q 168 350 142 333 q 266 376 212 376 l 266 375 q 239 290 239 345 q 269 164 239 199 q 297 154 283 154 l 299 154 q 323 175 315 154 l 324 175 q 341 156 335 158 l 344 156 q 375 187 358 156 q 382 238 382 206 l 382 370 q 330 499 382 468 l 330 501 q 375 545 365 521 q 382 601 382 568 l 382 826 q 302 987 382 925 l 302 988 q 343 994 320 994 "},"^":{"x_min":0,"x_max":0,"ha":688},"q":{"x_min":-0.671875,"x_max":614.46875,"ha":652,"o":"m 417 692 l 427 692 q 480 670 458 692 q 484 663 484 665 q 564 689 512 689 q 601 682 583 689 l 601 681 q 573 614 573 657 l 573 430 q 614 357 573 383 l 614 356 q 595 337 604 349 q 573 222 573 290 l 573 -155 q 611 -246 573 -221 l 611 -248 q 590 -251 597 -251 l 579 -251 q 484 -212 523 -251 q 388 -244 453 -244 l 383 -244 q 358 -241 370 -244 l 358 -240 q 394 -155 394 -210 l 394 94 l 392 94 q 323 29 341 39 q 215 -7 273 -7 q 59 102 93 -7 q 42 259 42 152 q 25 326 37 297 q 0 356 16 343 q 44 434 44 380 l 44 436 q 85 627 44 577 q 221 691 133 691 q 400 573 330 691 l 405 573 l 405 612 q 385 680 405 659 q 417 692 398 692 m 225 425 q 259 358 225 375 l 263 357 l 263 356 q 223 246 223 326 q 260 139 223 157 q 288 133 275 133 l 291 133 q 382 174 334 133 q 394 184 392 181 l 394 197 q 395 248 394 225 q 354 356 395 331 l 354 356 q 387 389 379 370 q 394 428 394 409 l 394 482 q 295 533 350 533 q 233 490 246 533 q 225 425 225 463 "},"b":{"x_min":0,"x_max":623.96875,"ha":650,"o":"m 20 954 l 34 954 q 130 914 90 954 q 224 947 162 947 l 233 947 q 258 944 246 947 l 258 942 q 221 849 221 912 l 221 602 l 223 602 q 295 669 282 664 q 403 706 344 706 q 556 610 518 706 q 577 500 577 554 q 583 400 579 413 q 623 357 593 376 l 623 355 q 594 326 605 347 q 578 215 578 309 q 564 121 571 134 q 503 26 546 58 q 396 -5 456 -5 q 216 115 287 -5 l 210 115 l 210 67 q 231 6 210 28 q 196 -6 218 -6 l 189 -6 q 130 21 151 -6 q 130 23 130 22 q 48 -2 101 -2 q 10 4 29 -2 l 10 4 q 40 77 40 28 l 40 277 q 0 356 40 327 l 0 357 q 40 450 40 379 l 40 856 q 2 949 40 921 l 2 951 q 20 954 14 954 m 226 522 l 226 452 q 257 375 226 392 q 269 365 257 374 l 269 363 q 238 335 249 356 q 226 257 226 316 l 226 212 q 330 158 271 158 q 393 202 378 158 q 404 273 404 240 q 369 362 404 341 q 364 365 364 363 q 404 438 404 389 q 362 570 404 555 q 334 575 349 575 l 333 575 q 237 531 287 575 q 226 522 235 531 "},"D":{"x_min":0,"x_max":781.3125,"ha":814,"o":"m 318 973 l 341 973 q 672 843 597 973 q 704 777 686 825 q 724 632 718 729 q 781 512 724 563 q 739 443 749 479 q 724 280 724 392 q 707 193 716 223 q 599 55 671 92 q 513 19 562 33 q 251 -1 434 -1 q 171 29 207 -1 q 84 -20 141 -20 l 70 -20 q 21 -7 41 -20 q 52 101 52 40 l 52 366 q 0 502 52 446 q 54 637 54 551 q 52 713 52 682 l 52 838 q 15 953 52 883 l 15 955 q 75 965 48 965 q 163 941 118 965 q 318 973 196 973 m 271 754 q 272 729 272 737 l 272 630 q 319 499 272 533 l 319 496 q 284 455 303 496 q 272 371 272 421 l 272 273 q 271 208 272 249 q 301 179 271 190 q 335 174 320 174 l 343 174 q 484 246 451 174 q 508 430 508 288 l 508 433 q 472 507 508 480 l 472 507 q 508 577 508 537 q 433 781 508 739 q 337 800 393 800 q 276 775 293 800 q 271 754 272 763 "},"z":{"x_min":-12.203125,"x_max":651.09375,"ha":678,"o":"m 92 718 q 165 693 108 693 l 344 693 q 451 695 379 693 q 510 668 491 695 q 512 664 510 664 q 563 677 538 677 l 575 677 q 651 638 628 677 q 575 581 597 619 q 507 468 565 562 q 443 355 443 370 q 442 348 443 353 q 465 292 442 330 l 463 291 l 455 291 q 362 234 393 291 q 314 153 314 162 q 332 139 314 139 l 515 139 q 589 168 552 139 q 598 135 598 155 l 598 132 q 577 70 598 98 q 601 31 589 66 q 608 -6 607 16 q 603 -27 606 -27 q 527 3 577 3 l 225 3 q 160 16 170 3 q 151 26 151 23 l 149 26 q 83 4 131 4 l 80 4 q -12 32 12 4 l -10 33 l 0 33 q 100 121 56 33 q 236 336 227 318 q 242 361 242 352 l 242 366 q 221 430 242 385 l 221 430 q 259 423 248 423 q 330 481 299 423 q 366 541 366 532 l 366 545 q 348 560 366 560 l 180 560 q 102 539 114 560 q 86 579 86 553 l 86 581 q 101 634 86 612 q 82 691 82 653 q 92 718 82 708 "},"w":{"x_min":0,"x_max":911.53125,"ha":950,"o":"m 501 707 l 510 707 q 550 692 533 707 q 531 647 531 666 l 531 644 q 569 493 533 625 q 619 299 603 366 l 623 299 q 636 366 636 353 q 607 427 636 397 l 607 429 l 608 429 q 656 451 643 429 q 687 569 663 459 q 705 652 705 640 q 681 704 705 670 l 681 705 q 699 707 692 707 l 701 707 q 787 669 756 707 q 794 653 794 658 l 796 653 q 834 667 808 667 q 906 633 876 667 l 911 628 q 888 621 911 627 q 852 589 863 611 q 817 465 845 573 q 807 419 807 436 q 838 379 807 398 q 841 376 839 379 q 790 339 809 367 q 750 211 773 315 q 706 40 706 52 q 727 8 706 23 q 689 0 716 0 l 679 0 q 629 22 645 0 q 574 2 612 2 l 566 2 q 526 12 535 2 q 549 46 549 29 q 463 381 545 69 q 453 422 455 411 l 447 422 q 355 52 355 64 l 355 50 q 383 14 355 29 l 383 12 q 345 6 363 6 l 338 6 q 269 31 284 6 l 267 31 q 195 6 250 6 q 165 10 179 6 l 165 14 q 192 49 192 25 q 133 272 192 60 q 111 335 122 315 q 61 376 90 364 l 61 377 q 91 419 91 397 q 65 520 91 433 q 35 614 46 596 q 0 638 14 636 l 0 640 q 69 667 22 667 q 113 653 94 667 q 151 694 113 673 q 196 704 175 704 l 198 704 q 210 701 210 704 q 192 649 192 674 q 230 485 192 620 q 261 440 238 462 q 286 427 278 429 l 286 426 q 259 366 259 400 l 259 362 q 274 299 259 354 l 282 299 q 330 499 295 363 q 368 655 368 647 l 368 657 q 346 694 368 674 q 385 702 356 702 l 393 702 q 450 679 431 702 l 452 679 q 501 707 467 707 "},"$":{"x_min":111.90625,"x_max":1728.109375,"ha":1763,"o":"m 1019 243 q 995 213 1019 223 q 985 211 992 211 l 984 211 q 950 236 960 211 q 948 246 948 244 q 975 280 948 269 q 983 282 980 282 l 986 282 q 1019 253 1009 282 l 1019 243 m 962 359 l 962 358 q 943 329 943 349 q 933 284 940 303 q 886 231 918 250 q 829 211 875 224 l 817 202 l 817 201 q 779 217 808 212 q 728 237 754 219 q 689 293 699 259 q 679 377 679 323 q 661 409 669 409 q 655 414 661 412 l 655 417 q 673 435 661 417 q 679 493 678 439 q 744 604 678 569 q 792 619 763 611 q 806 634 797 625 q 845 616 823 616 q 904 589 882 608 q 935 527 925 572 q 951 488 936 502 q 931 481 946 481 q 897 492 913 481 q 862 482 878 482 l 852 482 q 839 485 839 482 q 851 506 847 485 l 851 512 q 826 543 851 534 q 813 531 817 543 l 812 531 q 794 541 803 541 q 766 480 765 541 l 766 459 q 781 422 767 430 q 790 416 790 417 q 769 392 769 402 q 767 377 767 392 l 767 359 q 790 292 768 299 q 796 289 796 289 q 815 303 806 289 q 832 293 825 293 q 855 326 848 293 l 855 333 q 841 358 855 343 l 841 359 q 858 364 848 364 l 865 364 q 902 349 883 364 q 929 364 910 364 q 936 365 929 365 l 943 365 q 962 359 957 365 m 643 607 q 633 569 643 589 q 643 539 643 561 l 643 524 q 640 522 643 522 q 597 535 614 536 q 569 534 581 535 l 567 534 q 526 535 549 534 q 489 509 489 535 l 489 454 l 506 454 q 548 478 535 455 l 550 478 q 556 458 556 472 q 543 423 556 441 q 556 404 556 414 l 556 400 q 551 366 554 366 q 497 382 538 383 l 492 382 l 492 353 q 491 281 493 326 q 514 226 492 254 q 520 221 520 222 q 503 216 519 217 l 497 215 q 455 236 468 215 l 455 237 l 454 237 q 413 216 442 216 l 411 216 q 387 218 398 216 l 387 219 q 405 264 404 240 l 404 367 q 379 420 404 405 q 404 459 404 438 l 403 535 q 379 604 402 564 l 379 606 q 386 609 378 608 q 445 586 417 609 q 497 606 462 606 l 588 607 q 639 625 616 607 l 640 625 q 643 607 643 610 m 641 242 q 615 208 642 219 q 607 207 610 207 l 605 207 q 572 232 582 207 l 570 242 q 596 277 570 266 q 604 278 601 278 l 607 278 q 640 250 630 278 q 641 242 640 246 m 371 244 l 371 239 q 343 205 372 215 l 336 204 q 302 233 310 204 q 301 241 301 236 q 328 274 301 263 q 335 276 333 276 l 338 276 q 370 251 360 276 q 371 244 371 248 m 285 598 q 240 551 240 583 l 242 450 q 261 412 242 424 q 242 377 242 401 l 243 268 q 285 218 244 233 l 288 217 l 288 217 q 256 209 286 211 q 203 225 219 208 l 202 225 q 164 205 191 206 l 153 205 q 115 214 138 205 l 115 215 q 158 264 158 229 l 157 363 q 151 400 157 393 l 138 411 l 138 413 q 156 461 157 420 l 155 529 q 148 575 155 567 q 111 596 133 589 l 111 597 q 156 607 130 607 q 196 594 180 607 l 198 594 q 236 608 212 608 l 242 608 q 285 598 267 609 m 1294 975 q 1323 965 1301 975 q 1336 959 1333 959 q 1383 971 1346 960 q 1407 974 1392 973 q 1464 942 1453 974 q 1471 900 1469 927 q 1475 784 1473 864 q 1479 762 1477 762 l 1481 762 l 1509 773 q 1511 771 1509 773 q 1512 773 1511 771 q 1511 779 1511 774 l 1511 779 q 1515 777 1514 777 q 1518 780 1517 777 l 1520 779 l 1522 779 q 1577 807 1533 793 q 1657 822 1627 822 l 1677 822 q 1719 802 1698 822 q 1728 786 1728 792 l 1728 766 q 1690 704 1728 739 q 1605 653 1648 667 q 1526 630 1565 638 q 1503 611 1503 623 q 1505 583 1505 588 q 1490 524 1505 564 q 1479 470 1479 493 l 1479 469 q 1471 453 1479 467 q 1467 440 1467 445 l 1467 439 l 1468 421 q 1452 373 1468 400 q 1448 356 1448 361 q 1450 346 1448 350 q 1441 336 1450 345 q 1422 291 1434 326 q 1401 259 1414 271 q 1384 249 1395 253 l 1384 246 l 1384 241 q 1361 210 1384 225 q 1351 207 1355 207 l 1348 207 q 1330 235 1341 207 q 1317 251 1325 242 q 1283 278 1291 271 q 1273 301 1273 289 q 1260 339 1271 311 q 1233 412 1251 362 q 1215 449 1227 425 q 1204 472 1208 472 q 1195 474 1201 474 l 1195 473 l 1195 472 q 1180 449 1180 451 q 1160 373 1180 417 q 1127 345 1144 345 l 1125 345 q 1119 352 1119 345 l 1119 353 q 1127 364 1119 359 q 1129 371 1129 366 l 1129 377 q 1121 433 1122 433 q 1119 434 1121 434 q 1070 419 1077 419 q 1063 419 1066 419 l 1055 419 q 1049 423 1054 419 q 1045 427 1045 423 l 1045 438 q 1055 444 1045 441 q 1108 504 1079 453 q 1128 529 1118 518 q 1163 543 1144 543 l 1165 543 q 1179 539 1170 543 q 1182 538 1181 538 q 1216 552 1200 538 q 1217 553 1216 553 q 1207 625 1213 596 q 1200 634 1206 629 q 1125 656 1181 644 q 1028 705 1041 685 q 1018 731 1018 718 l 1018 746 q 1047 770 1018 758 q 1102 781 1084 781 q 1150 786 1110 784 q 1222 779 1217 779 q 1237 839 1226 786 q 1254 913 1243 878 q 1268 952 1261 941 q 1292 973 1278 967 q 1294 975 1292 975 m 1257 866 l 1256 866 l 1254 869 q 1241 773 1253 865 q 1227 763 1228 763 q 1157 770 1216 763 q 1142 771 1151 771 l 1140 771 q 1062 763 1132 771 q 1051 758 1051 762 q 1053 756 1052 756 q 1131 760 1122 760 l 1141 760 q 1260 723 1195 760 q 1349 696 1308 696 q 1382 704 1363 696 q 1397 707 1397 705 l 1397 710 q 1373 705 1374 705 q 1306 725 1355 712 q 1268 746 1280 733 q 1265 751 1265 749 l 1265 752 q 1267 754 1265 752 l 1268 754 q 1288 746 1269 754 q 1304 748 1289 746 q 1314 746 1312 746 l 1315 746 l 1315 746 q 1309 749 1314 746 l 1309 750 l 1311 750 q 1326 750 1317 750 q 1330 763 1330 751 l 1330 768 q 1317 797 1329 773 l 1317 798 q 1325 826 1325 814 q 1321 855 1325 831 q 1326 871 1325 871 q 1334 873 1334 871 q 1345 883 1334 876 q 1369 912 1365 903 q 1374 920 1370 912 q 1371 923 1373 923 q 1367 923 1369 923 q 1363 929 1365 923 l 1362 929 q 1360 928 1362 928 l 1359 928 q 1304 948 1306 947 q 1304 952 1304 950 l 1304 958 q 1302 960 1303 959 q 1281 948 1288 954 q 1259 883 1273 935 q 1257 866 1257 867 m 1315 625 q 1309 585 1315 596 q 1298 566 1305 573 l 1296 566 q 1284 582 1293 567 q 1257 589 1279 589 q 1238 619 1239 619 q 1237 619 1237 619 q 1228 604 1229 619 q 1227 593 1228 602 q 1234 555 1233 555 q 1235 556 1234 556 q 1247 543 1247 545 q 1245 538 1247 539 l 1238 538 q 1221 517 1228 538 q 1220 507 1220 514 l 1220 504 q 1231 463 1220 482 q 1276 406 1241 446 q 1307 357 1307 371 l 1307 356 q 1302 347 1307 347 q 1283 360 1296 347 l 1281 360 q 1279 358 1280 360 l 1279 358 q 1295 301 1280 341 q 1308 280 1304 280 l 1309 280 q 1317 289 1312 282 l 1317 290 q 1315 312 1315 305 q 1325 337 1315 332 q 1327 338 1326 337 q 1307 416 1327 340 q 1315 421 1307 418 q 1360 401 1326 421 l 1361 401 q 1363 404 1363 402 q 1344 428 1361 413 q 1330 446 1331 440 q 1312 496 1319 468 q 1309 498 1311 498 l 1306 497 q 1294 530 1294 529 q 1308 547 1298 540 q 1325 557 1325 553 q 1332 599 1329 562 l 1335 612 q 1318 627 1332 615 l 1317 627 q 1315 625 1315 627 m 1334 571 l 1334 570 q 1336 567 1334 567 q 1342 569 1340 569 q 1340 562 1340 563 q 1344 557 1341 557 q 1354 562 1353 562 l 1355 562 l 1362 560 q 1372 565 1369 560 l 1372 565 q 1362 564 1363 564 l 1349 573 q 1342 571 1343 571 q 1336 574 1338 574 l 1336 574 q 1334 571 1334 574 m 1355 543 q 1368 545 1363 545 q 1365 540 1365 541 q 1367 538 1366 539 q 1382 542 1367 541 q 1390 543 1386 543 q 1392 533 1392 543 l 1393 533 q 1394 535 1393 534 l 1394 535 l 1393 538 l 1395 541 q 1452 529 1419 541 q 1470 521 1464 521 q 1475 525 1475 522 q 1466 530 1475 529 q 1399 546 1411 546 q 1372 548 1389 548 l 1360 548 q 1355 543 1356 548 m 1135 509 l 1135 508 q 1127 487 1135 495 q 1127 485 1127 486 q 1130 482 1127 483 q 1140 495 1140 488 l 1140 506 q 1136 509 1140 509 l 1135 509 m 1367 497 q 1386 483 1372 489 q 1391 482 1388 483 l 1391 482 q 1389 479 1389 480 q 1392 478 1391 478 l 1393 478 l 1395 479 q 1420 461 1397 479 l 1421 459 q 1419 457 1420 458 l 1419 456 q 1423 455 1422 455 q 1428 458 1424 455 q 1433 446 1429 457 l 1439 443 q 1445 433 1443 434 l 1445 433 q 1452 438 1452 433 l 1452 463 q 1386 495 1451 472 q 1371 499 1372 499 l 1370 499 q 1367 497 1367 499 m 1144 461 q 1147 459 1144 459 q 1157 465 1157 462 q 1155 468 1157 467 l 1154 468 q 1144 461 1144 464 m 1142 390 q 1145 387 1142 388 l 1154 387 q 1156 391 1156 388 l 1156 392 l 1155 392 q 1150 395 1152 392 q 1152 401 1151 400 l 1151 401 q 1142 390 1142 392 m 1370 358 q 1403 298 1401 300 l 1405 297 q 1407 299 1407 298 q 1392 329 1392 327 l 1392 330 q 1398 334 1392 332 l 1399 335 q 1398 341 1398 339 l 1400 342 l 1401 342 l 1408 340 q 1410 342 1410 341 l 1410 343 q 1385 358 1410 347 q 1372 361 1376 360 l 1372 361 q 1370 358 1370 360 m 125 183 l 132 183 q 147 177 141 183 q 165 183 154 183 q 175 181 175 183 q 168 160 168 175 l 168 117 q 173 90 168 94 q 179 85 173 89 q 168 68 168 79 q 168 59 168 65 l 168 41 q 172 25 168 26 q 177 23 173 24 q 184 23 182 23 l 238 23 q 254 33 247 23 l 254 33 q 256 27 256 31 q 247 4 256 14 q 254 -10 254 0 q 252 -18 253 -16 l 252 -18 q 240 -12 246 -12 l 238 -12 q 153 -10 153 -12 q 147 -4 151 -9 q 118 -12 137 -12 l 118 -12 q 124 9 124 -4 l 124 63 q 112 85 124 78 l 112 85 q 124 107 124 92 l 124 160 q 117 181 124 174 q 125 183 117 183 m 588 183 l 590 183 q 609 176 602 183 q 631 183 614 183 l 644 183 q 697 172 687 183 q 712 152 708 165 q 722 134 717 134 l 722 133 q 711 109 718 130 q 696 94 704 98 q 689 91 691 91 l 689 90 q 710 78 697 90 q 719 56 716 70 q 727 47 719 52 q 727 46 727 47 q 720 33 720 42 q 709 9 716 18 q 688 -6 698 -3 q 638 -10 676 -10 l 628 -10 q 611 -4 616 -10 q 592 -12 605 -12 q 579 -10 588 -12 l 579 -10 q 588 8 588 -4 l 588 59 q 576 85 588 80 l 576 86 q 585 97 582 89 q 588 113 588 105 l 588 161 q 580 181 588 175 q 588 183 583 183 m 1207 181 q 1223 177 1218 181 q 1239 181 1228 181 l 1240 181 q 1247 179 1245 181 q 1242 167 1242 172 l 1242 130 l 1254 130 q 1268 135 1263 130 q 1270 128 1270 133 l 1270 126 q 1266 116 1270 122 q 1270 105 1270 113 q 1270 99 1270 104 l 1268 99 q 1260 103 1265 103 l 1242 103 l 1242 74 q 1249 59 1242 63 q 1242 46 1242 55 l 1242 26 q 1260 16 1242 16 q 1271 23 1264 16 l 1272 23 q 1274 16 1274 19 l 1274 14 q 1270 2 1274 7 q 1274 -7 1274 -1 l 1274 -10 q 1272 -16 1274 -15 q 1260 -12 1267 -12 q 1247 -12 1254 -12 l 1243 -12 q 1209 4 1220 -12 q 1205 30 1205 11 l 1205 48 q 1198 59 1205 54 q 1205 75 1205 64 l 1205 103 l 1194 103 q 1184 99 1188 103 q 1182 106 1183 101 q 1187 118 1182 113 q 1182 129 1182 123 l 1182 129 q 1184 133 1182 132 q 1196 130 1188 130 l 1205 130 l 1205 163 q 1199 179 1205 172 q 1207 181 1199 180 m 1148 180 l 1152 180 q 1169 167 1163 180 q 1170 164 1170 166 l 1170 162 q 1157 146 1170 151 q 1152 145 1154 145 l 1148 145 q 1131 158 1137 145 l 1130 162 q 1144 179 1130 174 q 1148 180 1146 180 m 1106 179 l 1110 179 q 1113 179 1113 179 q 1106 159 1106 173 l 1106 80 q 1113 59 1106 64 l 1113 59 q 1106 42 1106 54 l 1106 4 q 1111 -11 1106 -6 l 1111 -12 q 1102 -12 1106 -12 q 1087 -8 1094 -12 q 1077 -13 1087 -10 l 1074 -13 q 1067 -10 1068 -13 q 1071 4 1071 -7 l 1071 10 l 1070 10 q 1058 -4 1064 1 q 1034 -13 1046 -13 q 1000 10 1008 -13 q 996 46 997 16 q 988 59 996 53 q 996 74 996 64 q 1009 122 996 112 q 1030 130 1017 130 l 1033 130 q 1068 109 1051 130 l 1069 109 l 1069 145 q 1064 174 1069 172 l 1062 177 q 1068 179 1062 179 q 1087 172 1080 179 q 1106 179 1095 179 m 630 145 l 630 104 l 634 104 q 669 111 665 104 q 674 122 674 117 l 674 123 q 667 130 674 128 l 667 131 q 672 139 672 136 q 660 151 672 145 q 653 152 655 152 l 638 152 q 630 145 630 152 m 784 130 l 792 130 q 831 116 815 130 q 840 89 840 106 q 843 67 840 71 q 851 59 844 65 q 840 39 840 48 l 840 21 q 846 14 840 18 q 849 13 848 13 q 856 15 851 13 l 856 14 l 856 12 q 846 -1 856 4 q 845 -2 845 -1 l 845 -2 l 845 -6 q 837 -20 845 -13 q 832 -11 835 -11 l 819 -5 q 809 6 809 3 l 808 6 q 794 -5 797 -5 q 773 -12 783 -12 l 769 -12 q 739 7 750 -12 q 733 23 735 19 q 726 31 732 25 q 739 46 739 42 q 768 71 748 64 q 803 80 790 80 l 803 85 q 800 101 803 101 q 787 106 796 106 l 785 106 q 760 96 771 106 q 756 88 757 94 l 755 88 q 747 98 747 92 l 747 101 q 748 104 748 103 q 733 114 739 104 l 732 116 q 733 116 733 116 q 737 115 735 115 q 748 122 740 115 q 784 130 764 130 m 446 130 l 453 130 q 484 121 465 130 q 491 120 489 120 l 493 120 l 496 120 q 497 120 496 120 q 484 105 492 105 l 483 105 l 483 103 l 483 100 q 476 88 483 94 q 474 88 474 88 q 465 99 474 92 q 450 103 457 103 l 448 103 q 436 96 439 103 q 436 93 436 96 q 455 77 436 84 q 464 74 460 74 q 474 77 467 74 q 474 76 474 76 l 474 75 l 474 73 q 484 59 474 66 q 497 28 497 46 l 497 27 q 467 -13 497 -2 q 448 -16 457 -16 q 411 -7 432 -16 q 403 -6 406 -6 q 398 -6 400 -6 l 398 -6 q 411 11 398 4 l 414 11 q 413 14 413 13 l 413 16 q 422 29 413 26 q 432 14 424 21 q 448 10 439 10 l 449 10 q 462 19 459 10 l 462 23 q 447 35 462 31 l 446 35 q 439 33 442 35 l 439 34 l 439 35 q 430 48 439 45 q 413 59 423 48 q 402 83 402 71 l 402 85 q 402 86 402 86 q 402 88 402 87 l 402 89 q 425 124 402 111 q 446 130 436 130 m 1462 130 l 1469 130 q 1500 121 1481 130 q 1507 120 1504 120 l 1508 120 l 1511 120 l 1512 119 q 1498 105 1509 105 q 1499 101 1499 104 q 1490 88 1499 93 q 1481 99 1488 95 q 1467 103 1473 103 l 1464 103 q 1452 97 1455 103 q 1451 94 1451 96 l 1451 92 q 1477 75 1451 83 q 1480 74 1479 74 q 1489 77 1483 74 l 1490 76 l 1490 75 q 1489 73 1490 74 q 1500 58 1489 67 q 1512 30 1512 46 l 1512 23 q 1491 -10 1512 2 q 1464 -16 1478 -16 q 1429 -8 1448 -16 q 1419 -6 1424 -6 q 1414 -6 1416 -6 l 1414 -6 l 1414 -4 q 1426 10 1414 3 q 1429 11 1427 11 q 1429 16 1429 12 q 1437 29 1429 25 q 1438 29 1437 29 q 1445 16 1440 20 q 1463 10 1453 10 l 1464 10 q 1478 21 1475 10 l 1478 22 q 1462 35 1478 32 l 1461 35 q 1455 33 1458 35 q 1448 47 1455 43 q 1426 62 1437 50 q 1418 86 1418 73 q 1448 128 1418 116 q 1462 130 1454 130 m 328 128 q 378 101 367 128 q 383 71 383 88 q 389 61 385 63 q 391 59 391 60 l 391 59 q 384 42 385 56 q 364 -8 384 4 q 333 -17 352 -17 l 327 -17 q 280 8 290 -17 q 274 46 274 21 q 268 56 271 56 q 265 59 267 59 l 265 59 q 274 73 274 64 q 280 104 274 88 q 328 128 293 128 m 1344 128 q 1394 101 1382 128 q 1399 69 1399 86 q 1405 61 1401 64 q 1407 60 1406 60 l 1407 59 q 1399 37 1399 54 q 1373 -12 1399 0 q 1348 -17 1362 -17 l 1343 -17 q 1296 6 1307 -17 q 1289 47 1289 21 q 1283 58 1287 54 q 1281 59 1282 59 l 1281 60 q 1289 75 1289 63 q 1298 107 1291 93 q 1344 128 1311 128 m 872 126 l 876 126 q 886 122 882 126 l 887 122 q 900 126 892 126 q 907 125 905 126 l 907 124 q 902 105 902 119 l 902 96 l 902 96 q 926 121 910 113 q 940 124 933 124 l 942 124 q 971 99 962 124 q 973 69 973 92 q 980 59 974 64 q 973 46 973 55 l 973 15 q 976 -7 973 -7 q 978 -9 976 -8 q 969 -12 974 -12 l 967 -12 q 956 -6 961 -12 q 940 -13 950 -13 q 933 -11 937 -13 q 939 3 939 -4 q 938 27 938 21 q 939 48 938 31 q 931 60 939 53 l 931 60 q 939 71 939 63 l 939 73 q 932 92 939 90 q 926 93 929 93 q 904 80 918 93 l 904 70 q 910 60 904 63 q 904 46 904 55 l 904 15 q 909 -6 904 -2 q 911 -8 910 -6 l 911 -10 q 902 -11 906 -11 q 889 -7 893 -11 q 874 -12 883 -12 q 864 -10 864 -11 q 870 4 870 -4 l 870 48 q 862 60 870 54 l 862 60 q 870 78 869 63 l 870 107 q 864 124 870 118 q 872 126 867 126 m 1133 126 q 1151 121 1143 126 l 1151 121 q 1163 125 1155 125 l 1166 125 q 1175 123 1174 125 q 1168 111 1168 118 q 1168 73 1168 88 q 1176 59 1168 65 l 1176 59 q 1168 43 1168 54 l 1168 39 q 1168 10 1168 27 q 1174 -10 1168 -2 q 1167 -12 1174 -11 l 1165 -12 q 1150 -6 1157 -12 q 1138 -12 1148 -12 q 1127 -10 1128 -12 q 1132 4 1132 -6 l 1132 46 q 1125 59 1132 54 q 1129 62 1129 61 q 1132 70 1132 65 l 1132 109 q 1124 124 1132 115 q 1133 126 1126 126 m 1034 76 l 1034 74 q 1042 61 1034 66 q 1034 42 1034 55 l 1034 40 q 1048 19 1034 19 l 1049 19 q 1070 30 1061 19 l 1070 41 q 1065 57 1070 54 l 1061 61 q 1070 78 1070 65 l 1070 91 q 1048 102 1058 102 q 1037 94 1039 102 q 1034 76 1034 87 m 311 72 q 319 59 311 63 l 319 59 q 311 46 311 54 q 318 14 311 22 q 329 10 322 10 q 342 16 339 10 q 346 39 346 23 l 346 44 q 340 59 346 52 l 340 59 q 346 70 346 65 l 346 75 q 336 99 346 93 q 328 100 331 100 q 312 86 316 100 q 311 72 311 80 m 1327 73 l 1327 71 q 1334 59 1327 63 q 1327 46 1327 54 l 1327 42 q 1333 14 1327 22 q 1345 10 1338 10 q 1359 18 1355 10 q 1362 44 1362 26 q 1356 59 1362 52 l 1356 60 q 1362 72 1362 63 q 1353 98 1362 93 q 1344 100 1349 100 q 1327 82 1330 100 q 1327 73 1327 78 m 630 73 l 630 29 q 639 20 630 21 l 642 20 q 668 25 663 20 q 676 38 676 31 q 670 48 676 43 q 676 55 676 51 l 676 56 q 666 71 676 63 q 642 73 659 73 l 630 73 m 771 39 q 778 31 771 35 l 778 31 q 770 23 770 27 q 782 14 773 14 q 800 29 796 14 q 801 43 801 34 l 801 59 q 777 48 792 59 q 771 39 771 42 "},"\\":{"x_min":0,"x_max":0,"ha":386},"-":{"x_min":67.828125,"x_max":511.375,"ha":610,"o":"m 67 408 l 68 413 l 68 417 q 83 478 68 454 q 67 539 67 503 l 67 549 q 78 617 67 582 l 79 617 q 157 545 120 545 l 238 545 q 284 577 265 545 l 285 577 q 328 545 301 545 l 427 545 q 494 592 453 545 q 500 616 499 607 l 501 616 q 507 570 507 600 l 507 559 q 489 481 507 504 q 503 460 494 481 q 511 417 511 441 l 511 407 q 501 343 511 379 l 500 343 q 461 392 497 365 q 424 412 448 412 l 336 413 q 302 402 309 413 q 284 380 297 396 q 255 408 270 398 q 223 413 243 413 l 158 413 q 79 347 118 413 q 79 343 79 344 l 78 343 q 68 406 68 369 q 67 408 68 408 "},"Q":{"x_min":18.3125,"x_max":848.453125,"ha":882,"o":"m 427 1013 q 486 986 455 986 q 628 935 582 969 q 735 789 705 882 q 761 585 761 709 q 803 505 772 535 q 820 494 817 494 l 820 491 q 760 323 760 440 q 731 141 760 227 l 731 137 q 752 103 731 120 q 771 97 761 99 q 834 138 796 97 q 848 95 848 122 l 848 84 q 809 -9 848 42 q 831 -63 831 -30 l 831 -67 q 813 -142 831 -99 l 809 -142 q 768 -103 803 -122 q 666 -56 687 -79 q 624 8 632 -18 l 622 10 l 620 10 q 529 -28 581 -14 q 451 -41 507 -33 q 414 -68 434 -45 q 350 -37 383 -37 q 256 -10 292 -26 q 162 57 208 10 q 115 136 132 94 q 81 377 81 229 q 58 447 76 417 q 18 493 44 467 q 81 591 81 530 l 81 604 q 83 605 81 605 l 81 608 q 181 908 81 822 q 265 963 219 946 q 388 991 308 981 q 427 1013 415 1001 m 303 661 l 303 594 q 347 493 303 524 l 347 490 q 303 383 303 461 l 303 309 q 356 153 303 183 q 381 147 367 147 q 417 166 400 147 q 453 143 433 143 q 518 193 489 143 q 531 239 531 226 q 511 250 525 250 l 510 250 q 484 212 488 250 l 484 210 q 451 248 466 210 q 447 274 447 259 l 447 283 q 408 322 427 283 q 404 342 404 339 l 405 342 q 419 338 416 338 l 421 338 q 482 350 431 338 l 488 350 q 533 334 511 350 l 536 334 l 536 346 q 519 467 536 448 q 498 491 516 475 q 535 565 535 511 q 536 590 536 567 l 536 634 q 516 767 536 748 q 468 798 493 798 q 422 775 451 798 q 381 798 401 798 l 375 798 q 335 775 360 798 q 303 661 303 738 "},"M":{"x_min":0,"x_max":1026.828125,"ha":1060,"o":"m 727 994 l 734 994 q 840 956 796 994 q 845 944 845 948 l 847 944 q 897 959 866 959 q 984 930 946 959 l 984 929 l 967 920 q 944 878 944 906 q 948 613 947 729 q 978 527 953 560 q 1014 499 1001 501 l 1014 495 q 965 467 980 486 q 951 425 951 448 l 960 115 q 991 56 963 86 q 1026 37 1020 37 l 1026 35 q 948 4 996 4 l 944 4 q 863 41 886 4 q 771 -6 834 -6 l 756 -6 q 694 6 723 -6 l 694 9 q 746 97 746 49 l 746 99 q 750 571 746 277 q 750 572 750 571 l 745 573 q 604 311 610 326 l 604 303 q 649 221 604 261 q 579 207 626 207 q 514 235 534 207 q 456 208 496 208 l 443 208 q 379 219 413 208 l 379 220 q 419 274 419 240 l 419 280 q 385 358 419 306 q 271 559 307 491 q 261 572 265 572 q 255 568 255 572 q 255 482 255 550 l 255 476 q 255 464 255 470 l 255 461 l 265 247 q 279 69 270 69 q 322 9 281 46 q 266 -4 299 -4 q 174 37 194 -2 q 75 -4 138 -4 l 75 -4 q 17 12 34 -4 q 61 101 61 44 q 59 117 61 102 q 57 407 59 200 q 58 423 58 417 q 8 492 58 474 q 0 495 0 495 l 0 497 q 48 570 37 530 q 54 612 52 584 q 49 876 54 876 q 26 901 41 893 q 1 910 21 904 l 1 911 q 61 935 1 921 q 96 938 78 938 q 145 924 130 938 q 195 978 158 956 q 255 994 229 994 l 262 994 q 284 988 284 992 q 271 938 271 953 l 271 931 q 295 878 271 917 l 505 514 l 507 514 q 731 930 528 556 q 734 945 734 944 q 713 990 734 966 l 713 992 q 727 994 722 994 "},"C":{"x_min":0,"x_max":763.671875,"ha":775,"o":"m 381 1032 q 443 990 399 1006 q 558 959 516 978 q 617 921 590 943 q 676 841 668 870 q 701 752 701 779 q 724 677 710 691 l 737 663 l 737 660 q 695 649 718 649 l 685 649 q 604 677 643 649 q 501 652 561 652 q 462 657 480 652 l 462 660 q 487 693 473 660 q 493 717 493 706 l 493 722 q 451 798 493 765 q 432 807 440 807 l 427 807 q 395 775 408 807 l 394 775 q 352 800 376 800 l 349 800 q 280 718 298 800 q 278 680 278 704 l 278 577 q 336 491 278 517 l 336 488 q 278 411 278 461 l 278 309 q 346 174 278 193 l 354 174 q 395 208 377 174 q 438 179 417 179 q 497 263 478 179 l 497 272 q 462 343 497 309 l 462 344 q 513 358 478 358 q 611 320 570 358 q 710 358 632 358 q 763 343 748 358 q 722 307 734 332 q 708 233 716 297 q 676 129 708 198 q 534 10 621 42 q 446 -13 510 2 q 399 -44 421 -23 l 397 -44 q 333 -10 369 -14 q 206 28 251 2 q 134 86 179 44 q 81 186 94 134 q 61 380 61 248 q 41 448 54 421 q 0 489 25 475 l 0 491 q 61 609 61 524 l 61 614 q 96 828 61 760 q 219 954 134 908 q 333 989 262 973 q 381 1032 359 999 "},"[":{"x_min":0,"x_max":0,"ha":514},"L":{"x_min":0,"x_max":714.84375,"ha":765,"o":"m 70 978 l 88 978 q 175 944 149 978 q 266 977 210 977 q 317 964 299 977 q 277 885 277 933 l 277 606 q 326 493 277 518 q 336 487 336 489 l 336 486 q 277 389 277 463 l 277 239 q 305 183 277 196 l 330 179 l 341 180 l 626 180 q 707 228 675 180 l 710 228 q 714 206 714 213 l 714 187 q 675 84 714 130 l 675 82 q 706 10 706 60 q 697 -32 702 -32 q 640 -2 671 -2 q 216 8 216 -2 q 177 42 200 12 q 175 44 177 44 q 28 -2 129 -2 l 28 0 q 59 108 59 40 l 59 373 q 6 482 59 448 l 0 489 q 59 599 59 518 l 59 860 q 25 967 59 931 l 25 968 q 70 978 46 978 "},";":{"x_min":0,"x_max":0,"ha":424},"!":{"x_min":10.171875,"x_max":334.359375,"ha":488,"o":"m 334 970 q 271 841 267 912 l 271 775 l 271 711 l 271 610 q 326 483 271 504 q 262 408 271 474 q 258 299 253 343 q 290 203 263 255 q 168 253 203 211 q 48 203 137 212 q 81 302 76 261 q 77 409 86 343 q 10 484 68 474 q 67 610 61 499 l 67 711 l 67 841 q 17 971 67 919 q 103 977 62 980 q 167 942 145 974 q 245 975 187 973 q 334 970 303 978 m 170 179 l 177 179 q 273 113 239 179 q 280 76 280 93 l 280 69 q 214 -26 280 7 q 177 -33 194 -33 l 170 -33 q 74 32 108 -33 q 67 69 67 52 l 67 76 q 133 172 67 138 q 170 179 153 179 "}," ":{"x_min":0,"x_max":0,"ha":345},"X":{"x_min":0,"x_max":868.796875,"ha":909,"o":"m 263 997 l 271 997 q 285 995 277 997 l 285 992 q 272 959 272 973 q 314 874 272 940 q 417 681 377 766 q 425 669 423 669 l 430 669 q 570 933 552 897 q 575 962 575 952 q 568 992 575 978 l 570 994 l 577 994 q 676 942 648 994 q 681 930 680 930 q 759 948 713 948 q 831 927 814 948 l 832 925 q 755 859 789 910 q 604 598 618 624 q 598 566 598 580 l 598 556 q 628 510 598 522 l 628 507 q 594 457 594 491 q 636 366 594 432 q 771 132 746 166 q 845 78 813 85 l 868 69 q 788 35 849 35 l 784 35 q 711 48 747 35 q 649 -23 697 5 q 608 -37 623 -37 l 598 -37 l 586 -36 l 586 -34 q 602 7 602 -12 q 552 117 602 33 q 436 345 469 279 l 430 345 q 280 49 379 256 q 268 3 268 25 q 278 -33 268 -10 l 276 -33 q 186 3 237 -33 q 162 50 162 25 q 164 51 164 50 l 162 51 q 82 37 120 37 q 2 67 21 37 q 0 73 0 71 l 35 85 q 141 208 96 113 q 274 452 259 421 q 276 471 276 466 q 236 505 276 499 l 236 507 q 272 556 272 535 l 272 556 q 235 628 272 572 q 91 872 111 843 q 29 921 61 911 q 17 925 17 923 q 90 950 46 950 q 170 933 126 950 l 170 934 q 206 981 170 953 q 263 997 239 997 "},"P":{"x_min":0,"x_max":785.375,"ha":814,"o":"m 59 990 l 74 990 q 177 950 147 990 q 177 946 177 947 l 180 946 q 318 985 224 985 l 334 985 q 569 959 511 985 q 638 921 583 957 q 725 796 701 874 q 767 693 741 713 l 785 679 q 744 632 754 663 q 701 519 721 550 q 630 442 680 480 q 519 395 593 412 q 320 380 500 386 q 278 330 284 380 l 278 265 q 284 70 278 70 q 315 16 290 37 q 323 9 323 11 l 323 8 q 280 0 302 0 l 263 0 q 177 40 209 0 q 99 5 149 5 l 81 5 q 17 15 47 5 l 17 16 q 63 111 63 47 l 63 334 q 64 398 63 358 q 0 497 64 466 l 0 499 q 44 533 26 514 q 66 593 66 561 q 63 680 63 649 l 63 882 q 21 984 63 940 q 59 990 33 990 m 271 755 l 271 529 l 340 529 q 446 545 425 529 q 497 610 480 564 q 499 619 499 616 q 463 670 499 645 q 496 699 480 682 q 501 718 501 710 l 501 721 q 469 777 491 763 q 348 803 436 803 l 340 803 q 275 776 286 803 q 271 755 271 764 "},"%":{"x_min":0,"x_max":0,"ha":1191},"#":{"x_min":67.828125,"x_max":1721.328125,"ha":1831,"o":"m 886 1145 q 894 1121 889 1145 q 892 1115 892 1118 q 897 1115 897 1115 q 895 1106 897 1113 l 906 1106 q 908 1104 908 1105 q 906 1102 908 1102 l 892 1102 l 892 1100 q 902 1089 902 1096 q 898 1087 898 1089 q 908 1079 898 1080 l 908 1078 q 905 1072 905 1077 q 910 1070 908 1070 l 910 1069 q 906 1057 906 1058 l 908 1053 q 907 1052 907 1053 q 887 1065 896 1054 q 855 1043 866 1049 l 855 1044 l 864 1082 q 835 1104 849 1089 l 836 1106 l 877 1106 q 875 1111 875 1110 q 886 1145 883 1145 m 1115 1119 l 1117 1119 l 1117 1100 q 1120 1079 1119 1093 q 1150 1073 1123 1076 l 1155 1067 l 1155 1066 q 1122 1052 1154 1064 q 1123 1037 1123 1043 l 1123 1026 q 1125 1013 1125 1018 q 1098 1041 1112 1021 l 1098 1041 q 1063 1030 1072 1030 l 1063 1030 q 1079 1062 1063 1036 q 1053 1091 1053 1089 l 1054 1091 q 1096 1086 1075 1089 q 1115 1119 1100 1102 m 659 1117 l 660 1117 q 680 1086 674 1103 q 718 1093 686 1086 q 719 1091 718 1091 q 697 1062 719 1087 q 712 1030 712 1034 l 712 1030 q 676 1041 704 1030 q 671 1032 673 1032 l 664 1032 q 653 1041 658 1041 l 653 1044 q 656 1048 655 1048 l 649 1071 l 648 1071 l 642 1066 q 633 1070 633 1068 l 633 1071 q 638 1076 633 1072 l 645 1076 q 655 1085 655 1076 q 659 1102 655 1091 l 659 1117 m 912 1059 q 918 1053 912 1058 l 918 1052 l 912 1052 q 910 1054 910 1052 l 910 1057 q 912 1059 910 1059 m 911 1049 l 912 1049 q 920 1043 920 1049 l 918 1043 q 911 1049 911 1043 m 444 1043 l 444 1043 q 472 1017 468 1018 q 507 1032 476 1017 l 507 1031 q 491 996 507 1030 q 511 967 510 976 l 509 966 q 506 969 509 967 l 490 969 q 477 972 479 972 q 461 940 468 958 q 453 948 453 942 l 453 961 q 444 980 453 980 q 415 983 436 980 q 448 1003 415 992 l 448 1013 q 444 1024 444 1024 l 444 1043 m 1330 1041 l 1331 1041 l 1331 1022 q 1327 1015 1327 1018 l 1327 1003 q 1360 982 1360 992 q 1323 976 1323 980 q 1321 963 1321 965 l 1319 963 l 1317 969 q 1308 963 1311 969 q 1315 959 1315 963 l 1315 957 l 1320 961 l 1321 959 l 1321 944 q 1314 941 1319 941 l 1313 941 q 1294 972 1313 956 q 1286 969 1289 969 l 1278 969 q 1258 965 1273 969 l 1258 966 l 1284 996 q 1267 1031 1267 1028 q 1305 1017 1301 1017 q 1330 1041 1305 1018 m 864 1024 l 878 1024 q 898 1013 881 1024 l 899 1013 q 922 1020 916 1020 q 946 1015 929 1017 q 964 1011 946 1013 q 966 1009 965 1009 l 978 1009 q 988 1007 987 1007 l 998 1007 q 1009 1003 1007 1003 l 1018 1003 q 1024 1000 1021 1000 l 1034 1000 q 1042 996 1042 999 l 1044 997 l 1056 997 q 1065 993 1062 993 l 1074 993 q 1082 990 1078 993 l 1089 990 q 1115 981 1098 990 l 1115 979 l 1102 979 l 1061 989 l 1048 989 l 1037 993 l 1026 992 q 1004 997 1026 996 q 999 999 1004 999 l 989 999 q 980 1003 985 999 l 971 1003 q 964 1006 968 1003 l 955 1006 q 946 1009 954 1006 l 933 1009 q 921 1013 931 1009 q 903 1006 903 1009 q 888 970 896 998 l 888 959 q 884 948 884 948 l 884 937 q 881 931 884 934 l 881 918 q 877 910 881 914 l 878 908 l 878 903 q 874 891 878 902 l 874 879 q 871 872 871 876 l 871 862 q 868 855 871 857 l 868 848 l 868 847 q 864 821 864 838 q 862 816 862 821 l 862 806 q 857 798 862 801 l 859 792 q 851 781 859 781 l 851 792 q 855 801 851 795 q 853 817 853 811 q 857 826 857 823 l 857 835 q 860 842 860 838 l 860 851 q 864 862 860 854 q 864 874 864 862 q 868 883 866 874 l 868 891 q 870 898 870 895 l 870 908 q 874 917 870 912 l 874 918 q 873 929 874 923 q 881 965 881 950 q 884 970 882 965 q 883 983 883 979 q 891 1006 883 987 q 870 1015 872 1015 l 864 1015 q 855 1011 859 1015 l 846 1011 l 836 1009 l 824 1009 q 817 1006 820 1006 l 807 1006 q 798 1002 803 1006 l 786 1002 q 766 998 778 999 q 760 996 766 996 l 751 996 l 740 992 l 731 992 q 724 989 727 989 l 708 989 q 701 986 705 986 q 693 992 695 989 l 695 993 l 702 993 q 714 997 713 997 l 726 997 q 733 1000 730 1000 l 743 1000 q 752 1004 746 1000 l 760 1004 q 760 1003 760 1004 q 784 1008 768 1008 q 790 1009 784 1009 l 799 1009 q 822 1015 808 1014 q 824 1017 822 1017 l 836 1017 l 846 1020 l 855 1020 q 864 1024 859 1020 m 674 990 l 688 990 q 689 988 689 990 l 689 984 q 688 982 689 982 l 674 982 q 672 984 672 982 l 672 988 q 674 990 672 990 m 669 987 l 670 985 l 670 981 q 634 975 670 979 q 628 972 632 972 l 617 972 q 621 980 617 978 l 630 980 q 669 987 639 984 m 1139 980 q 1174 973 1165 977 l 1187 973 q 1213 957 1197 972 q 1219 933 1217 952 l 1228 933 q 1256 927 1232 933 q 1260 921 1256 923 l 1267 921 q 1359 884 1342 897 l 1359 883 q 1235 926 1311 895 l 1220 926 q 1193 893 1205 926 q 1186 887 1189 887 l 1186 888 q 1203 927 1188 912 q 1208 941 1208 934 q 1184 964 1200 964 q 1171 969 1184 966 l 1158 969 q 1139 979 1139 973 l 1139 980 m 937 979 l 937 954 q 942 931 937 948 l 940 929 q 931 933 931 932 q 933 942 931 935 l 921 946 l 921 933 l 920 933 q 911 937 911 935 l 911 939 q 927 976 919 951 q 937 979 933 979 m 613 977 l 613 975 l 613 971 q 596 966 613 969 q 580 944 580 952 l 580 937 q 584 925 584 926 l 584 915 q 587 908 584 912 l 587 899 q 591 888 591 889 l 591 878 q 594 868 594 870 l 594 857 q 598 838 597 855 q 600 832 600 837 l 600 822 q 604 798 604 815 q 607 794 607 798 l 607 784 q 611 775 607 780 l 611 766 q 613 759 611 763 l 613 747 q 617 739 615 739 l 617 732 l 617 731 q 621 719 621 720 l 621 710 q 623 703 621 706 l 623 691 q 628 682 623 687 q 626 674 626 676 q 630 663 630 665 l 630 651 q 633 644 633 647 l 633 634 q 637 624 633 632 q 636 617 637 623 q 641 593 641 609 q 643 588 643 593 l 643 578 q 647 567 647 568 l 647 565 l 646 554 q 639 560 639 554 l 639 570 q 635 581 639 571 l 635 591 q 632 612 632 599 q 628 615 630 612 q 630 628 628 616 q 626 637 626 634 l 626 647 q 621 668 622 655 q 619 673 619 670 q 619 686 619 685 q 615 693 617 686 l 615 704 q 613 710 615 707 l 613 719 q 609 728 613 723 l 609 734 l 610 740 q 606 750 606 747 l 606 760 q 602 767 606 763 l 602 775 l 598 786 l 598 795 q 600 796 598 796 q 596 806 596 803 l 596 818 q 592 837 593 820 q 589 843 589 838 l 589 853 l 586 862 l 586 874 q 580 906 580 895 l 580 909 l 579 909 q 550 903 576 909 l 550 904 q 576 917 564 917 l 573 946 q 598 974 579 971 q 613 977 598 975 m 925 950 l 933 950 l 933 968 l 933 968 q 925 950 925 963 m 621 944 q 646 897 629 944 l 644 896 l 633 896 l 633 898 q 638 901 636 898 q 634 906 636 906 l 628 906 q 617 903 623 906 q 615 904 617 904 q 621 944 619 933 m 623 931 l 623 911 q 632 914 626 911 q 624 931 624 929 l 623 931 m 924 924 l 931 915 l 931 913 l 915 913 l 915 911 l 924 911 q 937 900 937 911 l 937 895 q 927 890 937 892 q 922 897 922 896 q 907 894 910 894 q 901 904 901 900 l 901 906 q 924 924 907 914 m 545 906 l 546 906 l 546 904 q 529 891 541 895 q 503 883 505 883 l 497 890 q 545 906 512 893 m 626 901 l 626 899 l 626 895 q 624 893 626 893 l 615 893 q 613 895 613 893 q 626 901 613 900 m 920 894 l 921 894 q 924 884 924 885 q 923 883 923 884 q 914 886 917 886 l 914 888 q 920 894 914 889 m 1241 894 q 1242 893 1241 893 q 1234 883 1242 883 l 1230 883 l 1228 884 q 1241 894 1228 891 m 637 891 l 648 891 q 651 883 651 891 q 641 853 644 853 q 619 876 619 866 l 621 877 l 630 877 q 637 891 630 881 m 493 884 l 493 883 q 403 846 490 876 q 346 829 379 836 q 330 816 346 828 q 320 798 323 798 l 318 798 q 338 832 318 819 q 470 879 347 832 q 493 884 485 883 m 1387 874 q 1409 868 1393 874 q 1452 853 1421 868 q 1494 839 1492 841 q 1505 829 1505 831 q 1513 815 1505 821 l 1513 805 q 1511 803 1513 803 l 1500 803 q 1496 820 1498 803 q 1473 840 1491 833 q 1387 872 1409 859 l 1387 874 m 1184 870 q 1186 870 1184 870 q 1133 725 1175 843 q 1119 703 1123 704 l 1119 704 q 1151 798 1119 714 q 1174 862 1163 828 q 1184 870 1181 870 m 1224 870 q 1225 864 1225 869 l 1235 864 l 1235 868 l 1237 868 l 1239 845 l 1237 844 l 1229 844 q 1225 850 1227 844 q 1231 851 1226 851 q 1227 859 1229 859 l 1219 859 l 1219 851 q 1208 855 1208 852 q 1222 870 1213 866 l 1224 870 m 1220 841 l 1222 841 l 1229 811 q 1205 797 1218 807 q 1198 827 1202 805 q 1220 841 1219 841 m 801 808 l 801 807 q 798 798 801 805 l 804 798 q 806 805 804 805 q 818 788 818 794 q 817 779 818 787 l 819 775 q 802 747 811 747 q 805 737 805 739 l 794 725 q 791 731 791 730 q 760 725 767 725 q 725 767 725 755 l 725 781 q 744 798 725 795 l 748 798 q 769 781 769 793 l 773 781 l 773 782 q 771 788 771 786 q 786 805 778 803 q 801 808 792 808 m 366 801 q 383 786 373 801 q 397 769 383 774 l 398 767 l 398 763 q 385 758 398 760 l 384 760 q 386 767 386 764 l 384 771 q 373 766 373 767 q 383 755 375 755 q 399 746 396 746 q 411 736 411 746 l 412 731 q 405 725 410 725 q 392 727 402 725 l 390 727 q 379 715 383 715 q 368 727 368 718 q 377 739 368 731 q 375 749 375 744 q 377 754 377 752 q 364 751 369 751 l 364 752 q 368 764 368 759 l 364 781 l 366 781 q 372 771 372 778 q 381 781 381 771 q 370 790 379 781 l 368 790 q 368 784 368 786 l 366 784 l 366 786 q 364 800 366 788 l 366 801 m 1500 801 q 1513 799 1509 799 l 1513 798 q 1500 784 1510 784 l 1496 784 l 1496 786 q 1500 801 1498 801 m 1022 800 q 1026 788 1024 800 l 1020 779 q 1034 771 1034 779 q 1060 729 1056 744 l 1060 725 q 1043 704 1060 712 l 1031 704 q 1013 725 1018 704 l 1011 725 q 996 714 1002 725 q 983 712 986 712 q 963 722 970 714 q 959 738 959 727 q 982 767 963 752 q 1018 797 995 771 l 1022 800 m 320 794 l 324 794 q 338 754 326 794 l 375 656 l 375 654 l 368 652 q 319 786 362 670 q 318 794 319 790 l 320 794 m 777 781 q 781 777 777 779 l 784 784 l 784 784 q 777 781 779 781 m 736 781 q 740 775 738 776 l 744 781 l 736 781 m 753 781 q 762 775 753 777 l 762 781 l 753 781 m 1496 781 q 1502 777 1500 780 l 1502 775 q 1424 554 1502 769 l 1424 550 l 1424 550 q 1471 574 1430 550 l 1479 576 l 1480 574 l 1480 567 q 1412 524 1480 552 q 1407 507 1409 524 q 1420 497 1407 503 q 1443 505 1427 502 q 1467 516 1448 516 q 1472 518 1472 517 l 1469 522 l 1471 524 l 1498 524 l 1498 529 l 1487 529 l 1487 530 q 1534 560 1500 541 l 1549 573 q 1558 570 1551 573 q 1563 582 1558 582 q 1578 590 1564 585 q 1614 619 1599 619 l 1638 619 q 1622 581 1629 581 q 1616 578 1616 579 q 1622 563 1622 568 q 1617 545 1619 545 l 1606 545 q 1615 539 1606 542 q 1611 534 1613 534 q 1600 535 1601 535 q 1591 530 1600 534 q 1583 533 1587 533 l 1522 533 q 1509 530 1520 533 q 1511 524 1511 524 l 1520 524 q 1526 526 1525 526 q 1531 524 1530 524 q 1539 526 1538 526 q 1547 521 1542 521 l 1549 521 q 1552 526 1550 526 l 1553 526 l 1553 520 l 1565 520 l 1582 514 l 1587 514 q 1591 518 1588 514 l 1591 519 l 1585 519 l 1585 521 q 1591 526 1585 522 l 1593 526 q 1602 522 1595 526 q 1611 526 1610 526 l 1612 524 l 1612 521 q 1610 519 1612 519 l 1595 519 l 1595 517 l 1610 517 l 1612 516 q 1602 503 1612 508 l 1601 503 q 1593 506 1597 506 l 1589 506 q 1582 500 1584 506 l 1589 500 q 1609 495 1608 499 q 1604 472 1605 489 q 1594 470 1599 470 l 1587 470 q 1578 474 1583 470 q 1570 470 1572 470 l 1549 470 l 1549 467 l 1591 467 q 1602 459 1602 467 l 1602 448 q 1600 446 1602 446 l 1554 446 q 1533 443 1546 446 l 1509 443 q 1496 446 1498 446 l 1474 446 l 1474 446 q 1478 441 1476 441 l 1498 441 q 1507 438 1507 438 l 1536 438 l 1559 444 l 1571 444 q 1576 438 1574 442 q 1583 441 1580 441 l 1601 441 l 1601 439 l 1599 436 l 1599 430 q 1593 394 1599 394 l 1576 394 l 1576 387 l 1593 387 q 1596 381 1596 387 q 1593 340 1593 348 l 1593 333 q 1587 324 1593 328 l 1574 324 q 1572 321 1574 321 q 1559 324 1566 322 l 1559 323 q 1567 318 1561 318 q 1589 319 1571 318 q 1593 316 1593 318 l 1593 240 l 1587 236 q 1593 233 1593 236 l 1593 217 q 1585 215 1593 215 q 1595 188 1595 207 l 1595 171 q 1599 160 1599 160 l 1599 158 q 1596 139 1599 153 q 1604 124 1604 139 q 1605 120 1605 124 q 1597 114 1597 118 l 1598 114 q 1604 115 1601 115 q 1609 106 1606 115 q 1607 100 1607 103 q 1614 72 1612 91 l 1626 31 q 1629 26 1629 29 q 1627 20 1627 23 q 1632 11 1631 12 l 1632 9 l 1629 4 q 1636 0 1636 4 q 1641 -18 1636 -9 q 1636 -19 1640 -19 l 1636 -23 l 1646 -29 q 1665 -88 1646 -40 q 1663 -88 1663 -88 l 1650 -85 q 1641 -88 1642 -88 q 1601 -55 1606 -61 q 1589 -47 1591 -55 q 1591 -42 1591 -44 l 1580 -42 q 1578 -40 1578 -42 l 1578 -35 l 1570 -35 q 1566 -31 1568 -35 l 1566 -29 q 1582 -25 1579 -25 l 1627 -25 l 1627 -23 q 1625 -19 1625 -21 l 1610 -19 q 1608 -23 1610 -23 l 1604 -19 l 1599 -21 q 1587 -16 1591 -16 q 1566 -23 1569 -23 l 1558 -23 q 1529 -4 1544 -23 l 1529 -3 q 1549 -5 1543 -5 q 1565 6 1565 0 l 1561 6 q 1530 0 1549 6 l 1517 0 q 1477 23 1492 10 l 1477 24 l 1489 24 l 1489 26 l 1478 26 q 1463 33 1463 26 q 1431 52 1447 33 l 1431 43 q 1447 15 1437 15 q 1471 0 1471 2 q 1476 -8 1474 0 l 1492 -8 q 1531 -33 1502 -18 q 1542 -48 1542 -42 l 1555 -48 q 1599 -81 1567 -60 l 1608 -90 q 1602 -92 1607 -92 l 1602 -98 q 1611 -94 1609 -94 l 1613 -94 q 1641 -110 1615 -94 l 1644 -110 q 1671 -107 1654 -110 q 1674 -112 1673 -112 q 1676 -107 1674 -107 l 1693 -107 l 1685 -81 q 1680 -74 1680 -75 q 1684 -53 1684 -58 l 1680 -53 l 1682 -55 q 1675 -58 1680 -58 q 1669 -38 1674 -58 q 1663 -14 1665 -36 q 1658 -8 1658 -11 q 1660 4 1660 -2 q 1641 54 1649 4 q 1637 67 1641 54 l 1641 76 q 1635 78 1635 76 l 1635 80 q 1638 82 1635 82 q 1641 82 1639 82 l 1641 82 q 1635 90 1641 84 q 1637 100 1637 97 q 1626 115 1626 106 q 1624 120 1625 115 q 1625 130 1625 126 l 1625 132 q 1621 141 1621 138 l 1621 151 q 1618 158 1621 155 l 1618 177 q 1614 186 1618 181 l 1614 210 q 1611 221 1614 215 l 1613 223 l 1626 223 q 1632 210 1629 223 l 1632 185 q 1635 178 1635 181 l 1633 171 q 1639 132 1639 153 q 1645 115 1645 121 l 1645 104 q 1649 103 1647 104 q 1647 97 1648 97 q 1658 52 1658 57 l 1656 44 q 1667 27 1667 40 q 1678 -19 1678 -12 q 1685 -27 1678 -21 q 1721 -124 1687 -46 l 1719 -125 l 1709 -125 q 1707 -123 1707 -125 l 1707 -115 l 1706 -115 q 1698 -124 1698 -115 l 1693 -124 q 1688 -118 1688 -122 q 1661 -128 1667 -128 l 1637 -128 q 1591 -92 1608 -118 q 1527 -53 1580 -92 q 1481 -23 1509 -44 q 1466 -14 1469 -23 q 1449 -8 1458 -10 l 1449 -3 l 1443 -3 q 1447 -29 1447 -23 q 1446 -71 1447 -39 l 1450 -78 l 1450 -107 q 1453 -116 1453 -115 l 1453 -142 q 1457 -154 1457 -153 q 1456 -181 1456 -178 q 1460 -189 1458 -181 l 1460 -202 q 1449 -217 1458 -217 l 1444 -217 q 1426 -208 1438 -208 q 1271 -146 1301 -161 l 1264 -139 l 1264 -138 q 1299 -78 1267 -130 q 1317 -23 1310 -53 l 1317 12 q 1287 59 1309 39 q 1273 65 1277 65 q 1235 33 1239 48 q 1224 26 1228 33 q 1204 23 1210 23 l 1200 23 q 1147 50 1165 32 q 1129 59 1140 56 q 1072 0 1129 21 q 1051 -3 1068 0 q 1040 0 1043 0 l 1028 0 q 1022 6 1026 0 l 1017 3 q 980 23 983 16 q 981 24 981 23 q 1039 7 988 24 l 1059 7 q 1108 35 1090 13 q 1121 65 1121 49 l 1121 72 l 1119 72 q 1080 84 1080 72 q 1066 112 1066 98 q 1067 113 1067 112 q 1093 83 1079 104 q 1122 80 1116 82 l 1122 82 q 1119 98 1119 94 q 1120 103 1120 98 q 1106 115 1113 103 l 1107 117 l 1121 117 q 1123 115 1123 116 l 1123 110 l 1128 110 l 1128 115 q 1134 118 1128 116 q 1132 123 1132 121 q 1134 132 1134 129 q 1121 134 1127 134 q 1117 119 1120 119 q 1109 123 1110 122 l 1102 119 q 1070 132 1081 132 l 1070 130 q 1073 117 1071 129 l 1071 115 q 1062 130 1062 115 l 1062 134 q 1064 137 1062 137 l 1089 137 l 1089 143 l 1076 143 q 1049 139 1064 143 l 1033 139 l 1028 139 q 1018 136 1020 136 l 1002 136 q 978 132 992 132 l 974 132 l 977 127 q 953 115 967 124 q 927 106 950 109 l 924 106 q 920 120 921 113 q 927 126 922 126 q 931 114 927 120 q 948 127 937 114 l 959 127 l 959 128 l 956 132 q 971 143 964 135 q 1003 152 975 143 l 1004 152 l 1004 147 q 1013 152 1010 147 l 989 158 l 962 158 q 953 162 959 158 l 810 162 q 786 158 798 158 l 766 158 l 766 152 q 780 156 777 156 l 809 156 q 816 153 813 153 l 829 153 q 887 119 857 144 q 897 114 889 119 q 902 123 897 120 l 910 123 q 905 105 905 109 q 914 97 906 101 q 935 103 931 103 q 950 87 935 102 q 986 107 983 107 l 998 107 q 999 106 999 107 l 1005 110 l 1007 110 q 1015 107 1011 107 l 1020 110 q 1045 85 1045 99 q 1046 74 1046 78 q 1011 50 1030 50 l 1002 50 q 953 69 975 54 q 918 4 933 69 q 916 0 918 0 l 912 0 q 907 23 910 0 q 877 69 893 61 q 827 50 867 63 l 822 52 l 820 52 q 814 50 816 50 q 784 73 784 63 q 781 84 781 80 q 786 93 785 93 l 794 93 l 794 91 l 792 88 l 792 71 q 800 67 792 70 q 819 61 804 61 l 830 61 q 870 76 832 61 q 826 99 870 84 l 825 99 q 791 100 820 99 l 791 102 q 810 110 808 110 l 829 110 q 851 100 848 110 q 877 87 862 100 l 879 87 l 891 103 l 900 103 l 900 106 l 884 106 q 833 134 876 121 q 825 136 829 136 l 809 136 q 802 139 806 136 l 796 139 q 766 132 768 139 q 758 94 763 94 q 728 73 745 78 l 715 69 l 706 72 l 706 65 q 720 36 706 44 q 753 11 734 16 q 769 7 767 7 l 788 7 q 847 27 800 7 l 847 25 q 799 0 847 12 q 775 -3 785 0 q 766 0 769 0 l 756 0 q 695 69 695 23 q 701 70 697 70 l 701 75 q 689 78 692 78 q 665 69 665 74 q 609 26 665 52 q 600 27 602 27 q 591 23 594 23 l 585 23 q 546 48 567 26 q 520 65 532 63 q 480 19 495 56 l 478 12 l 478 -23 q 506 -98 493 -83 q 531 -139 531 -132 q 448 -176 520 -153 q 355 -211 400 -198 q 351 -217 355 -215 l 346 -217 q 335 -196 335 -217 q 334 -185 335 -195 q 338 -176 338 -179 l 338 -149 q 341 -142 338 -145 l 341 -113 q 345 -105 341 -110 l 345 -90 q 344 -74 345 -86 q 348 -66 347 -74 l 348 -23 q 351 -14 348 -23 l 351 0 l 350 0 q 339 -6 339 -6 q 338 0 338 -4 q 329 -2 332 -2 q 332 -12 332 -10 q 301 -25 305 -25 l 277 -25 l 277 -25 q 299 -8 277 -21 l 301 -8 l 305 -10 q 355 23 316 3 q 362 33 362 25 q 368 50 362 40 q 348 40 356 50 l 338 40 q 318 27 328 27 l 312 29 l 312 24 l 311 22 l 288 27 q 276 23 280 23 l 241 23 q 238 20 241 20 q 233 23 233 22 l 223 19 q 212 21 215 21 q 200 17 202 17 q 190 19 196 17 l 160 16 l 159 18 l 159 25 q 166 30 159 27 q 163 41 163 37 q 183 45 166 44 q 188 47 183 46 l 208 47 q 210 44 208 46 q 215 46 212 46 q 223 44 217 46 l 223 48 q 212 52 223 50 q 206 50 208 50 l 200 52 l 170 50 l 169 52 l 169 59 q 171 61 169 61 l 183 61 l 183 63 l 172 63 l 170 63 q 179 94 179 92 l 179 104 q 183 115 179 106 l 182 124 q 189 168 187 124 q 196 169 190 169 q 193 176 193 172 l 193 194 q 204 197 193 196 q 206 199 204 199 q 215 196 215 196 q 226 210 226 196 l 232 206 q 249 212 234 206 q 257 210 254 210 q 270 212 269 212 q 276 210 273 210 q 292 212 282 210 l 292 215 l 281 215 l 270 219 l 258 219 q 223 212 250 215 l 217 212 q 210 205 217 205 q 197 202 199 202 l 196 204 l 196 309 l 199 314 q 196 316 196 314 l 196 349 q 193 352 193 349 q 195 357 193 357 q 193 364 193 360 l 193 366 l 199 374 q 191 375 191 374 l 195 390 q 189 403 189 400 l 189 423 q 191 427 191 425 q 186 444 191 427 q 199 453 193 444 l 198 453 q 186 448 196 453 l 186 448 q 188 457 188 455 q 183 468 183 465 l 183 481 q 179 490 183 484 q 183 496 181 493 q 175 526 175 508 q 169 543 174 526 q 171 550 171 548 l 166 562 l 168 563 l 179 563 l 179 568 l 178 568 q 170 565 173 565 l 168 565 q 163 576 165 565 q 168 578 166 578 q 160 582 168 579 q 159 592 160 583 l 161 593 l 176 593 l 176 595 q 154 606 154 596 q 149 628 150 617 l 151 630 l 161 630 q 166 623 166 626 l 176 623 q 188 606 183 617 q 215 584 206 600 l 215 583 q 212 581 215 581 l 212 580 q 236 571 228 580 q 267 546 249 567 q 293 535 274 546 q 317 518 303 535 q 387 487 339 511 l 389 487 q 414 506 404 487 q 332 545 393 512 q 316 562 319 554 q 308 559 310 559 q 270 585 289 569 l 270 586 l 276 587 q 274 599 274 590 q 316 576 288 594 q 323 579 320 579 q 349 556 328 565 q 375 539 369 549 q 404 531 381 539 l 407 531 l 407 532 q 400 565 401 549 q 381 602 387 593 q 384 612 383 612 q 372 648 372 635 l 373 649 l 377 649 q 386 623 379 649 q 448 457 419 530 q 442 457 446 457 q 468 394 465 423 q 475 383 473 394 q 499 377 493 377 q 674 440 609 421 l 674 441 q 596 474 653 457 l 587 476 l 583 465 q 552 477 555 476 q 555 490 555 485 q 522 504 527 501 q 529 520 529 516 q 517 528 518 524 q 537 573 522 557 q 535 578 537 578 q 537 589 536 587 l 535 589 q 522 586 526 586 q 504 601 504 592 l 504 606 l 499 606 q 497 608 497 606 l 497 621 q 520 642 497 642 l 522 642 l 513 665 l 513 672 q 524 693 514 680 q 542 695 539 695 q 567 670 556 695 l 567 660 l 568 660 q 584 669 581 669 q 613 639 613 663 l 613 636 q 597 612 613 624 q 587 610 588 610 q 565 617 570 610 q 556 621 563 621 q 544 590 544 596 q 557 587 555 587 q 559 593 559 590 l 559 612 l 560 612 q 587 593 577 593 q 598 596 594 596 l 606 596 q 632 582 625 590 q 626 559 632 579 q 636 550 636 558 l 634 550 q 626 552 634 552 l 617 552 q 609 559 613 552 l 597 559 q 545 582 566 580 q 535 557 539 574 l 535 557 l 543 563 l 544 561 l 544 554 l 550 554 q 555 559 550 554 q 557 557 557 559 l 557 554 q 552 552 557 553 q 554 546 554 548 l 565 546 q 567 541 567 546 q 580 552 569 541 l 581 552 q 578 537 578 541 l 579 537 q 588 545 584 537 l 590 545 l 590 531 l 591 531 q 602 539 595 539 l 602 539 q 600 526 602 536 l 611 535 l 613 535 l 613 524 l 622 530 l 623 528 l 623 517 q 633 522 631 522 l 633 514 q 646 522 638 514 l 647 521 l 647 507 l 655 515 l 656 515 l 656 504 l 661 504 q 669 513 666 512 q 670 512 670 513 q 668 498 668 500 q 680 506 677 506 l 680 494 l 680 494 l 686 497 q 689 489 689 492 l 691 489 q 702 493 696 493 l 702 492 q 700 484 700 485 q 712 492 706 485 l 712 492 l 712 481 q 724 487 715 481 l 725 485 q 723 474 723 477 l 727 474 q 734 485 729 474 l 736 485 q 733 467 733 471 l 737 467 q 744 476 742 476 l 746 476 l 746 463 q 758 472 756 472 l 758 472 l 756 461 q 768 466 763 463 l 769 466 l 769 455 q 767 453 769 453 l 747 455 l 758 446 q 771 451 759 446 l 773 448 l 773 444 l 777 444 l 777 448 q 788 451 777 451 l 784 457 l 790 461 q 791 459 790 459 q 788 450 791 457 q 792 448 790 450 q 801 451 800 451 q 802 441 802 451 q 812 446 810 446 l 812 435 q 809 433 812 433 l 809 432 l 811 432 q 819 441 813 432 q 827 444 824 444 l 828 444 l 826 432 l 827 432 l 834 437 l 835 437 l 835 431 q 859 439 841 436 q 876 446 859 446 q 885 455 885 453 l 883 455 q 877 454 880 454 l 853 465 q 845 476 845 474 q 838 474 841 474 l 829 474 q 670 532 729 516 q 656 541 668 532 q 640 550 647 541 l 640 550 l 650 550 q 749 513 695 531 q 760 517 757 517 l 773 517 q 779 520 776 520 l 790 520 q 798 524 793 520 l 813 524 q 834 533 834 527 q 814 548 826 533 l 811 572 q 812 573 812 572 q 823 560 823 573 q 846 543 823 552 l 859 543 q 866 541 862 541 l 875 541 q 884 537 879 541 l 896 537 q 916 533 904 534 q 922 531 916 531 l 931 531 q 942 526 942 526 l 952 526 q 973 522 961 524 q 977 520 973 522 l 982 521 l 990 521 q 999 517 995 517 l 1009 517 q 1029 513 1017 514 q 1033 510 1029 512 l 1046 510 q 1055 522 1048 519 l 1057 522 l 1057 517 l 1083 526 l 1084 526 q 1089 517 1084 520 l 1089 516 l 1079 516 q 1000 484 1013 495 l 1005 483 q 1005 484 1005 484 l 1009 478 l 1009 476 q 996 474 1003 474 q 993 483 993 482 l 977 483 q 984 477 977 480 l 986 474 l 986 474 l 966 474 q 938 463 942 463 l 937 463 q 927 466 933 463 q 879 441 927 455 q 790 406 856 431 q 779 400 784 400 q 775 403 779 402 q 758 394 775 396 q 712 377 728 381 q 723 344 721 355 q 732 340 732 343 q 731 333 731 339 q 747 341 741 333 l 752 341 l 752 345 l 753 350 l 755 350 q 757 345 755 345 q 786 360 773 345 l 788 360 l 788 355 q 808 362 799 361 l 804 370 l 806 372 l 810 372 q 812 364 812 372 q 842 375 829 368 l 842 377 q 838 379 838 377 l 838 385 q 840 387 838 387 q 845 379 845 383 l 864 385 l 864 387 q 860 388 860 387 l 860 394 l 851 394 q 855 385 855 386 l 853 385 q 847 387 849 385 l 847 389 q 853 400 853 398 l 855 400 q 868 387 868 390 q 883 398 880 387 q 881 407 881 404 q 891 394 887 405 q 918 407 918 403 l 914 412 l 914 420 l 915 420 q 924 413 924 415 q 922 408 922 410 q 933 412 931 412 l 933 413 q 927 415 927 413 l 927 422 q 929 424 927 424 q 935 413 932 421 q 944 416 941 416 l 944 417 q 937 419 937 417 l 937 430 l 937 430 l 948 418 l 952 418 l 948 433 l 949 433 q 957 421 957 429 l 959 421 q 962 423 961 423 l 959 427 l 959 436 q 953 446 959 440 q 961 451 958 451 q 970 431 961 439 l 970 446 q 980 451 970 448 q 987 448 986 448 q 996 453 994 453 q 1002 448 1001 448 l 1003 448 l 1003 459 q 1005 461 1003 461 q 1009 451 1009 457 l 1017 451 q 1013 463 1017 453 l 1015 463 q 1026 455 1016 463 q 1028 465 1026 462 q 1035 461 1034 461 l 1040 463 l 1049 463 l 1049 476 l 1051 476 q 1057 470 1057 474 l 1053 463 l 1060 463 l 1065 463 q 1074 465 1068 463 l 1074 466 q 1059 483 1059 466 l 1060 483 q 1072 474 1068 474 l 1072 476 q 1066 486 1070 481 q 1081 492 1076 492 q 1091 490 1090 490 l 1091 496 l 1093 496 l 1104 487 q 1102 503 1102 497 l 1115 494 l 1115 504 l 1115 506 l 1117 506 l 1127 498 l 1127 499 q 1124 513 1127 501 l 1126 513 q 1132 504 1132 511 l 1138 504 l 1138 513 q 1132 515 1132 513 q 1142 520 1136 520 l 1143 518 l 1143 510 q 1147 508 1144 510 l 1148 508 l 1148 518 q 1150 520 1148 520 q 1161 514 1151 516 l 1161 515 q 1159 526 1159 522 q 1171 517 1160 526 l 1171 529 l 1173 529 q 1180 521 1174 529 q 1182 533 1180 522 l 1165 533 q 1169 539 1165 538 l 1178 539 q 1182 537 1182 537 q 1189 539 1186 539 l 1197 539 q 1203 532 1203 535 l 1204 532 l 1204 543 l 1206 543 q 1216 537 1211 537 l 1217 537 q 1215 548 1215 544 l 1227 541 q 1228 552 1227 545 l 1229 552 l 1236 548 l 1237 548 l 1237 548 q 1238 559 1238 557 l 1239 559 l 1251 550 l 1254 554 q 1249 565 1249 558 l 1258 558 l 1258 559 l 1254 572 l 1256 572 q 1278 526 1268 572 q 1266 519 1266 520 q 1273 504 1266 518 l 1239 489 q 1242 477 1242 480 q 1212 465 1242 476 q 1208 476 1210 469 q 1173 465 1173 470 q 1149 457 1173 462 l 1149 451 q 1155 448 1155 451 l 1152 444 l 1152 444 q 1165 446 1162 446 q 1212 430 1186 439 l 1209 424 l 1226 424 q 1296 398 1275 409 q 1331 388 1302 398 q 1351 396 1351 394 q 1357 406 1351 399 q 1380 470 1368 448 l 1393 470 l 1393 476 l 1385 476 l 1383 477 q 1403 539 1383 484 q 1422 545 1422 543 l 1422 548 l 1422 548 l 1407 545 l 1407 548 q 1441 621 1431 621 l 1441 623 q 1436 626 1436 624 q 1492 777 1450 674 l 1496 781 m 849 779 l 853 779 q 855 777 855 778 q 847 741 851 741 q 849 732 849 735 l 849 729 q 842 725 849 728 l 846 715 q 841 687 841 705 q 834 652 836 680 q 832 647 832 652 l 832 636 q 828 626 828 630 l 828 623 l 829 619 q 825 611 826 619 l 825 602 q 819 579 823 579 l 816 579 l 814 580 q 821 617 817 610 q 824 634 821 626 l 824 647 q 829 669 828 655 q 831 674 831 669 l 831 686 q 836 697 836 693 q 834 706 834 703 l 838 712 q 836 722 836 718 q 841 725 836 725 l 841 736 q 845 744 842 744 l 844 754 l 844 756 q 849 779 847 779 m 793 725 l 794 725 q 788 693 788 701 l 788 693 q 769 718 769 709 l 775 718 q 793 725 788 718 m 392 721 q 405 716 405 719 l 405 712 q 389 708 405 711 q 388 708 389 708 q 392 721 392 720 m 1300 718 q 1305 697 1302 718 q 1321 641 1321 658 l 1321 639 l 1295 626 l 1281 626 q 1268 621 1271 626 l 1268 619 q 1280 615 1280 616 q 1254 599 1266 602 q 1234 673 1234 664 q 1300 718 1254 691 m 1004 715 q 1011 708 1011 712 q 1005 699 1010 708 l 1005 699 l 1011 699 q 1020 687 1013 699 q 1040 678 1025 680 l 1040 677 q 1039 675 1040 675 l 1028 675 q 1018 678 1027 675 l 1007 678 q 998 682 1001 682 l 988 682 l 978 685 l 965 685 q 961 692 961 685 q 973 689 964 692 q 1002 714 1002 697 q 1004 715 1004 714 m 1113 695 l 1117 695 q 1119 693 1119 695 q 1102 639 1119 688 q 1093 624 1102 629 q 1083 606 1093 606 l 1083 607 q 1109 682 1089 629 q 1113 695 1111 695 m 1271 674 l 1271 669 l 1277 670 q 1271 674 1276 672 m 156 669 l 166 666 q 174 669 171 669 l 181 669 q 200 652 189 669 q 188 650 197 651 l 188 648 q 206 642 190 648 l 206 647 q 208 649 206 649 q 226 630 226 637 l 234 630 q 236 628 236 629 q 234 626 236 626 l 215 626 q 185 649 185 637 l 166 654 q 143 648 158 648 l 134 648 q 132 650 132 648 l 132 664 q 156 669 132 666 m 1637 669 q 1639 667 1639 669 l 1639 656 q 1641 649 1639 653 q 1641 648 1641 649 q 1630 651 1634 651 l 1609 651 q 1608 648 1609 650 q 1600 650 1606 650 q 1602 641 1602 644 q 1585 628 1595 641 q 1568 626 1572 626 l 1553 626 l 1553 626 q 1610 669 1598 668 l 1637 669 m 126 666 l 128 664 l 128 650 q 118 644 128 649 q 147 556 126 628 q 154 524 147 547 q 141 520 151 522 q 134 534 137 524 q 137 543 137 541 q 128 556 128 545 q 107 628 128 566 q 108 630 108 628 l 120 626 l 120 632 l 104 632 l 104 632 q 106 642 106 639 q 90 661 95 642 q 93 662 92 662 q 126 666 109 662 m 1649 666 q 1682 660 1682 663 l 1682 650 q 1674 647 1682 648 q 1665 650 1666 650 q 1658 648 1664 650 q 1645 651 1646 651 l 1645 653 q 1649 666 1645 658 m 1685 662 l 1696 662 l 1698 661 q 1688 645 1698 653 q 1684 661 1686 649 l 1685 662 m 1671 658 q 1676 653 1671 657 l 1677 653 l 1677 658 l 1671 658 m 531 651 q 539 647 531 647 l 539 651 l 531 651 m 1582 639 q 1591 648 1591 640 q 1582 639 1582 648 m 1680 645 l 1682 645 q 1687 640 1686 644 q 1685 638 1687 638 l 1682 638 q 1680 640 1680 638 l 1680 645 m 1669 643 q 1678 637 1678 640 q 1671 630 1677 637 l 1674 623 q 1673 621 1674 622 l 1674 611 q 1652 535 1663 567 q 1654 529 1654 534 l 1652 529 l 1652 526 q 1643 498 1652 498 q 1639 495 1639 497 l 1639 482 q 1641 476 1641 478 l 1639 470 q 1641 470 1641 470 l 1641 455 q 1639 448 1641 451 l 1639 426 q 1635 417 1639 421 q 1636 402 1636 407 l 1636 387 q 1632 377 1636 383 l 1632 337 q 1628 314 1628 318 q 1629 248 1629 274 l 1629 230 q 1614 225 1629 227 q 1611 233 1611 230 l 1611 243 q 1613 245 1612 245 l 1624 245 l 1621 251 q 1612 248 1614 248 l 1611 250 l 1611 280 l 1612 282 l 1621 279 l 1621 280 q 1618 295 1618 292 l 1611 295 l 1611 296 q 1615 321 1614 307 l 1616 321 q 1621 319 1619 319 l 1621 327 l 1616 327 q 1614 329 1614 327 l 1614 359 q 1618 385 1614 368 l 1618 404 q 1617 420 1618 410 q 1625 470 1620 420 q 1626 470 1625 470 l 1634 470 l 1634 474 l 1627 474 q 1625 476 1625 474 q 1628 483 1628 476 l 1628 492 q 1627 496 1628 495 q 1632 516 1632 503 q 1638 526 1633 516 q 1636 534 1636 531 q 1641 563 1641 543 q 1669 643 1646 571 m 1615 630 l 1631 630 q 1632 626 1631 628 q 1638 628 1635 628 q 1639 623 1638 624 l 1637 621 l 1623 621 q 1615 628 1618 621 l 1615 630 m 247 623 q 263 602 263 609 l 263 598 q 256 592 261 594 q 223 619 243 598 l 223 619 l 238 619 q 247 623 240 619 m 1541 621 l 1553 619 l 1565 619 l 1565 617 q 1527 588 1561 612 q 1514 584 1527 585 q 1487 567 1500 567 q 1490 586 1488 569 q 1541 621 1540 619 m 180 602 l 180 597 l 186 597 l 186 598 q 180 602 184 598 m 1085 599 l 1085 598 l 1064 535 q 1061 529 1064 529 l 1058 529 q 1056 532 1056 529 q 1070 575 1056 539 q 1085 599 1074 599 m 1186 596 l 1198 596 q 1222 580 1222 590 l 1220 579 q 1195 589 1216 579 l 1187 589 q 1165 579 1167 579 l 1163 579 l 1162 581 l 1162 584 q 1186 596 1171 592 m 1254 592 l 1256 592 q 1258 579 1258 581 q 1253 580 1258 579 l 1243 579 q 1237 582 1239 582 q 1227 576 1232 576 l 1225 583 q 1254 592 1230 583 m 594 589 q 591 576 594 585 q 615 567 612 567 q 626 579 620 573 l 626 580 q 597 589 614 589 l 594 589 m 1167 576 q 1178 563 1176 576 q 1189 572 1188 572 l 1195 569 q 1203 575 1200 575 q 1219 570 1219 573 q 1193 562 1197 562 l 1193 560 l 1210 560 q 1212 558 1212 560 l 1212 557 q 1210 556 1212 556 l 1184 556 q 1182 552 1183 556 q 1167 556 1178 554 q 1098 524 1163 547 q 1087 522 1097 524 l 1087 524 q 1162 556 1094 533 q 1167 561 1167 560 l 1167 565 q 1165 575 1167 570 l 1167 576 m 184 568 l 184 563 l 196 563 l 196 565 q 184 568 195 565 m 181 550 l 181 543 l 182 543 l 196 546 q 197 541 197 545 l 204 541 q 206 545 206 541 l 200 543 q 190 552 200 548 q 181 550 185 550 m 1563 548 l 1563 541 q 1571 543 1567 543 q 1601 541 1575 543 l 1601 545 l 1591 548 q 1582 546 1582 548 q 1563 548 1572 548 m 1532 543 l 1532 541 l 1537 541 q 1539 545 1539 541 q 1532 543 1534 543 m 1546 537 q 1557 545 1551 537 l 1555 545 q 1546 537 1546 545 m 1256 537 q 1264 537 1260 537 l 1264 541 l 1262 541 q 1256 537 1256 539 m 1149 541 l 1157 541 q 1159 539 1159 540 l 1159 535 l 1158 533 q 1149 539 1151 533 l 1149 541 m 1188 535 l 1188 526 l 1195 526 l 1195 528 q 1188 535 1195 533 m 537 520 q 544 518 544 520 l 544 507 l 545 507 q 548 513 548 512 l 550 513 l 554 509 q 555 519 555 517 l 555 520 q 544 524 545 524 l 544 526 l 552 526 q 555 524 554 526 q 571 524 563 524 l 571 526 q 557 532 569 526 q 539 526 539 529 q 537 520 539 524 m 1232 528 l 1232 526 q 1243 524 1233 526 l 1242 530 l 1242 531 l 1243 531 l 1243 532 l 1243 532 q 1232 528 1239 529 m 395 526 l 395 520 l 404 520 q 395 526 402 526 m 408 526 l 408 520 l 414 520 l 414 526 l 408 526 m 1214 522 l 1214 521 l 1217 521 q 1226 526 1226 522 l 1221 526 q 1214 522 1216 522 m 1110 470 l 1098 470 q 1085 474 1086 474 q 1077 466 1085 473 q 1087 465 1078 466 q 1096 466 1093 466 q 1060 450 1090 457 q 1059 440 1060 440 q 1047 443 1053 443 q 1007 430 1042 443 q 999 423 1004 430 q 883 381 962 414 q 836 363 864 376 q 820 361 829 361 l 816 361 q 792 347 807 347 q 786 340 792 340 q 763 331 767 340 q 771 323 771 331 q 773 319 771 319 q 810 333 783 322 q 826 342 820 333 q 952 388 883 357 q 992 407 973 396 l 993 407 q 1001 404 996 407 q 1005 414 1005 409 l 1015 413 q 1044 418 1026 418 l 1044 419 l 1040 420 l 1040 427 q 1046 425 1043 427 q 1053 431 1046 427 l 1059 428 l 1059 434 l 1061 434 l 1066 431 l 1066 437 q 1074 435 1073 435 q 1085 446 1074 436 l 1098 444 q 1100 451 1098 449 l 1106 448 l 1106 454 l 1107 454 l 1112 451 q 1122 461 1112 461 q 1123 455 1123 459 l 1124 455 q 1126 461 1124 458 l 1132 457 l 1132 463 l 1134 463 l 1137 461 l 1138 461 q 1139 467 1138 466 l 1145 465 q 1146 467 1146 466 l 1164 467 q 1176 470 1167 467 l 1176 470 q 1171 482 1171 476 l 1173 482 q 1178 477 1174 482 l 1178 483 q 1184 480 1181 483 q 1193 490 1184 488 l 1197 487 l 1197 493 q 1204 492 1201 492 l 1204 496 l 1205 496 q 1210 491 1206 496 q 1211 499 1211 498 l 1212 499 q 1217 494 1213 499 q 1219 503 1217 503 q 1224 497 1223 497 l 1224 503 q 1231 502 1228 502 l 1231 506 q 1238 505 1235 505 q 1239 510 1238 508 l 1243 507 l 1243 513 l 1245 513 q 1249 508 1245 513 q 1253 517 1251 517 q 1258 514 1253 514 l 1258 522 l 1245 522 q 1125 476 1212 505 q 1110 470 1125 474 m 137 517 l 154 517 q 160 489 158 517 l 160 476 q 163 470 163 473 l 161 463 q 167 434 167 452 l 167 425 q 165 423 167 423 l 160 423 l 160 422 q 163 405 163 410 q 162 399 162 400 q 169 406 163 399 l 170 406 l 170 383 q 174 381 174 383 q 170 375 170 375 q 174 364 174 368 l 174 326 q 177 316 174 322 q 171 314 171 314 q 177 299 171 313 l 177 274 q 171 262 177 270 q 177 260 177 262 l 177 232 q 174 214 177 227 l 174 188 q 170 176 174 187 l 170 173 q 171 158 170 168 q 167 150 168 158 l 167 141 q 161 111 164 134 q 156 86 156 102 q 137 21 150 71 q 132 -3 134 18 q 123 -23 124 -23 l 109 -23 q 107 -21 107 -23 q 124 35 113 -2 q 135 46 126 35 q 126 47 127 46 q 139 98 139 85 q 143 105 139 101 l 143 114 q 147 123 143 118 l 147 132 l 149 141 l 149 154 l 153 165 l 153 175 q 158 193 155 193 l 166 193 l 166 205 q 158 200 162 205 l 156 200 l 156 217 q 159 223 159 220 l 159 316 q 160 318 159 318 q 156 325 156 323 l 159 331 q 156 333 156 331 l 156 375 q 153 385 156 377 l 153 414 q 149 423 149 419 l 149 443 q 147 450 149 446 l 147 468 q 143 492 143 476 q 139 499 141 493 l 139 512 l 137 515 l 137 517 m 560 516 l 557 504 l 558 504 l 563 507 q 573 497 565 497 q 576 502 574 502 l 577 502 q 578 494 578 497 l 579 494 q 583 499 579 497 l 584 499 l 584 493 q 586 491 584 491 q 590 496 586 494 l 591 496 q 592 491 591 491 q 597 493 595 493 q 604 484 600 493 l 610 487 q 611 480 611 486 l 611 480 q 615 485 611 483 q 617 477 617 485 l 619 477 l 621 483 l 623 483 l 623 480 l 624 476 l 630 479 l 630 479 l 630 474 l 632 474 l 634 476 l 636 476 l 636 472 l 643 474 l 643 467 l 649 470 q 650 465 650 469 l 678 467 l 678 474 q 560 516 613 493 m 597 516 l 597 510 l 610 510 q 597 516 610 512 m 1351 510 q 1357 486 1357 492 q 1344 476 1353 476 l 1334 476 q 1327 493 1331 479 q 1351 510 1327 499 m 200 506 l 200 500 l 204 501 q 200 506 204 502 m 214 506 q 223 500 214 501 l 232 500 q 227 506 229 506 l 214 506 m 1160 502 q 1164 497 1162 497 q 1176 506 1170 497 l 1176 506 q 1160 502 1160 503 m 1513 503 l 1513 497 l 1517 497 q 1526 506 1524 497 l 1524 506 q 1513 503 1515 503 m 1541 506 q 1539 503 1541 503 q 1531 505 1533 505 l 1529 500 q 1546 497 1531 500 q 1565 500 1555 499 q 1568 497 1565 499 q 1578 500 1568 500 q 1572 506 1574 506 l 1572 506 q 1565 503 1568 503 l 1559 503 q 1555 506 1557 506 l 1549 503 l 1548 505 q 1549 506 1549 505 l 1541 506 m 619 505 l 619 504 q 630 500 628 500 l 632 500 q 622 505 632 503 l 619 505 m 803 503 q 815 497 807 497 l 820 497 q 835 499 834 499 q 851 497 839 499 l 851 503 l 803 503 m 1004 503 l 1004 498 l 1005 498 q 1011 502 1009 502 l 1011 503 l 1004 503 m 635 499 l 635 498 q 642 494 637 498 l 646 494 q 637 499 642 499 l 635 499 m 1344 499 l 1344 495 q 1348 499 1346 495 l 1344 499 m 1137 491 l 1137 490 q 1150 496 1150 493 l 1149 496 q 1137 491 1142 496 m 653 493 l 653 492 q 662 490 657 492 l 663 490 l 663 491 q 659 493 661 491 l 653 493 m 412 476 q 435 467 415 476 q 431 486 431 484 q 412 476 412 484 m 702 474 l 699 470 q 702 465 701 465 q 717 466 716 466 q 704 474 717 474 l 702 474 m 1035 474 l 1037 474 q 1043 467 1043 470 l 1043 466 l 1037 466 q 1035 468 1035 466 l 1035 474 m 1524 472 q 1521 470 1524 470 l 1521 468 l 1533 468 l 1533 470 q 1524 472 1527 472 m 773 470 l 781 470 q 777 453 777 457 l 773 453 l 771 454 l 777 463 q 769 467 769 465 l 773 470 m 803 470 l 807 470 l 807 470 q 802 465 807 468 l 801 465 l 801 468 q 803 470 801 470 m 670 463 l 670 455 l 671 455 q 676 459 675 459 l 677 459 l 677 455 l 678 455 l 680 457 l 682 457 l 682 444 l 704 444 l 708 446 l 710 446 l 710 442 q 724 448 716 448 q 725 446 724 446 l 723 435 l 724 435 l 727 437 l 729 437 l 729 431 l 735 434 q 737 428 736 428 l 741 430 l 743 429 q 749 431 747 431 q 756 421 752 421 l 762 424 q 763 418 763 423 q 769 420 766 420 l 769 414 q 775 416 772 416 l 775 416 q 782 412 780 412 l 804 417 q 799 426 804 424 q 796 421 797 426 l 793 421 q 730 450 793 432 q 689 466 695 466 l 682 466 q 670 463 678 466 m 1314 466 l 1315 466 q 1327 463 1327 465 q 1323 454 1323 457 l 1336 451 l 1336 452 q 1333 459 1336 454 q 1334 461 1334 459 q 1346 457 1342 457 q 1323 424 1346 454 q 1317 414 1319 415 l 1316 414 q 1311 418 1311 417 l 1314 422 l 1314 446 q 1317 453 1314 449 q 1314 466 1314 465 m 217 451 q 206 454 215 451 q 204 448 206 451 q 223 444 212 446 q 232 448 229 448 l 241 448 l 240 453 l 241 457 q 217 451 219 453 m 1028 448 l 1029 448 q 1044 455 1042 455 l 1044 455 l 1042 455 q 1028 448 1035 455 m 1433 446 l 1394 446 l 1394 441 l 1431 441 q 1439 438 1435 441 q 1458 443 1458 441 q 1443 450 1456 443 q 1433 446 1438 446 m 924 450 l 925 450 q 933 442 933 443 l 933 441 l 927 440 l 926 440 q 924 442 924 440 l 924 450 m 1321 446 q 1318 429 1318 432 q 1330 444 1321 429 q 1321 446 1328 444 m 977 443 l 977 442 q 983 431 979 431 l 989 430 l 991 430 l 991 431 q 981 441 981 432 q 977 443 980 441 m 969 430 q 965 424 969 428 l 970 424 q 978 429 976 429 l 978 430 l 969 430 m 1117 427 l 1113 422 l 1127 422 l 1127 423 q 1117 427 1118 427 m 1133 422 l 1133 421 l 1158 421 l 1158 427 q 1149 424 1151 424 q 1139 427 1141 427 q 1133 422 1135 425 m 1070 423 l 1070 419 q 1074 423 1071 419 l 1070 423 m 904 413 l 906 413 q 911 404 911 411 l 909 403 l 906 403 q 904 405 904 403 l 904 413 m 895 411 q 901 401 901 407 l 899 400 l 895 400 q 893 402 893 400 l 893 409 q 895 411 893 411 m 640 398 l 645 398 l 645 403 q 640 398 644 403 m 653 403 l 650 398 l 661 398 q 653 403 661 400 m 739 403 l 739 402 q 755 398 739 400 l 755 403 l 739 403 m 1271 398 l 1271 392 l 1273 392 q 1280 398 1278 392 l 1271 398 m 1288 398 l 1288 392 q 1293 398 1292 394 l 1288 398 m 967 377 q 983 364 967 367 q 990 374 984 374 l 990 370 q 984 364 987 364 l 984 364 q 1009 348 1009 356 l 1018 348 q 1066 332 1028 348 l 1066 333 q 1074 350 1068 350 q 1093 355 1077 350 q 1113 350 1097 352 q 1121 346 1113 347 q 1119 352 1119 349 q 1137 351 1133 351 q 1147 355 1138 351 q 1176 345 1167 355 q 1217 329 1187 340 l 1220 325 l 1220 324 l 1219 324 q 1211 326 1213 326 q 1258 305 1214 320 q 1264 299 1264 301 l 1264 294 q 1256 262 1256 266 l 1260 262 q 1269 294 1260 265 q 1270 303 1270 297 q 1260 309 1261 309 l 1260 311 l 1260 311 q 1278 301 1273 311 q 1266 262 1273 282 l 1266 262 q 1275 261 1272 261 l 1275 259 q 1260 249 1260 257 q 1247 221 1260 242 l 1252 212 q 1242 198 1242 209 l 1242 193 l 1243 193 q 1264 202 1261 193 l 1264 202 q 1269 200 1269 202 q 1277 206 1270 200 q 1275 214 1275 209 q 1287 217 1275 216 q 1297 234 1290 229 l 1300 241 l 1298 254 l 1286 254 q 1284 256 1284 254 l 1284 257 q 1286 259 1285 259 l 1300 259 q 1297 266 1297 263 l 1297 278 l 1299 278 q 1312 262 1308 274 q 1321 259 1313 262 q 1329 262 1325 262 l 1340 262 q 1320 279 1338 267 l 1317 285 l 1304 281 q 1294 297 1300 297 q 1297 310 1296 308 q 1287 311 1287 310 l 1288 316 l 1288 318 q 1262 328 1287 320 q 1234 338 1257 333 l 1234 344 l 1205 344 l 1205 348 l 1198 344 q 1197 347 1197 346 l 1176 347 l 1175 348 l 1176 353 q 1176 354 1176 353 q 1180 357 1180 356 q 1169 364 1169 357 l 1171 364 l 1182 361 q 1190 364 1182 363 l 1200 364 q 1197 370 1197 369 q 1182 366 1194 366 l 1182 366 q 1173 370 1176 370 l 1130 370 l 1126 368 l 1125 368 l 1125 374 q 1113 366 1121 374 q 1093 364 1110 366 l 1093 359 q 1091 357 1093 357 q 1074 359 1079 357 q 1081 377 1081 371 q 1028 396 1031 396 q 968 377 1020 396 l 967 377 m 600 354 q 613 347 600 347 l 613 346 q 611 344 613 344 l 584 344 l 584 339 q 582 337 584 337 l 578 337 q 576 344 576 337 q 529 324 545 337 q 504 320 506 321 l 508 311 l 506 310 l 497 310 q 494 305 497 308 q 496 299 496 301 l 496 297 l 491 292 l 491 290 l 494 286 l 492 285 l 478 285 q 455 261 455 263 l 457 261 q 467 262 459 261 l 468 260 q 465 249 465 252 l 474 249 l 474 261 q 503 285 500 281 l 504 285 l 504 280 q 498 278 504 278 l 498 267 q 494 257 498 265 q 496 249 496 250 q 494 242 496 242 q 528 196 497 230 l 533 196 q 554 193 539 196 l 554 198 q 559 200 554 200 q 550 208 559 202 q 548 223 548 219 l 548 223 q 557 219 555 219 l 561 223 l 569 223 l 569 225 l 558 225 q 531 290 546 240 q 530 299 530 290 q 574 319 531 305 q 585 327 585 326 l 584 327 q 571 321 572 322 q 554 326 554 323 l 554 330 q 555 332 554 332 q 567 328 565 328 q 576 332 573 332 l 586 332 q 628 351 616 341 l 649 355 q 659 342 659 351 l 660 342 q 697 360 680 342 l 675 374 q 647 364 669 374 q 610 355 639 364 q 600 354 606 355 m 1249 374 l 1249 368 l 1254 368 l 1254 374 l 1249 374 m 1268 370 q 1275 361 1270 361 q 1293 364 1283 364 q 1281 374 1286 374 q 1268 370 1279 374 m 925 359 l 925 355 q 940 345 940 355 l 946 345 q 1005 325 956 345 l 1007 325 l 1005 318 q 1013 321 1011 321 q 1022 318 1015 321 q 1028 337 1022 322 l 1028 338 l 1026 338 q 998 344 1008 344 l 994 344 q 977 357 990 353 q 944 366 946 366 q 925 359 925 361 m 432 340 l 433 335 l 433 333 q 430 327 433 328 l 415 327 l 415 322 l 414 320 q 401 324 405 324 l 373 324 q 377 318 375 318 l 384 318 q 370 292 384 313 q 364 268 368 287 l 360 268 l 360 267 l 362 264 l 362 241 q 366 232 362 238 l 362 219 l 370 219 q 381 202 377 207 q 413 187 400 188 l 413 188 l 408 200 l 408 205 q 429 189 417 205 q 438 192 434 192 l 438 183 l 467 183 l 467 195 q 448 186 463 195 q 444 195 444 193 l 444 197 q 461 203 448 197 q 457 229 458 229 q 411 257 421 241 q 395 260 405 260 q 392 251 392 255 q 394 246 394 248 q 392 241 392 243 q 404 206 404 221 l 404 206 l 403 206 q 394 212 396 210 l 394 221 q 383 242 386 227 l 381 249 q 384 260 384 257 l 384 273 q 408 301 393 301 l 405 295 q 422 284 413 291 q 437 277 430 282 l 439 277 q 446 285 439 278 q 451 273 449 285 l 453 273 q 476 296 474 285 q 463 314 463 304 l 457 314 q 453 305 457 307 l 446 305 l 444 305 q 455 318 444 318 l 457 318 q 453 331 457 324 l 455 332 l 470 332 q 477 308 472 331 q 497 324 497 317 q 491 338 491 335 l 500 338 l 500 341 l 488 341 q 468 354 478 354 l 459 354 q 442 341 442 349 q 432 340 440 341 m 1285 328 l 1304 318 q 1313 335 1308 335 q 1332 322 1329 335 q 1334 311 1334 322 l 1334 307 l 1332 301 q 1344 293 1344 301 l 1344 283 q 1338 280 1344 282 q 1340 272 1340 274 q 1370 299 1361 272 l 1371 299 q 1377 296 1376 296 q 1384 299 1382 299 l 1384 292 q 1378 294 1381 292 l 1378 292 q 1380 286 1378 290 l 1387 288 q 1411 277 1409 280 l 1411 267 q 1401 261 1406 261 q 1397 264 1401 263 l 1397 248 q 1398 240 1397 244 q 1392 229 1392 231 l 1390 229 l 1390 238 q 1387 240 1390 239 q 1385 229 1387 229 q 1388 216 1385 226 q 1374 212 1381 212 l 1374 212 l 1388 248 l 1389 257 l 1388 257 q 1366 241 1384 257 q 1347 236 1358 236 q 1364 198 1361 200 q 1370 196 1367 198 l 1370 206 l 1371 208 q 1377 204 1375 207 l 1377 200 q 1365 183 1367 192 l 1389 183 q 1403 203 1403 202 q 1414 212 1412 212 q 1425 208 1425 210 q 1435 214 1433 214 l 1435 215 q 1414 217 1422 215 q 1420 242 1414 223 l 1420 250 q 1416 259 1420 254 l 1416 267 q 1412 278 1416 271 l 1414 279 l 1422 279 l 1422 281 l 1412 281 q 1410 283 1410 281 l 1410 294 q 1403 305 1403 299 q 1409 305 1404 305 q 1403 311 1407 311 l 1397 310 l 1396 312 l 1396 314 q 1398 316 1396 316 l 1422 316 l 1422 318 l 1414 318 l 1410 320 l 1400 318 l 1390 320 l 1370 320 q 1356 318 1367 320 l 1356 319 q 1359 327 1359 326 l 1353 327 l 1353 328 q 1356 341 1353 330 l 1344 341 q 1325 354 1335 354 l 1307 354 q 1288 339 1300 354 q 1285 328 1285 330 m 511 350 l 511 345 l 513 345 l 518 346 q 511 350 518 348 m 924 344 l 905 344 l 905 342 l 937 342 l 937 348 q 924 344 929 344 m 862 344 l 862 342 l 876 342 l 876 343 q 872 347 876 345 l 868 347 q 862 344 862 346 m 881 347 l 881 342 l 886 342 q 881 347 886 343 m 1126 347 l 1126 342 l 1135 342 l 1135 347 l 1126 347 m 1139 343 q 1126 301 1139 339 l 1127 301 q 1186 280 1140 301 q 1197 282 1187 280 q 1202 268 1199 278 l 1197 265 l 1186 265 q 1173 264 1181 265 q 1146 275 1149 275 l 1136 275 q 1135 277 1136 277 q 1123 275 1124 275 q 1122 276 1123 276 q 1125 284 1125 281 l 1125 286 q 1119 290 1125 287 q 1113 269 1119 287 l 1113 263 l 1115 263 q 1119 264 1116 264 q 1120 260 1119 263 q 1124 265 1124 262 l 1126 265 l 1126 259 l 1132 262 q 1136 253 1136 253 q 1148 258 1142 258 l 1149 258 q 1150 246 1150 253 l 1155 251 l 1156 251 q 1157 246 1156 246 q 1163 248 1160 248 l 1163 242 l 1164 242 q 1167 248 1164 243 l 1169 248 q 1171 236 1171 238 q 1186 238 1184 238 l 1186 233 q 1191 238 1187 233 l 1193 238 l 1193 232 l 1197 236 q 1199 230 1199 236 l 1209 230 l 1214 229 q 1231 244 1228 244 l 1231 246 l 1225 254 l 1225 256 q 1247 268 1233 256 l 1247 269 q 1239 279 1239 277 q 1241 292 1239 282 q 1208 308 1218 307 l 1207 316 l 1207 318 l 1202 316 q 1191 318 1201 316 l 1191 319 l 1199 327 l 1188 327 q 1186 322 1188 322 l 1186 322 q 1184 327 1186 326 q 1178 326 1184 327 q 1171 327 1178 326 q 1165 325 1167 325 q 1151 336 1165 336 l 1140 343 l 1139 343 m 619 324 l 613 327 l 613 321 q 607 322 609 322 q 606 318 607 319 q 600 319 602 319 q 591 314 594 314 q 587 318 591 316 q 576 305 582 305 q 566 297 566 304 q 554 290 560 293 q 557 281 557 283 q 548 265 548 274 q 563 255 554 265 q 561 249 563 252 q 580 230 562 249 q 596 229 590 229 q 598 236 596 236 q 602 233 602 235 l 604 234 l 610 233 q 615 245 611 245 q 619 243 619 244 l 621 244 l 626 243 l 626 248 l 628 248 q 632 243 632 246 l 632 243 q 634 249 632 249 q 639 247 634 247 q 641 252 639 252 q 644 247 644 249 l 645 247 q 647 252 645 249 l 652 249 l 652 255 q 659 254 656 254 q 664 262 661 262 l 669 259 q 671 265 669 265 l 672 265 q 676 260 672 262 l 676 265 l 678 265 l 680 263 l 682 263 l 682 264 q 676 290 682 267 l 670 290 l 670 280 l 674 276 l 674 275 l 669 274 l 665 274 q 656 278 662 274 q 622 265 624 265 l 609 265 l 597 264 q 593 269 597 265 q 598 279 596 279 l 610 279 l 610 284 q 632 290 611 285 q 669 301 657 301 l 669 303 q 656 334 664 321 l 656 340 l 655 340 q 619 324 642 339 m 1085 337 q 1070 328 1078 328 q 1093 316 1077 316 q 1122 309 1104 309 q 1125 324 1122 314 l 1085 337 m 1572 332 l 1578 332 l 1578 337 q 1572 332 1576 337 m 670 318 q 674 308 672 308 q 715 319 682 308 l 721 327 q 708 334 716 334 l 702 334 q 670 318 670 326 m 663 331 l 663 325 l 673 325 l 675 331 l 663 331 m 733 324 q 744 303 740 303 q 765 311 763 311 l 765 314 q 756 331 765 326 l 755 331 q 733 324 736 324 m 1030 319 l 1030 312 q 1044 305 1030 309 l 1049 308 q 1050 303 1050 307 q 1062 324 1055 303 l 1061 324 q 1039 330 1042 330 q 1030 319 1030 326 m 1487 324 q 1490 318 1490 320 l 1498 318 l 1498 324 l 1487 324 m 1519 324 l 1519 318 l 1537 318 q 1539 321 1537 321 q 1548 319 1545 319 l 1548 324 l 1519 324 m 346 320 l 346 318 q 359 316 356 316 q 366 319 364 319 l 366 320 l 346 320 m 864 314 l 864 309 q 870 314 866 309 l 864 314 m 1315 314 q 1311 305 1313 305 q 1331 286 1319 286 q 1327 297 1327 293 q 1330 301 1328 297 q 1323 303 1325 301 q 1327 314 1327 313 l 1315 314 m 535 311 q 524 303 535 310 q 544 240 524 287 q 548 225 548 228 l 545 225 q 517 295 535 242 q 531 310 517 310 q 535 311 531 311 m 1018 310 q 1059 260 1045 273 q 1018 310 1059 296 m 1066 301 q 1064 297 1066 299 l 1064 296 l 1072 296 q 1066 301 1072 297 m 1582 297 l 1582 292 q 1587 293 1584 293 q 1582 297 1587 294 m 1063 286 l 1066 253 l 1067 253 q 1077 255 1074 255 l 1082 255 q 1091 249 1087 255 l 1091 248 l 1067 245 l 1067 244 q 1076 236 1067 236 l 1076 233 q 1074 227 1074 230 q 1077 219 1075 219 q 1083 221 1080 221 l 1083 216 l 1087 219 l 1089 219 l 1089 212 l 1096 216 q 1096 210 1096 214 l 1098 210 l 1100 212 l 1102 212 l 1102 208 q 1106 200 1102 207 l 1107 200 l 1110 202 l 1112 202 l 1112 197 q 1123 198 1117 198 q 1125 190 1125 193 l 1132 191 q 1149 186 1145 186 l 1155 186 l 1160 190 q 1176 184 1175 186 q 1174 182 1176 182 l 1163 182 q 1156 185 1159 182 q 1152 176 1152 178 q 1159 178 1156 178 q 1156 169 1159 176 l 1162 169 l 1162 175 q 1178 158 1175 175 q 1191 160 1180 158 q 1195 147 1195 152 q 1201 150 1201 149 l 1201 153 q 1195 167 1201 157 l 1195 169 l 1200 169 q 1210 177 1204 174 q 1145 204 1203 183 q 1102 219 1125 213 q 1102 225 1102 220 l 1093 225 l 1091 225 q 1104 269 1091 231 q 1106 278 1104 274 l 1104 278 q 1091 277 1092 277 q 1070 290 1091 284 q 1063 286 1063 288 m 687 274 q 702 225 697 250 q 639 201 672 210 q 619 192 639 194 q 576 178 578 178 l 545 178 q 533 175 543 178 q 506 186 526 181 q 491 201 506 195 q 481 191 491 196 q 475 166 475 170 l 488 170 q 495 163 493 163 q 500 164 496 164 q 498 152 498 155 q 513 143 498 146 l 518 143 q 520 147 518 145 l 520 161 q 522 163 520 163 l 522 163 q 524 161 524 163 l 524 145 q 516 141 524 143 l 507 132 q 517 122 517 125 q 515 113 517 120 q 526 104 518 112 l 543 107 q 541 115 541 113 l 541 117 q 563 132 560 117 q 552 139 557 132 l 541 139 q 539 141 539 139 l 539 141 q 550 145 539 143 q 554 149 550 146 l 554 149 l 554 139 q 563 138 560 138 q 560 147 560 143 l 561 147 l 573 143 q 575 149 575 147 l 577 149 l 577 143 l 587 147 l 593 143 l 593 149 q 589 151 593 150 q 584 150 588 150 l 583 155 q 593 156 583 156 q 590 166 590 163 l 594 169 l 600 165 q 594 153 594 157 l 594 150 q 600 147 594 149 q 610 153 600 151 l 610 158 l 604 167 l 604 169 l 611 169 q 615 163 615 167 l 617 163 q 621 169 617 167 l 638 169 q 636 178 638 170 q 637 179 637 178 q 642 178 638 178 q 643 183 642 181 l 648 180 l 649 180 q 650 186 649 185 q 655 184 653 184 q 657 189 656 189 q 662 188 658 188 q 663 193 662 191 l 668 190 q 672 195 669 190 q 670 203 672 196 q 678 200 671 203 l 678 206 l 680 206 l 686 203 l 686 208 q 691 206 689 208 q 693 212 691 211 l 699 210 l 699 216 l 700 216 l 706 212 l 706 219 q 712 217 708 219 l 712 221 l 706 229 q 729 242 717 232 q 738 240 736 240 l 738 244 l 730 244 q 728 246 728 244 l 728 250 q 727 258 728 255 q 731 288 731 282 l 716 288 q 706 281 714 288 q 687 274 687 276 m 849 281 l 849 276 l 855 276 q 857 278 857 276 q 849 281 855 278 m 792 278 l 792 272 q 814 275 806 275 l 814 278 l 792 278 m 881 278 l 881 273 l 882 273 q 889 277 887 277 l 889 278 l 881 278 m 771 270 l 773 270 q 784 277 779 270 l 782 277 q 771 270 773 277 m 1087 278 l 1089 278 l 1089 276 l 1087 276 l 1087 278 m 1420 268 l 1420 262 l 1426 262 l 1426 268 l 1420 268 m 879 255 q 887 249 880 252 q 890 258 887 252 l 889 258 q 879 255 882 255 m 909 254 l 909 253 q 916 252 916 253 q 918 258 918 257 q 909 254 914 256 m 1186 259 l 1193 259 q 1195 257 1195 259 q 1186 251 1192 252 l 1184 253 l 1184 257 q 1186 259 1185 259 m 1239 219 q 1245 233 1243 219 q 1256 257 1250 233 q 1239 221 1247 257 l 1239 219 m 829 255 l 832 246 q 855 249 847 249 l 873 249 l 870 255 q 855 251 861 251 q 831 255 851 255 l 829 255 m 1321 254 l 1321 249 l 1330 249 q 1321 254 1328 254 m 740 251 l 740 250 q 745 245 740 248 q 751 251 749 245 l 740 251 m 763 251 q 771 246 765 246 q 763 251 769 251 m 793 251 l 793 249 q 782 250 789 249 l 781 250 l 781 249 q 786 242 786 249 l 811 242 l 811 251 l 793 251 m 1527 241 l 1527 240 q 1539 236 1527 236 l 1568 236 l 1568 238 l 1546 238 l 1546 241 q 1540 238 1540 240 q 1527 241 1530 240 m 915 234 q 924 229 916 229 l 924 234 l 915 234 m 864 231 l 864 225 l 881 225 l 881 227 l 864 231 m 905 231 l 905 227 q 909 231 906 227 l 905 231 m 1143 230 l 1143 225 q 1151 227 1144 227 l 1151 227 l 1143 230 m 835 229 q 836 223 835 223 l 841 225 l 846 223 l 853 223 l 853 229 l 835 229 m 713 221 q 718 219 715 221 l 718 225 l 717 225 q 713 221 713 223 m 769 225 l 769 219 q 779 223 777 223 q 786 219 780 219 l 790 219 q 799 225 799 221 l 769 225 m 1338 225 q 1334 206 1334 212 q 1351 190 1339 190 l 1351 191 q 1338 225 1351 216 m 739 219 l 765 219 l 765 221 l 756 223 q 739 219 739 222 m 808 208 l 801 208 q 775 208 792 208 q 757 205 767 205 l 740 205 l 740 204 q 752 189 740 197 q 760 193 758 193 l 784 193 l 793 196 l 842 196 q 851 200 847 200 l 912 200 q 923 196 922 196 l 942 196 q 944 193 942 195 q 951 196 948 196 q 956 194 956 196 q 964 196 960 196 q 972 193 969 193 l 1002 193 q 1009 189 1006 193 l 1011 190 l 1028 190 q 1037 186 1031 190 l 1048 186 q 1058 183 1057 183 l 1074 183 q 1079 192 1077 183 q 1060 199 1073 192 l 1055 198 l 1052 198 q 1040 202 1041 202 l 1028 202 q 1020 205 1024 202 l 994 205 q 986 208 992 205 q 962 208 972 208 l 956 208 q 944 212 946 212 l 814 212 l 808 208 m 1093 199 l 1089 199 q 1081 201 1087 199 q 1096 191 1086 191 q 1102 200 1096 195 l 1102 204 l 1093 199 m 693 191 l 693 186 l 699 186 q 715 196 704 196 l 715 202 q 693 191 706 202 m 722 201 q 713 186 722 196 l 723 186 q 735 191 735 189 q 722 201 724 200 m 1249 175 l 1249 170 q 1247 168 1249 168 l 1243 168 q 1241 170 1241 168 l 1241 175 l 1222 175 l 1222 169 l 1228 169 l 1228 168 q 1222 162 1228 167 q 1226 156 1224 156 q 1236 162 1230 162 l 1242 153 l 1242 152 q 1229 155 1231 155 l 1226 155 l 1210 150 q 1204 151 1209 151 l 1202 149 l 1202 143 l 1203 143 l 1206 145 l 1209 145 q 1213 141 1209 141 q 1222 143 1220 143 l 1223 143 q 1232 137 1227 139 q 1241 139 1239 139 l 1241 138 q 1232 132 1239 132 q 1243 123 1232 123 l 1245 123 l 1243 115 q 1254 103 1244 115 q 1262 106 1260 106 q 1275 105 1265 105 q 1284 119 1276 113 q 1281 127 1281 124 q 1287 136 1287 129 q 1260 147 1267 147 l 1260 147 q 1275 152 1260 149 q 1281 143 1280 143 q 1297 151 1297 147 l 1297 152 q 1285 165 1297 163 q 1283 160 1283 162 l 1280 160 q 1277 168 1280 162 l 1279 169 l 1299 169 q 1301 173 1299 173 l 1307 170 q 1320 173 1320 172 q 1310 187 1318 180 q 1313 193 1313 188 q 1304 201 1304 194 l 1303 201 q 1262 177 1270 177 q 1249 175 1261 176 m 1332 191 l 1331 186 q 1325 188 1328 186 l 1325 187 q 1331 177 1325 184 l 1338 149 l 1344 149 q 1349 169 1349 166 l 1349 174 q 1336 180 1348 175 q 1333 191 1333 185 l 1332 191 m 685 188 q 660 172 682 182 l 660 166 l 666 166 q 670 173 668 173 l 678 173 l 691 186 l 685 188 m 1100 187 q 1111 176 1111 177 l 1111 175 l 1102 175 q 1087 181 1087 181 l 1089 172 q 1089 171 1089 172 q 1076 174 1082 174 l 1076 172 l 1054 172 l 1051 174 l 1050 174 q 1048 169 1048 174 q 1052 166 1052 167 q 1060 169 1057 169 l 1126 169 l 1152 152 l 1152 151 q 1134 111 1152 143 q 1129 87 1129 101 l 1129 83 l 1135 83 l 1135 84 q 1133 93 1133 90 l 1138 99 l 1138 101 l 1135 106 q 1167 149 1161 149 l 1167 149 q 1139 169 1166 153 l 1139 171 q 1141 174 1141 174 q 1131 179 1141 176 q 1125 176 1130 176 q 1102 187 1113 187 l 1100 187 m 1001 182 l 1001 176 l 1005 176 l 1005 182 l 1001 182 m 940 175 l 940 174 l 949 173 l 949 179 l 940 175 m 389 175 q 385 164 385 167 l 385 154 q 381 147 385 149 q 389 136 383 143 l 385 127 q 398 115 398 127 q 401 110 400 115 q 417 124 417 117 l 410 137 l 414 145 q 404 152 404 147 q 406 169 406 166 l 389 175 m 898 175 l 898 170 l 902 170 q 906 174 904 170 l 906 175 l 898 175 m 922 171 l 922 170 l 923 170 q 929 175 927 170 q 922 171 922 174 m 812 172 q 821 166 815 166 l 821 172 l 812 172 m 1212 172 l 1212 165 l 1211 165 q 1202 168 1203 168 l 1202 156 l 1212 156 q 1221 163 1221 162 q 1218 172 1218 170 l 1212 172 m 448 165 l 423 165 q 415 160 417 165 q 431 130 425 130 l 457 139 l 457 158 q 459 168 457 160 l 459 168 q 448 165 451 165 m 505 169 l 517 169 q 515 160 517 167 l 514 160 q 505 168 512 160 l 505 169 m 574 169 q 583 166 581 166 l 583 165 q 575 156 577 156 q 569 158 572 158 q 559 153 563 153 q 554 158 555 155 l 554 160 l 564 160 l 567 160 q 574 169 567 162 m 1374 168 l 1374 145 q 1368 125 1368 132 q 1384 118 1377 118 q 1393 141 1389 128 q 1405 145 1397 145 q 1412 143 1412 144 q 1420 145 1418 145 l 1420 147 q 1416 149 1420 148 q 1397 145 1401 149 q 1393 154 1393 151 l 1393 165 l 1378 165 l 1374 168 m 626 147 l 626 147 l 632 149 q 640 147 638 147 q 655 161 640 149 l 658 165 l 649 165 q 626 147 629 153 m 1357 162 q 1345 138 1355 150 l 1345 136 q 1353 134 1350 134 q 1360 145 1353 137 q 1363 162 1360 149 l 1357 162 m 611 160 l 611 158 l 615 158 l 615 161 l 615 161 q 611 160 613 160 m 915 160 q 924 128 918 160 l 906 128 q 904 130 904 128 q 911 160 909 146 l 915 160 m 716 147 l 716 130 l 717 130 q 726 132 724 132 l 726 124 q 724 122 726 122 q 715 126 716 126 q 708 120 715 121 l 706 120 l 706 121 l 712 130 q 706 149 706 147 q 693 145 699 145 q 685 149 688 149 q 678 143 685 147 l 666 143 l 670 132 q 668 126 668 130 q 673 122 672 124 q 670 113 670 115 q 686 90 686 104 q 702 107 693 90 q 706 113 702 111 l 718 113 q 699 93 712 93 l 699 92 q 706 80 704 92 q 741 88 741 83 q 755 114 750 95 q 758 132 755 126 l 756 132 q 732 126 755 132 l 734 132 q 729 139 733 132 q 747 147 731 141 q 754 154 752 151 l 754 156 q 716 147 716 152 m 356 153 l 361 149 l 361 155 l 358 155 q 356 153 356 155 m 1070 149 l 1071 149 q 1084 155 1084 151 l 1078 155 q 1070 149 1070 155 m 1433 143 l 1427 143 l 1427 141 q 1431 137 1429 137 q 1438 143 1438 139 l 1440 147 l 1445 143 l 1446 143 l 1446 149 l 1447 150 l 1462 143 q 1465 152 1465 150 l 1450 152 l 1446 155 q 1433 143 1437 150 m 1024 152 l 1024 147 q 1034 151 1032 151 l 1034 152 l 1024 152 m 1483 152 l 1483 147 l 1489 147 l 1489 152 l 1483 152 m 1100 149 q 1104 143 1100 147 l 1106 149 l 1100 149 m 1422 147 q 1426 143 1422 144 l 1429 149 l 1427 149 q 1422 147 1423 147 m 1470 149 l 1470 143 q 1477 147 1475 147 l 1477 149 l 1470 149 m 1523 141 l 1523 141 l 1529 143 q 1535 141 1532 143 q 1543 143 1541 143 q 1552 139 1552 141 l 1556 141 q 1563 141 1563 141 q 1574 143 1570 143 q 1582 139 1578 139 l 1582 139 q 1587 145 1584 139 l 1553 145 q 1552 149 1553 149 q 1541 145 1542 145 q 1528 149 1537 147 q 1523 141 1523 147 m 1178 145 q 1203 128 1188 133 l 1203 128 q 1178 145 1195 140 m 640 139 l 640 138 q 653 123 640 126 l 653 122 l 650 113 q 660 97 655 113 l 660 85 q 656 73 656 74 l 656 70 l 661 70 q 665 88 663 70 l 665 94 q 662 108 662 107 q 665 115 665 113 q 654 125 659 115 q 640 139 654 134 m 1098 139 q 1111 130 1105 130 l 1111 132 q 1107 139 1110 139 l 1098 139 m 589 128 l 589 128 l 591 128 q 600 134 596 128 l 600 134 q 589 128 592 134 m 593 122 q 575 110 585 110 q 567 112 567 110 l 552 109 q 563 99 552 99 q 567 80 564 96 l 575 80 l 577 80 q 575 72 575 77 l 590 63 l 597 63 q 606 69 604 63 q 584 80 584 71 l 592 80 q 632 97 609 80 l 630 108 l 632 109 q 642 107 632 109 q 639 126 639 122 l 636 126 l 636 114 q 634 112 636 112 l 628 112 q 626 114 626 112 l 626 128 l 624 128 q 593 122 619 128 m 1553 128 l 1553 123 l 1558 123 l 1558 128 l 1553 128 m 1566 128 l 1566 124 q 1571 128 1567 124 l 1566 128 m 1578 128 q 1585 123 1578 127 l 1585 128 l 1578 128 m 1589 125 l 1589 123 l 1598 123 l 1598 128 q 1589 125 1589 128 m 576 121 l 576 120 l 583 120 q 585 124 583 122 l 585 125 q 576 121 578 121 m 1210 125 q 1222 107 1222 111 l 1222 93 q 1199 71 1211 71 l 1189 69 q 1197 63 1191 63 l 1202 63 q 1229 88 1211 63 q 1234 102 1234 97 l 1234 104 q 1210 125 1234 115 m 206 122 l 206 114 l 208 114 q 223 118 223 115 l 223 119 q 206 122 208 122 m 1165 122 q 1150 87 1165 118 q 1149 83 1150 85 l 1152 83 q 1184 99 1176 83 q 1178 114 1182 114 q 1165 122 1175 114 l 1165 122 m 428 115 l 428 110 q 436 115 436 115 l 428 115 m 1143 97 l 1151 100 l 1150 105 l 1150 106 l 1151 111 q 1143 97 1145 111 m 1367 109 l 1367 104 l 1368 104 q 1380 107 1371 104 l 1381 105 l 1381 98 q 1379 96 1381 96 l 1371 96 l 1371 94 q 1387 90 1372 94 l 1387 91 l 1383 109 l 1367 109 m 413 108 q 411 103 413 106 l 409 104 q 406 103 407 103 q 408 90 408 91 l 415 94 l 424 90 l 424 96 l 416 96 q 414 98 414 96 l 414 108 l 413 108 m 643 99 q 652 91 648 91 l 652 92 q 648 105 650 105 q 643 99 643 103 m 1403 105 l 1403 100 l 1405 100 l 1412 101 l 1412 102 l 1403 105 m 575 103 l 576 103 q 583 85 583 92 q 577 82 581 85 q 570 100 570 96 l 575 103 m 1000 95 q 992 96 994 96 q 956 82 961 82 l 951 82 q 929 95 939 82 l 927 95 q 914 83 919 83 l 913 83 q 897 96 901 92 l 885 78 l 885 75 q 911 34 911 54 l 916 34 q 929 59 916 49 q 948 78 937 78 l 953 78 q 971 69 964 78 q 999 61 978 65 l 1007 61 q 1034 74 1029 61 q 1035 75 1035 74 l 1035 85 q 1015 99 1035 96 l 1005 99 l 1000 95 m 670 93 q 673 83 670 92 l 678 83 q 676 96 678 86 q 670 93 671 93 m 395 92 l 395 87 l 403 87 q 406 78 405 87 l 407 78 q 414 86 407 80 q 395 92 400 92 m 1205 92 q 1210 87 1205 91 l 1211 89 l 1211 92 l 1205 92 m 630 89 q 611 76 630 79 q 611 67 611 67 q 598 56 610 56 l 588 56 q 558 78 581 56 l 558 76 q 591 44 571 44 l 600 44 q 649 78 649 65 q 632 89 649 89 l 630 89 m 1190 89 q 1162 72 1171 73 q 1150 74 1155 74 q 1193 44 1150 63 l 1204 44 q 1234 72 1224 44 l 1209 56 l 1193 56 q 1182 67 1182 59 l 1182 69 q 1200 80 1182 78 l 1200 82 q 1190 89 1196 89 m 1381 85 q 1390 78 1381 84 l 1390 86 q 1381 85 1386 85 m 389 82 l 389 78 l 397 78 l 394 85 q 389 82 389 84 m 1398 85 q 1400 80 1400 82 q 1388 72 1388 75 q 1391 63 1391 67 l 1391 59 l 1389 56 l 1389 54 l 1390 54 q 1405 61 1399 61 l 1407 59 l 1407 56 q 1403 48 1407 48 l 1397 48 l 1395 40 q 1401 33 1396 40 q 1398 27 1398 29 q 1403 22 1402 25 l 1403 19 q 1391 9 1403 16 l 1397 -3 l 1395 -4 l 1384 -4 q 1382 -16 1382 -10 q 1384 -16 1384 -16 l 1386 -16 l 1387 -16 q 1390 -21 1388 -21 l 1390 -10 l 1391 -8 q 1401 -14 1401 -12 q 1395 -21 1399 -14 l 1395 -21 q 1412 -12 1401 -21 l 1414 -12 q 1420 -21 1415 -21 q 1435 -10 1435 -20 l 1429 -12 l 1429 -6 q 1424 5 1429 2 q 1420 -6 1424 0 l 1422 -6 q 1426 -10 1426 -8 l 1426 -12 q 1422 -18 1426 -17 q 1416 -12 1416 -16 q 1418 -6 1418 -10 q 1412 -5 1414 -6 l 1416 6 q 1410 8 1410 6 l 1410 15 q 1418 20 1412 20 q 1422 8 1418 19 q 1429 16 1424 9 q 1420 21 1420 20 l 1425 30 q 1416 35 1420 30 q 1422 42 1417 35 l 1422 43 l 1414 43 l 1412 44 q 1416 56 1416 55 q 1410 59 1410 56 l 1410 67 q 1403 72 1410 69 q 1394 63 1402 63 q 1393 65 1393 65 q 1403 76 1393 76 l 1405 76 q 1399 85 1405 85 l 1398 85 m 522 75 q 524 70 524 72 l 533 70 l 558 47 l 562 47 l 562 48 l 542 80 q 522 75 522 77 m 1133 80 l 1133 78 q 1151 54 1133 68 l 1151 56 q 1141 69 1151 61 q 1137 78 1141 78 q 1133 80 1135 78 m 1236 54 l 1236 54 q 1239 50 1236 52 q 1270 70 1259 70 l 1270 76 q 1256 80 1260 80 q 1236 54 1249 80 m 1449 72 q 1443 74 1448 74 q 1441 72 1443 72 l 1433 72 q 1420 75 1431 72 l 1420 70 l 1451 70 l 1456 67 q 1462 76 1460 67 l 1457 76 q 1449 72 1454 76 m 646 59 l 648 59 q 655 63 655 62 l 655 67 q 646 59 654 67 m 385 65 l 385 59 q 379 56 385 56 q 390 45 379 45 q 392 34 391 43 l 390 33 q 384 43 384 37 l 373 43 l 373 42 l 377 35 l 377 32 l 368 30 l 375 21 l 375 19 q 368 14 368 16 l 368 14 q 383 20 373 14 q 394 11 385 14 q 392 26 392 23 q 392 27 392 26 q 399 25 396 25 q 394 36 394 32 q 401 40 399 40 q 398 50 398 47 q 390 48 395 48 q 387 59 389 50 q 388 61 388 59 q 402 54 396 59 l 402 63 q 385 65 388 65 m 353 59 q 361 58 354 59 q 357 63 360 63 q 353 59 353 61 m 336 59 l 336 54 q 350 59 350 55 q 343 61 343 61 q 336 59 338 59 m 323 56 l 323 54 l 327 54 q 330 59 328 54 l 329 59 q 323 56 323 58 m 600 36 l 586 36 q 569 46 579 36 l 564 46 l 564 42 q 589 31 569 31 l 596 31 q 637 52 630 40 l 637 52 l 636 52 q 600 36 604 36 m 1164 48 q 1188 34 1164 41 l 1201 34 l 1201 35 q 1186 39 1201 37 q 1164 48 1171 48 m 1210 34 l 1211 34 q 1231 46 1231 35 l 1230 46 q 1210 34 1214 40 m 1410 47 l 1411 45 l 1411 37 q 1403 34 1411 35 q 1400 43 1400 41 l 1410 47 m 402 40 q 407 33 406 33 l 407 40 l 402 40 m 204 29 q 208 25 204 25 q 214 27 211 27 l 236 27 q 245 31 245 28 l 238 33 l 215 33 q 204 29 208 32 m 247 30 q 258 27 249 30 l 261 32 l 261 33 l 250 33 q 247 30 248 33 m 381 33 l 383 33 q 388 29 388 30 l 388 22 q 386 20 388 20 q 381 23 386 23 l 381 33 m 1414 33 q 1416 24 1416 26 q 1407 20 1414 22 l 1405 22 l 1405 28 q 1414 33 1408 33 m 401 23 q 399 14 399 15 q 407 23 405 14 l 401 23 m 206 17 q 208 14 208 17 l 284 14 q 299 17 290 14 l 299 16 q 278 5 299 10 q 261 -6 270 -6 l 237 -6 l 233 -8 l 232 -8 q 219 -3 226 -3 l 217 -3 q 215 -8 217 -8 l 196 -8 q 160 -12 170 -8 q 150 -7 153 -8 l 150 -5 l 159 -5 q 153 0 159 -4 q 158 14 155 10 l 163 11 q 165 14 163 14 l 202 14 l 206 17 m 1405 11 q 1407 8 1407 9 q 1401 0 1407 3 l 1399 0 q 1396 9 1399 3 q 1405 11 1397 10 m 406 6 l 408 -6 l 407 -6 q 398 -2 399 -4 l 399 4 l 399 5 l 398 5 q 395 0 398 4 q 383 3 385 2 q 379 -6 383 -6 l 379 -6 l 379 -7 q 384 -8 381 -7 l 384 0 l 385 0 q 392 -8 392 0 l 403 -8 q 405 -10 405 -8 l 405 -18 q 388 -12 402 -18 l 388 -23 q 386 -25 388 -25 l 383 -25 q 381 -23 381 -25 l 381 -12 q 370 -18 374 -18 l 368 -14 q 375 -6 368 -6 q 370 5 370 4 l 370 5 l 368 0 q 362 2 366 0 l 362 2 q 364 -12 364 -10 l 364 -12 l 360 -10 l 360 -12 q 362 -19 362 -18 q 356 -27 356 -24 l 359 -32 q 356 -42 356 -40 l 361 -42 l 361 -33 q 362 -31 361 -31 q 383 -42 371 -42 l 383 -50 l 381 -52 q 364 -43 370 -48 l 362 -43 q 366 -58 362 -45 q 357 -56 363 -58 l 362 -63 l 362 -70 q 357 -73 362 -71 q 359 -85 357 -75 q 358 -86 358 -85 l 356 -85 l 353 -85 l 353 -86 q 355 -94 355 -92 q 349 -114 349 -112 l 349 -123 l 350 -123 q 356 -121 353 -121 q 359 -130 359 -128 l 357 -131 l 350 -131 l 350 -132 q 356 -144 354 -137 q 346 -145 356 -145 q 352 -159 352 -152 q 356 -154 353 -159 q 364 -160 364 -157 q 361 -166 362 -166 l 360 -166 q 350 -162 354 -162 l 346 -162 q 349 -168 349 -166 q 346 -176 346 -172 l 346 -185 q 351 -189 346 -187 l 355 -177 l 349 -177 l 349 -177 l 352 -166 l 353 -166 q 362 -177 354 -166 q 360 -187 362 -179 l 368 -179 q 377 -183 369 -179 l 377 -179 q 364 -170 377 -178 l 370 -161 l 368 -157 q 373 -148 370 -149 q 379 -159 379 -148 l 379 -160 q 388 -157 383 -157 l 397 -157 q 399 -151 397 -151 q 412 -157 402 -151 l 412 -163 q 417 -166 412 -165 l 417 -165 q 411 -154 411 -155 q 415 -145 413 -145 l 416 -145 q 423 -157 423 -149 l 428 -160 l 428 -154 l 429 -154 q 434 -159 430 -154 q 435 -153 434 -154 q 448 -157 442 -155 q 450 -151 448 -151 l 457 -151 l 457 -144 l 459 -144 q 463 -149 459 -144 q 465 -144 463 -144 l 470 -146 q 474 -138 474 -145 l 474 -135 q 461 -141 470 -135 l 461 -139 l 461 -130 q 463 -118 463 -122 q 451 -109 451 -118 l 451 -107 l 450 -107 q 446 -111 449 -111 q 440 -107 440 -108 l 440 -99 q 446 -98 440 -98 q 431 -79 432 -86 q 440 -77 434 -77 l 440 -75 q 428 -72 437 -75 q 426 -82 428 -82 l 422 -82 l 420 -81 q 424 -65 420 -80 q 412 -59 422 -63 l 411 -57 l 411 -53 q 417 -47 411 -52 q 405 -37 405 -39 q 404 -29 405 -36 l 406 -29 q 419 -33 417 -33 l 419 -32 q 408 -25 419 -29 l 407 -23 l 407 -16 q 414 -14 407 -14 l 411 -6 q 414 6 412 -3 l 406 6 m 1409 0 l 1410 0 l 1407 -12 q 1400 -8 1402 -12 q 1409 0 1400 -6 m 221 -12 l 232 -12 q 228 -18 232 -17 l 225 -18 q 219 -12 221 -16 l 221 -12 m 237 -12 l 249 -12 l 249 -12 q 236 -21 244 -21 l 236 -14 q 237 -12 236 -12 m 189 -14 q 202 -16 189 -14 l 202 -16 q 197 -18 202 -18 q 201 -25 199 -25 q 210 -14 210 -21 l 215 -14 q 217 -16 217 -15 l 217 -21 l 232 -21 l 232 -23 q 206 -35 225 -35 q 206 -29 206 -34 q 193 -42 200 -29 l 208 -38 l 208 -40 q 175 -66 203 -46 q 169 -72 175 -67 l 160 -72 q 149 -85 160 -80 q 148 -88 148 -86 l 147 -88 q 141 -86 145 -88 l 137 -87 q 126 -84 126 -86 l 126 -75 l 128 -75 q 134 -77 129 -75 q 139 -72 134 -76 q 130 -71 130 -72 q 143 -51 132 -51 l 152 -51 l 152 -50 l 150 -47 l 150 -46 l 153 -42 q 163 -43 161 -43 q 169 -37 163 -42 l 167 -37 l 163 -40 q 156 -37 159 -37 q 141 -42 143 -42 l 139 -42 q 145 -29 142 -29 l 156 -29 l 153 -23 q 159 -21 158 -21 l 160 -23 l 160 -29 l 169 -29 q 167 -23 167 -25 q 169 -18 169 -21 l 179 -21 l 182 -21 q 189 -14 187 -14 m 366 -18 q 375 -21 372 -21 l 375 -27 q 370 -31 375 -28 l 366 -31 q 364 -19 366 -28 l 366 -18 m 185 -23 q 189 -27 185 -24 l 189 -23 l 185 -23 m 394 -21 l 400 -21 q 402 -23 402 -22 l 402 -31 l 401 -32 q 392 -23 392 -31 l 394 -21 m 108 -25 l 122 -25 q 124 -27 124 -25 q 105 -44 120 -44 q 101 -45 103 -45 l 100 -43 q 108 -25 100 -35 m 1403 -25 q 1401 -32 1403 -27 l 1400 -32 q 1391 -31 1393 -31 q 1389 -42 1389 -34 q 1394 -43 1394 -42 l 1394 -50 q 1387 -54 1392 -54 l 1386 -54 l 1383 -42 q 1379 -49 1379 -42 q 1384 -52 1384 -50 q 1381 -62 1384 -53 q 1387 -66 1385 -62 l 1387 -71 q 1383 -75 1387 -72 q 1377 -66 1377 -73 q 1371 -68 1374 -66 l 1374 -73 l 1374 -80 q 1372 -82 1374 -82 l 1364 -79 q 1355 -92 1364 -88 q 1348 -96 1351 -96 l 1348 -98 q 1355 -99 1355 -98 l 1355 -107 l 1355 -107 q 1368 -105 1364 -105 q 1373 -107 1372 -107 l 1373 -98 l 1374 -98 q 1384 -101 1377 -98 q 1380 -107 1382 -107 q 1387 -118 1380 -109 q 1377 -121 1387 -120 l 1376 -120 l 1376 -111 l 1375 -111 q 1366 -114 1370 -114 q 1357 -112 1360 -112 l 1357 -120 q 1351 -124 1357 -122 q 1349 -114 1349 -124 q 1336 -118 1339 -118 l 1331 -115 l 1334 -137 q 1358 -125 1346 -134 l 1359 -125 q 1363 -135 1362 -125 q 1356 -138 1357 -138 q 1351 -136 1353 -136 l 1351 -143 q 1349 -145 1351 -145 l 1344 -145 l 1345 -150 l 1348 -148 l 1349 -148 q 1353 -152 1353 -148 l 1355 -152 q 1366 -135 1355 -141 l 1369 -131 l 1369 -130 l 1363 -121 q 1373 -118 1367 -118 q 1371 -130 1373 -120 q 1377 -132 1377 -130 l 1377 -135 q 1374 -143 1377 -143 l 1367 -142 q 1364 -153 1367 -145 l 1365 -153 l 1378 -145 l 1379 -145 q 1384 -154 1381 -145 q 1397 -151 1393 -151 q 1399 -155 1399 -154 l 1400 -155 l 1400 -146 q 1401 -144 1400 -144 q 1414 -163 1412 -144 l 1414 -172 l 1414 -172 q 1422 -162 1418 -171 q 1416 -161 1417 -162 q 1422 -148 1416 -148 l 1422 -148 q 1426 -159 1425 -148 q 1435 -154 1434 -155 q 1442 -157 1439 -154 l 1445 -145 l 1440 -148 l 1439 -146 l 1439 -138 l 1437 -138 q 1433 -154 1435 -154 q 1426 -146 1426 -152 q 1431 -142 1429 -142 l 1431 -141 q 1422 -136 1425 -141 l 1422 -135 q 1433 -127 1422 -127 q 1436 -132 1435 -132 l 1436 -122 q 1446 -120 1436 -120 q 1443 -112 1443 -115 l 1442 -112 q 1435 -118 1442 -118 q 1429 -112 1433 -118 q 1426 -114 1426 -113 q 1431 -124 1431 -122 q 1420 -127 1425 -127 l 1420 -127 l 1422 -112 q 1407 -121 1413 -117 q 1401 -112 1403 -112 q 1390 -114 1400 -112 l 1387 -110 q 1395 -101 1393 -102 l 1400 -105 q 1401 -96 1401 -101 q 1397 -94 1397 -96 q 1399 -82 1397 -92 l 1401 -82 l 1407 -87 l 1409 -87 q 1412 -74 1410 -74 l 1414 -74 q 1416 -75 1416 -74 q 1414 -88 1416 -78 q 1433 -82 1418 -88 l 1433 -82 l 1433 -90 q 1431 -92 1433 -92 l 1422 -92 q 1418 -99 1420 -92 q 1414 -101 1416 -99 q 1407 -92 1411 -92 q 1412 -103 1410 -103 q 1424 -101 1414 -103 q 1431 -110 1429 -110 q 1436 -107 1435 -107 l 1442 -110 l 1442 -103 q 1436 -88 1442 -99 q 1441 -86 1439 -86 l 1441 -85 q 1435 -84 1437 -85 l 1439 -72 q 1433 -71 1433 -72 q 1439 -54 1433 -65 l 1439 -51 q 1436 -25 1439 -41 q 1426 -32 1429 -25 l 1418 -29 l 1418 -31 q 1420 -35 1420 -33 q 1414 -42 1418 -35 l 1414 -42 q 1424 -46 1422 -42 q 1414 -52 1419 -52 l 1412 -50 l 1412 -42 l 1397 -45 q 1396 -44 1397 -44 q 1401 -34 1399 -34 q 1409 -37 1407 -37 q 1412 -25 1412 -27 l 1403 -25 m 384 -27 l 385 -29 l 385 -38 l 383 -38 q 375 -31 375 -38 l 375 -31 q 384 -27 378 -31 m 1374 -31 q 1380 -37 1374 -33 q 1382 -29 1380 -35 l 1381 -29 l 1374 -31 m 265 -31 l 292 -31 l 292 -32 q 223 -79 283 -40 q 184 -99 200 -99 q 187 -107 184 -101 q 159 -128 174 -113 q 153 -126 158 -128 q 147 -128 149 -128 q 137 -121 137 -122 q 124 -124 137 -121 q 122 -120 122 -122 l 121 -120 q 119 -125 121 -125 l 72 -125 q 67 -120 71 -125 q 78 -114 69 -114 l 78 -107 q 92 -65 78 -97 q 112 -49 92 -52 q 113 -48 112 -48 l 113 -50 q 96 -72 113 -72 l 94 -72 q 95 -77 95 -73 q 104 -75 101 -75 l 104 -75 q 95 -107 104 -79 l 123 -107 q 124 -110 123 -110 q 135 -107 132 -107 q 141 -110 137 -110 l 147 -110 q 253 -37 166 -99 q 265 -31 262 -31 m 1433 -32 l 1433 -32 q 1429 -45 1432 -45 q 1424 -40 1424 -42 l 1424 -36 q 1433 -32 1424 -34 m 388 -34 q 398 -44 398 -35 l 396 -45 l 389 -45 q 387 -43 387 -45 l 387 -36 l 388 -34 m 401 -42 l 403 -42 q 408 -46 408 -45 l 408 -53 q 406 -55 408 -55 l 401 -50 l 401 -42 m 1632 -51 l 1634 -51 q 1639 -50 1639 -50 q 1643 -51 1641 -51 l 1644 -46 l 1644 -45 q 1632 -51 1632 -46 m 1437 -45 l 1437 -46 l 1436 -53 q 1437 -54 1437 -53 q 1429 -58 1432 -58 l 1429 -49 q 1437 -45 1429 -46 m 386 -48 q 394 -52 394 -50 l 394 -53 q 389 -58 394 -54 l 384 -58 l 384 -50 q 386 -48 385 -48 m 419 -49 q 422 -59 422 -54 l 423 -59 q 427 -52 423 -57 l 427 -51 q 419 -49 425 -51 m 1367 -49 l 1367 -54 q 1375 -49 1375 -54 l 1367 -49 m 1410 -48 l 1411 -50 l 1411 -57 q 1409 -59 1411 -59 l 1401 -59 l 1401 -64 q 1418 -55 1412 -64 l 1420 -55 l 1426 -57 q 1420 -66 1424 -66 q 1414 -63 1416 -63 l 1414 -70 l 1412 -72 l 1401 -69 q 1403 -78 1403 -75 l 1403 -79 q 1394 -82 1401 -79 l 1393 -80 l 1393 -73 l 1400 -67 l 1400 -66 l 1399 -66 q 1390 -68 1393 -68 q 1393 -54 1390 -63 q 1400 -56 1395 -56 q 1410 -48 1400 -50 m 1602 -49 l 1602 -53 l 1605 -51 q 1614 -54 1612 -54 l 1614 -49 l 1602 -49 m 370 -54 l 377 -54 q 379 -56 379 -54 l 379 -63 q 377 -65 379 -65 q 368 -55 369 -65 l 370 -54 m 397 -55 l 399 -55 q 405 -60 405 -59 l 405 -68 l 403 -68 q 397 -63 397 -65 l 397 -55 m 381 -62 l 383 -62 q 392 -64 385 -62 l 392 -66 q 383 -72 389 -72 l 381 -70 l 381 -62 m 407 -62 l 408 -62 q 418 -67 418 -64 q 410 -74 418 -74 q 407 -62 407 -65 m 366 -68 q 375 -75 375 -69 q 364 -78 366 -78 l 364 -70 q 366 -68 365 -68 m 1360 -75 l 1364 -77 l 1369 -69 q 1360 -75 1363 -69 m 1429 -68 l 1431 -70 l 1431 -77 q 1429 -79 1431 -79 l 1422 -79 q 1420 -77 1420 -79 l 1420 -75 q 1429 -68 1420 -68 m 398 -69 l 399 -69 l 402 -81 q 401 -82 401 -81 q 392 -77 392 -79 l 392 -73 q 398 -69 393 -69 m 379 -74 l 383 -74 q 385 -75 385 -74 l 385 -84 l 386 -84 q 395 -81 392 -81 l 398 -86 l 398 -90 l 392 -96 l 394 -107 q 392 -109 392 -107 q 384 -103 385 -106 l 384 -99 q 390 -94 384 -99 q 379 -82 379 -86 l 377 -75 l 379 -74 m 413 -78 q 415 -80 415 -78 q 406 -88 415 -86 l 412 -98 q 402 -101 405 -101 l 401 -101 l 401 -92 q 405 -78 404 -89 l 413 -78 m 1382 -78 l 1390 -78 l 1390 -79 q 1380 -88 1390 -88 q 1372 -94 1378 -94 q 1370 -92 1370 -94 l 1370 -87 q 1372 -85 1370 -85 l 1380 -88 q 1382 -78 1380 -78 m 362 -81 q 370 -88 370 -82 q 362 -92 363 -92 l 361 -90 l 361 -83 l 362 -81 m 424 -85 l 425 -87 l 425 -94 q 414 -90 414 -93 q 424 -85 414 -86 m 1393 -88 q 1394 -88 1393 -88 q 1390 -101 1392 -101 q 1383 -92 1383 -98 q 1393 -88 1386 -90 m 375 -88 l 375 -88 q 383 -99 383 -94 q 379 -101 381 -101 l 379 -114 l 377 -114 q 368 -111 369 -111 l 368 -109 q 377 -101 368 -102 q 375 -88 375 -92 m 428 -90 q 438 -101 438 -92 l 436 -101 l 429 -101 q 427 -99 427 -101 l 427 -92 l 428 -90 m 448 -99 q 453 -105 451 -105 l 457 -105 l 457 -99 l 457 -92 l 455 -92 q 448 -99 448 -97 m 1366 -92 l 1367 -92 l 1367 -99 q 1365 -101 1367 -101 l 1358 -101 q 1356 -99 1356 -101 q 1366 -92 1356 -92 m 1435 -94 q 1437 -105 1436 -96 l 1435 -105 q 1426 -98 1426 -104 l 1435 -94 m 360 -94 q 368 -99 365 -94 l 368 -103 q 358 -105 360 -105 l 358 -96 q 360 -94 358 -94 m 1338 -96 q 1334 -105 1334 -103 l 1336 -105 q 1340 -103 1339 -105 l 1344 -103 l 1346 -99 q 1338 -96 1343 -96 m 421 -98 l 422 -99 l 422 -107 l 421 -109 q 411 -103 411 -105 q 421 -98 411 -99 m 400 -105 q 411 -111 403 -105 q 418 -120 417 -111 l 416 -121 q 408 -111 408 -121 q 399 -114 401 -114 l 399 -115 l 402 -120 l 402 -127 q 396 -141 400 -141 q 383 -135 396 -141 l 379 -135 q 383 -147 379 -137 l 381 -147 q 373 -136 373 -140 q 377 -134 375 -134 l 377 -133 q 372 -131 375 -133 q 366 -141 372 -139 q 361 -128 364 -141 l 362 -127 l 368 -127 l 368 -126 q 366 -115 366 -118 q 368 -114 368 -115 q 375 -121 375 -118 l 373 -127 l 377 -127 l 377 -121 l 379 -121 q 386 -130 382 -122 l 396 -130 q 392 -123 392 -124 q 398 -105 398 -115 l 400 -105 m 425 -105 q 434 -107 432 -107 l 434 -107 q 427 -114 434 -114 l 424 -114 l 424 -107 l 425 -105 m 459 -107 q 461 -114 461 -112 l 463 -114 q 466 -109 463 -112 l 466 -107 q 459 -107 462 -107 m 357 -107 l 360 -107 q 362 -109 362 -108 l 362 -116 q 360 -118 362 -118 l 357 -118 q 355 -116 355 -118 l 355 -109 q 357 -107 355 -107 m 381 -109 q 392 -112 392 -110 l 392 -113 q 385 -121 392 -119 l 383 -121 q 381 -109 383 -120 m 438 -111 l 439 -111 q 444 -116 443 -113 l 444 -124 l 444 -124 l 437 -120 l 438 -118 l 438 -111 m 422 -118 l 432 -121 q 427 -131 429 -131 q 421 -126 421 -128 l 421 -120 l 422 -118 m 1394 -118 q 1403 -122 1403 -120 q 1394 -128 1399 -128 l 1393 -126 l 1393 -120 l 1394 -118 m 450 -120 l 457 -120 q 453 -131 456 -131 q 448 -123 448 -129 l 448 -122 q 450 -120 448 -120 m 1338 -120 l 1345 -120 q 1347 -122 1347 -120 q 1338 -131 1347 -131 l 1336 -129 l 1336 -122 q 1338 -120 1337 -120 m 1416 -121 l 1416 -123 q 1414 -137 1416 -125 q 1420 -134 1417 -134 l 1420 -143 q 1414 -148 1420 -144 q 1410 -138 1412 -146 q 1394 -144 1394 -141 q 1392 -148 1394 -148 l 1385 -148 l 1383 -147 q 1399 -131 1383 -140 l 1400 -131 q 1409 -134 1402 -131 l 1409 -133 q 1407 -125 1407 -127 q 1416 -121 1410 -123 m 406 -124 q 425 -143 425 -130 l 425 -144 l 424 -144 l 412 -135 q 405 -147 412 -147 l 401 -148 q 406 -124 404 -124 m 438 -124 q 442 -137 442 -134 l 440 -137 q 431 -133 431 -136 l 431 -132 q 438 -124 431 -126 m 1390 -124 l 1391 -126 l 1391 -133 q 1389 -135 1391 -135 l 1382 -135 q 1380 -133 1380 -135 l 1380 -132 q 1390 -124 1380 -124 m 446 -134 l 453 -134 l 455 -135 q 444 -145 453 -145 l 444 -143 l 444 -136 q 446 -134 444 -134 m 1322 -135 l 1322 -136 q 1323 -139 1323 -138 l 1325 -139 q 1325 -135 1325 -136 l 1322 -135 m 435 -138 l 439 -150 l 437 -151 q 428 -147 428 -150 l 428 -142 q 435 -138 430 -138 m 1325 -141 l 1325 -147 q 1331 -145 1328 -145 q 1334 -149 1332 -149 q 1336 -141 1334 -148 l 1325 -141 m 358 -141 l 359 -141 l 368 -145 q 361 -154 368 -154 q 358 -141 358 -145 m 386 -144 l 394 -144 q 395 -146 395 -144 l 395 -153 l 394 -155 q 384 -145 384 -153 l 386 -144 m 1382 -158 l 1379 -166 l 1380 -166 l 1383 -164 q 1386 -170 1386 -168 l 1387 -170 q 1390 -164 1387 -167 l 1390 -158 q 1383 -160 1387 -160 l 1383 -158 l 1382 -158 m 1391 -166 l 1391 -170 l 1392 -170 q 1397 -168 1393 -168 q 1399 -172 1397 -172 q 1403 -170 1403 -171 l 1403 -161 q 1391 -166 1391 -164 m 373 -162 l 373 -163 q 384 -179 378 -179 l 384 -177 q 379 -162 384 -174 l 373 -162 m 392 -166 l 392 -170 q 397 -176 392 -172 l 398 -174 l 398 -168 l 399 -168 q 403 -172 403 -170 l 404 -172 q 406 -166 404 -166 q 411 -170 406 -169 l 411 -165 l 407 -165 l 397 -162 q 392 -166 393 -164 m 1436 -168 l 1431 -165 q 1422 -174 1431 -174 l 1422 -176 q 1424 -179 1424 -178 q 1427 -179 1424 -179 l 1433 -179 q 1443 -168 1435 -168 q 1446 -172 1445 -172 q 1449 -162 1446 -168 l 1443 -162 q 1436 -168 1438 -162 m 385 -168 l 385 -174 q 392 -179 385 -175 l 392 -170 q 385 -168 389 -170 m 1405 -172 q 1410 -174 1406 -172 l 1410 -168 q 1405 -172 1405 -170 "},"_":{"x_min":67.828125,"x_max":511.375,"ha":585,"o":"m 67 280 l 68 284 l 68 288 q 83 349 68 325 q 67 411 67 374 l 67 420 q 78 488 67 453 l 79 488 q 157 417 120 417 l 238 417 q 284 448 265 417 l 285 448 q 328 416 301 417 l 427 416 q 494 463 453 416 q 500 487 499 478 l 501 487 q 507 441 507 471 l 507 430 q 489 352 507 375 q 503 331 494 352 q 511 288 511 312 l 511 278 q 501 214 511 250 l 500 214 q 461 263 497 236 q 424 283 448 283 l 336 284 q 302 274 309 284 q 284 251 297 267 q 255 279 270 269 q 223 284 243 284 l 158 284 q 79 218 118 284 q 79 215 79 215 l 78 215 q 68 278 68 240 q 67 280 68 280 "},"+":{"x_min":0,"x_max":0,"ha":751},")":{"x_min":87.78125,"x_max":1380.1875,"ha":1460,"o":"m 1308 857 q 1344 713 1380 820 l 1338 703 q 1117 603 1294 616 q 868 592 890 626 l 882 585 q 953 579 910 571 q 994 601 971 613 l 1001 598 q 1091 543 1028 584 l 1098 540 l 1096 554 l 1098 557 q 1108 560 1101 563 l 1150 539 l 1155 558 l 1203 533 l 1197 554 l 1200 561 q 1245 590 1209 578 q 1327 514 1304 560 q 1342 346 1361 451 q 1352 163 1302 268 l 1350 160 q 1304 179 1348 161 q 1199 289 1229 217 q 1056 535 1144 490 l 1046 540 l 1044 537 q 1062 463 1071 523 q 974 443 1039 418 q 942 490 945 457 l 973 500 l 975 503 q 971 514 978 509 l 954 522 q 573 466 839 581 l 571 463 l 575 461 q 659 448 625 465 q 700 418 673 441 q 860 163 791 198 q 975 157 910 138 q 971 124 984 149 l 960 103 q 826 63 897 27 l 806 74 q 725 145 767 94 q 570 333 620 307 l 567 335 q 504 332 533 352 q 558 209 588 267 l 553 199 q 383 164 514 124 l 379 166 l 381 170 q 434 212 421 188 l 437 219 q 415 286 454 252 l 405 292 q 334 298 379 305 q 170 122 258 294 q 114 -18 143 70 l 95 -12 l 88 -9 q 134 240 80 134 l 155 280 q 233 380 181 330 q 440 564 417 517 q 442 593 452 585 l 436 596 q 382 594 398 585 l 379 596 q 379 647 364 618 l 381 651 q 393 666 387 662 q 507 703 467 723 l 525 694 q 554 549 592 660 q 512 493 544 529 l 511 489 l 514 487 q 687 620 656 560 q 689 632 683 621 q 655 736 714 681 l 652 737 l 639 714 q 599 687 626 687 l 575 699 q 543 771 542 716 q 673 813 587 857 q 735 613 785 756 l 739 611 q 748 619 741 615 q 720 803 796 714 q 600 976 571 919 l 609 993 q 672 1013 626 1026 l 678 1009 q 733 956 716 990 l 683 942 l 681 939 l 681 930 q 769 847 754 873 q 800 705 809 787 l 804 704 l 805 707 l 813 729 l 839 780 q 968 845 904 877 l 975 841 q 1013 748 1037 792 l 1003 727 q 931 707 984 691 l 897 750 q 850 701 884 758 l 824 649 q 827 639 820 642 l 829 642 q 1035 689 908 679 q 1218 730 1194 685 q 1215 809 1245 794 q 1123 817 1183 826 l 1120 819 l 1121 822 q 1285 869 1168 913 l 1308 857 "},"'":{"x_min":0,"x_max":0,"ha":275},"a":{"x_min":0,"x_max":649.734375,"ha":678,"o":"m 301 714 l 317 714 q 482 674 406 714 q 558 579 538 638 q 567 489 567 556 l 567 467 q 623 360 567 394 l 623 358 q 572 288 575 307 q 567 265 567 274 l 567 190 q 567 175 567 185 q 582 143 567 158 q 615 127 597 127 q 649 138 626 127 l 649 131 q 615 63 649 94 q 590 53 600 53 q 592 37 592 46 l 592 29 q 554 -38 592 -4 q 545 -8 549 -18 q 483 25 540 5 q 413 94 442 44 q 412 95 413 95 l 408 95 q 338 31 370 46 q 230 0 280 0 l 225 0 q 74 78 128 0 q 43 164 59 102 q 10 212 33 189 q 0 221 0 219 q 56 274 52 261 q 105 354 74 316 q 196 416 147 394 q 329 454 288 451 q 386 461 337 457 l 386 468 q 372 564 386 560 q 332 590 364 580 q 300 594 322 592 q 171 549 232 594 q 149 500 149 527 l 148 500 q 114 526 128 506 q 105 561 105 545 q 111 582 105 572 q 37 626 69 582 q 31 642 32 635 l 32 643 q 50 639 42 639 l 57 639 q 109 667 69 639 q 301 714 187 714 m 221 257 q 260 221 221 239 l 260 219 q 219 179 219 201 q 237 148 220 166 q 277 131 257 131 l 286 131 q 371 207 349 131 q 376 249 376 231 l 376 357 l 375 357 q 255 307 307 347 q 221 257 221 274 "},"T":{"x_min":0,"x_max":857.28125,"ha":909,"o":"m 425 999 q 517 961 472 964 q 727 954 526 954 q 845 980 811 954 l 849 980 q 853 944 853 954 q 823 866 853 902 q 857 796 857 843 l 857 781 q 849 752 857 765 q 765 777 814 777 l 742 777 q 718 775 722 777 q 686 777 701 777 l 538 777 l 538 587 q 576 491 538 507 q 586 484 586 485 q 538 382 538 453 l 548 208 l 548 165 q 578 42 548 84 q 610 3 590 24 l 610 1 q 562 -6 585 -6 l 544 -6 q 436 34 471 -6 q 339 -8 407 -8 l 320 -8 q 252 3 288 -8 l 252 4 q 324 153 324 55 l 324 203 q 315 379 324 223 q 265 484 315 447 q 315 575 315 529 l 315 777 l 202 777 q 103 778 165 777 q 11 746 45 778 q 2 784 2 758 l 2 796 q 33 876 2 851 q 0 961 0 924 l 0 977 q 6 996 0 994 q 124 955 63 955 l 259 955 q 425 999 389 955 "},"=":{"x_min":0,"x_max":0,"ha":751},"N":{"x_min":0,"x_max":899.328125,"ha":845,"o":"m 70 981 l 86 981 q 298 866 201 981 q 406 674 336 812 l 552 402 l 558 402 q 520 499 558 480 l 520 500 q 551 565 551 531 q 549 732 549 631 l 549 882 q 518 965 549 931 l 518 967 q 565 974 544 974 l 575 974 q 646 948 617 974 q 728 975 680 975 q 776 965 758 975 q 744 864 744 923 l 744 579 q 797 500 744 525 l 797 497 q 757 462 777 497 q 744 389 744 433 l 744 345 q 784 37 744 134 q 870 -95 809 -31 l 899 -121 l 899 -124 l 897 -124 q 866 -126 875 -126 l 846 -126 q 613 -19 735 -126 q 515 104 537 60 q 276 552 358 376 q 241 629 244 626 l 236 629 l 236 628 q 237 592 236 616 q 236 583 236 584 q 272 507 236 552 q 282 499 282 500 q 238 394 238 466 q 240 370 240 374 q 248 62 240 62 q 276 1 252 33 l 276 0 l 275 0 q 236 -4 252 -4 l 225 -4 q 143 20 174 -4 q 70 -8 122 -8 l 61 -8 q 23 0 35 -8 q 49 68 49 33 q 48 178 48 137 l 48 383 q 0 499 48 457 q 48 597 48 527 l 48 868 q 16 968 48 923 l 16 971 q 70 981 47 981 "},"2":{"x_min":0,"x_max":674.15625,"ha":751,"o":"m 345 976 l 361 976 q 605 864 513 976 q 659 704 659 789 l 659 695 q 592 507 659 591 q 522 408 522 444 l 522 400 q 535 364 522 387 l 534 364 q 495 374 510 374 l 484 374 q 407 330 451 374 q 286 211 286 233 l 286 206 q 322 186 286 189 l 611 186 q 662 206 636 186 l 664 206 l 664 201 q 639 106 664 122 q 674 41 674 76 l 674 28 q 664 0 674 12 q 622 16 642 16 l 620 16 q 543 14 551 14 l 264 14 q 198 12 246 14 q 158 35 176 12 q 111 9 137 13 q 28 2 84 2 l 13 2 l 13 3 q 54 52 44 23 q 73 156 63 124 q 181 342 88 235 q 291 452 211 375 q 305 495 305 470 q 298 557 305 512 l 299 557 q 330 552 319 552 q 427 588 417 558 q 464 692 464 637 l 464 702 q 409 809 464 771 q 349 825 381 825 q 210 706 247 825 q 208 682 208 688 l 208 676 q 214 629 208 653 q 210 628 211 628 q 139 676 176 628 q 124 718 124 703 q 103 715 116 716 q 8 744 59 715 q 0 756 0 752 q 94 847 54 777 q 345 976 185 976 "},"j":{"x_min":-108.515625,"x_max":262.46875,"ha":296,"o":"m 129 951 l 134 951 q 225 896 193 951 q 231 865 231 877 q 170 786 231 813 q 134 779 149 779 l 129 779 q 38 834 71 779 q 32 865 32 853 q 82 940 32 912 q 129 951 104 951 m 50 685 q 137 653 104 685 q 213 676 166 676 q 254 671 229 676 l 254 669 q 222 565 222 627 l 222 446 q 260 362 222 377 l 262 360 q 222 267 222 337 l 222 -44 q 152 -190 222 -147 q 86 -221 129 -208 q -18 -233 62 -226 q -105 -271 -73 -244 q -108 -239 -108 -257 l -108 -228 q -82 -155 -108 -183 q -105 -95 -105 -122 l -105 -85 q -90 -35 -105 -65 l -88 -35 q -46 -65 -83 -50 q -21 -69 -30 -69 l -14 -69 q 38 -23 22 -69 q 42 8 42 -6 l 42 224 q 43 286 42 246 q 4 360 43 335 q 43 442 43 389 q 42 480 42 465 l 42 577 q -2 672 42 630 q 50 685 18 685 "},"Z":{"x_min":0,"x_max":961.046875,"ha":992,"o":"m 183 1002 q 265 971 210 971 l 579 971 q 682 973 618 971 q 768 930 759 969 q 769 925 768 930 q 848 948 808 948 l 854 948 q 961 901 927 948 q 934 889 961 899 q 838 794 876 864 q 659 526 700 590 q 649 491 649 505 l 649 481 q 671 414 649 459 q 600 399 622 409 q 499 288 554 380 q 453 212 453 224 l 453 206 q 476 185 453 190 l 741 185 q 846 223 794 185 q 852 187 852 211 q 816 92 852 136 q 847 48 834 84 q 856 -8 856 14 q 850 -35 855 -35 q 748 3 817 3 l 293 3 q 223 33 240 3 q 219 44 219 42 q 130 4 193 4 l 121 4 q 1 31 51 4 l 0 33 l 0 35 q 156 162 86 35 q 360 460 171 185 q 376 510 376 483 q 355 592 376 539 l 355 594 q 395 586 371 590 q 501 662 459 586 q 562 757 562 746 q 564 767 562 758 q 534 794 564 794 l 301 794 q 185 765 206 794 l 183 765 q 170 805 170 786 l 170 815 q 198 893 170 855 q 171 960 171 920 l 171 969 q 183 1002 171 990 "},"u":{"x_min":0,"x_max":595.484375,"ha":636,"o":"m 187 701 l 200 701 q 231 691 214 701 l 231 689 q 206 622 206 655 q 206 621 206 622 q 206 563 206 584 l 206 466 q 206 421 206 448 q 244 359 206 381 l 244 358 l 225 347 q 206 292 206 330 q 206 267 206 278 l 206 244 q 236 165 206 181 q 269 158 250 158 q 377 219 312 158 q 381 242 381 219 l 381 268 q 356 356 381 343 q 352 357 352 357 l 352 359 q 381 425 381 374 q 380 442 381 434 q 381 543 381 488 l 381 550 q 369 649 381 633 q 345 679 364 661 l 345 680 q 396 690 366 690 q 461 669 442 690 q 536 693 481 693 q 581 685 578 691 q 553 602 553 661 q 554 575 554 586 l 554 484 q 553 411 554 460 q 567 379 555 396 q 595 358 579 369 l 595 356 q 563 318 577 350 q 553 259 553 285 q 554 113 554 179 l 554 86 q 583 5 554 35 q 542 -8 569 -8 l 531 -8 q 471 18 491 -8 q 407 -6 446 -6 l 399 -6 q 364 1 368 -4 q 396 98 396 27 l 396 143 l 391 143 q 332 61 369 98 q 239 7 283 16 q 201 2 229 4 q 61 92 100 2 q 33 214 33 153 l 33 238 q 0 356 33 347 l 0 358 q 33 431 33 379 q 33 476 33 458 l 33 589 q 15 672 33 656 l 8 680 l 8 680 q 52 693 29 693 l 59 693 q 118 665 98 693 q 167 698 130 687 q 187 701 179 701 "},"1":{"x_min":0,"x_max":470.015625,"ha":517,"o":"m 8 994 q 43 971 14 982 q 57 969 46 971 q 181 971 137 971 l 223 971 q 295 953 280 971 q 299 943 299 944 q 344 967 321 965 q 423 971 373 971 l 425 971 q 427 969 427 971 q 402 913 402 946 l 402 638 q 443 518 402 543 l 444 516 q 402 408 402 484 l 402 160 q 459 25 402 50 q 470 23 467 23 l 470 20 q 408 2 446 2 l 395 2 q 305 42 343 2 q 206 0 271 0 l 185 0 q 107 18 143 0 l 107 19 q 137 31 107 21 q 202 113 182 58 q 211 195 211 138 l 211 423 q 185 501 211 485 q 167 518 185 503 l 193 537 q 211 592 211 557 l 211 773 q 189 812 211 800 q 155 817 182 817 l 107 817 q 14 800 31 817 q 10 797 14 799 q 2 837 2 815 q 29 897 2 878 l 29 898 q 0 959 0 919 l 0 965 q 8 994 2 994 "},"k":{"x_min":0,"x_max":728.40625,"ha":678,"o":"m 36 970 l 46 970 q 139 938 99 970 q 139 937 139 937 q 179 959 158 956 q 223 965 200 965 l 236 965 q 268 958 258 965 q 225 851 225 920 l 225 424 q 274 440 261 430 q 324 530 299 466 q 383 659 383 643 q 385 674 385 672 q 378 708 385 685 l 383 708 q 475 660 438 708 q 480 647 480 647 q 519 657 499 657 l 530 657 q 591 617 569 657 l 591 616 q 527 567 545 600 q 427 382 427 385 q 503 247 497 254 q 545 236 518 236 l 545 233 q 537 204 537 221 q 573 121 537 177 q 656 -11 608 51 q 728 -76 699 -57 l 728 -78 q 647 -81 666 -81 l 633 -81 q 450 2 526 -81 q 398 80 409 49 q 352 132 378 124 q 318 140 333 140 l 318 141 q 334 180 334 158 q 306 255 334 208 q 239 316 274 316 q 225 313 235 316 l 225 191 q 224 92 225 151 q 251 6 224 27 l 251 5 q 201 -6 223 -6 l 196 -6 q 130 19 155 -6 q 59 -6 109 -6 q 16 6 19 -4 q 46 111 46 37 l 46 242 q 0 358 46 339 l 0 360 q 46 479 46 375 l 46 856 q 3 961 46 922 l 3 963 q 36 970 18 970 "},"<":{"x_min":0,"x_max":0,"ha":751},"t":{"x_min":0,"x_max":455.09375,"ha":491,"o":"m 118 964 l 132 964 q 204 941 174 964 q 277 963 227 963 l 284 963 q 320 959 300 963 l 320 957 q 294 887 294 929 l 294 710 l 364 710 q 425 736 401 710 q 436 699 436 720 q 416 643 436 667 l 416 642 q 436 594 436 628 l 436 585 q 432 559 436 574 l 431 559 q 377 577 415 577 l 294 577 l 294 437 q 333 360 294 374 l 333 358 q 294 286 294 343 l 294 201 q 325 155 294 164 q 384 147 348 147 q 444 181 411 147 q 455 141 455 164 l 455 135 q 434 74 455 97 q 455 23 455 53 l 455 13 q 446 -20 455 -6 q 382 2 423 2 q 320 -1 350 0 q 129 98 168 -1 q 113 192 113 131 l 113 299 q 75 359 113 333 q 113 443 113 381 l 113 577 l 63 577 q 9 558 25 577 l 7 558 q 0 592 0 580 q 23 648 0 631 q 0 699 0 675 l 0 707 q 7 729 0 720 l 8 729 q 61 710 24 710 l 113 710 l 113 872 q 80 955 113 927 q 118 964 97 964 "},"W":{"x_min":0,"x_max":1171.96875,"ha":1221,"o":"m 426 1034 l 436 1034 q 664 944 607 1034 q 701 880 682 925 q 774 579 731 815 l 813 392 l 817 392 q 832 450 819 392 q 844 520 844 497 l 844 522 q 817 592 844 556 l 817 593 q 843 602 819 595 q 878 654 865 614 l 928 895 q 929 918 929 908 q 914 996 929 954 q 942 999 921 999 q 1032 936 1011 999 q 1103 951 1065 951 q 1171 929 1151 951 l 1171 927 q 1116 838 1136 903 q 1066 614 1066 640 l 1066 599 q 1100 520 1066 554 q 1015 416 1042 487 q 933 74 942 123 l 933 64 q 990 -103 940 -23 q 996 -111 991 -103 l 996 -113 l 980 -113 q 832 -63 909 -113 q 721 97 755 -7 q 609 560 641 393 q 605 583 605 580 l 600 583 q 479 53 479 59 l 479 40 q 500 -4 479 20 q 424 -16 466 -16 l 419 -16 q 349 12 374 -16 q 270 -17 312 -17 q 218 -2 239 -17 q 231 41 231 11 q 181 276 231 73 q 139 452 145 433 q 76 522 134 474 q 110 604 110 550 q 71 788 110 632 q 34 883 68 822 q 0 927 34 888 q 67 948 18 940 l 75 948 q 131 931 105 948 q 204 996 131 967 q 231 999 221 999 l 240 999 q 259 996 245 999 l 259 996 q 240 944 240 979 q 285 700 245 891 q 309 612 297 632 q 356 572 324 584 l 356 571 q 325 507 325 539 q 343 403 330 467 l 349 403 q 381 535 352 403 q 463 907 463 883 q 465 916 465 913 q 426 1032 465 986 l 426 1034 "},"v":{"x_min":0,"x_max":583.265625,"ha":610,"o":"m 209 701 q 225 697 223 701 q 209 644 209 676 q 231 542 209 619 q 257 516 240 525 l 274 510 q 255 459 255 486 q 288 318 255 443 l 293 318 q 325 456 325 449 q 326 459 325 458 q 309 503 326 480 l 309 506 q 341 529 330 512 q 359 585 352 548 q 372 647 372 630 l 372 649 q 357 698 372 677 l 357 700 q 370 701 366 701 l 382 701 q 453 671 419 701 q 469 643 468 654 q 513 657 486 657 l 515 657 q 583 630 556 657 q 554 613 567 621 q 525 569 533 591 q 508 488 508 507 q 529 446 508 463 q 490 417 501 437 q 452 287 478 399 q 397 75 404 115 l 397 73 q 436 21 397 46 q 370 2 420 2 q 293 29 317 2 q 244 4 277 12 q 204 0 220 0 l 191 0 q 149 13 165 0 q 181 47 172 31 q 189 74 189 65 q 150 220 189 86 q 93 418 99 402 q 50 442 78 442 l 50 443 q 70 491 70 467 q 46 575 70 521 q 0 617 25 607 l 0 618 q 64 642 14 642 l 67 642 q 120 631 95 642 l 120 632 q 142 672 124 651 q 209 701 174 701 "},">":{"x_min":0,"x_max":0,"ha":751},"s":{"x_min":0,"x_max":488.328125,"ha":543,"o":"m 244 709 l 267 709 q 404 674 332 709 q 466 658 438 658 q 487 661 475 658 q 488 660 487 660 q 455 599 478 617 q 427 589 440 589 l 420 589 l 420 588 q 423 570 423 578 q 386 504 423 533 l 380 502 l 379 502 q 346 550 379 521 q 255 581 301 581 q 188 549 205 581 q 184 528 184 537 q 261 455 184 484 q 326 433 303 433 q 375 445 343 433 q 374 431 374 436 l 374 429 q 419 363 374 394 q 488 205 488 299 l 488 193 q 358 0 488 60 q 257 -21 303 -21 l 244 -21 q 76 22 163 -21 q 27 31 50 31 l 24 31 q 0 28 12 31 l 0 30 l 0 38 q 44 107 0 71 q 69 117 58 117 l 78 117 l 78 118 q 73 139 73 125 l 73 142 q 109 208 73 185 q 120 210 116 210 q 143 158 126 177 q 245 113 184 113 l 252 113 q 319 163 305 113 q 320 171 320 166 l 320 177 q 248 242 320 220 q 237 243 243 243 q 204 229 219 243 l 204 229 l 204 241 q 160 301 204 286 q 108 327 116 315 q 50 386 79 346 q 21 484 21 435 l 21 491 q 21 494 21 493 q 21 497 21 495 l 21 502 q 93 657 21 592 q 244 709 158 709 "},"B":{"x_min":0,"x_max":754.1875,"ha":746,"o":"m 59 973 l 69 973 q 161 937 131 973 q 288 972 182 972 q 548 951 506 972 q 660 862 618 928 q 694 769 678 831 q 729 729 704 743 q 676 623 701 707 q 589 527 649 556 q 563 519 565 519 l 563 513 q 647 471 595 513 q 701 385 693 421 q 734 307 715 320 q 754 293 754 294 q 718 257 726 279 l 705 192 q 600 52 678 107 q 396 11 537 11 q 276 9 385 11 q 178 40 192 9 l 178 42 q 88 0 145 0 l 71 0 q 11 9 47 0 l 11 10 q 58 105 58 40 l 58 352 q 6 484 58 459 q 0 489 0 487 l 0 491 q 58 632 58 518 l 58 865 q 19 966 58 941 l 18 966 l 18 969 q 59 973 39 973 m 347 822 l 303 822 q 265 781 269 822 l 265 580 q 438 597 405 580 q 474 632 463 609 q 486 673 486 658 q 453 716 486 701 l 453 718 q 478 755 478 739 l 478 756 q 443 805 478 778 q 370 823 412 823 q 347 822 357 822 m 265 432 l 265 215 q 295 165 265 179 q 317 163 304 163 l 337 163 q 458 189 434 163 q 496 252 496 219 l 496 257 q 467 299 496 280 l 467 302 q 499 339 499 317 q 465 406 499 371 q 414 425 439 425 q 291 432 385 432 l 265 432 "},"?":{"x_min":0,"x_max":647.703125,"ha":678,"o":"m 357 987 l 373 987 q 579 917 490 987 q 647 760 647 855 l 647 744 q 536 541 647 652 q 526 510 526 528 q 534 467 526 499 l 521 467 q 454 448 466 466 q 425 360 425 401 l 425 351 q 424 347 425 349 q 425 344 425 346 l 425 343 q 470 247 425 286 l 470 246 l 432 246 q 330 283 360 246 q 241 245 283 245 l 233 245 q 206 252 215 245 l 206 253 q 233 318 224 275 q 246 425 237 339 q 271 497 258 472 q 304 580 304 546 q 295 621 304 600 l 297 622 l 311 622 q 349 621 326 622 q 417 692 372 621 q 432 741 432 723 l 432 747 q 375 825 432 807 q 341 829 360 829 q 244 758 285 829 q 227 688 227 723 l 229 665 q 229 664 229 665 q 176 701 204 674 q 145 763 151 729 q 102 757 118 757 l 96 757 q 93 756 94 757 q 90 757 92 757 l 84 757 q 0 792 25 757 q 0 793 0 792 q 12 791 5 791 q 80 852 47 791 q 357 987 171 987 m 337 203 l 344 203 q 440 137 406 203 q 446 101 446 118 l 446 93 q 381 -2 446 31 q 344 -8 361 -8 l 337 -8 q 241 56 275 -8 q 234 93 234 76 l 234 101 q 300 196 234 162 q 337 203 320 203 "},"H":{"x_min":0,"x_max":801.65625,"ha":840,"o":"m 538 985 l 552 985 q 640 946 607 985 q 689 975 651 963 q 729 981 701 978 q 789 963 769 981 q 751 897 765 945 q 748 872 748 883 l 748 753 q 745 619 748 717 q 801 488 745 522 l 801 487 q 761 449 775 474 q 746 359 746 413 q 748 314 748 330 l 748 105 q 787 21 748 54 q 729 0 756 0 l 716 0 q 644 27 678 0 q 575 2 618 2 q 499 16 524 2 q 538 111 538 49 l 538 381 q 524 429 538 417 q 484 436 512 436 q 409 395 435 436 l 405 395 q 337 436 385 436 q 278 414 290 436 q 273 333 273 399 q 274 227 273 275 q 273 95 273 178 q 311 8 273 35 q 261 -2 297 -2 l 258 -2 q 166 32 192 -2 l 166 33 l 165 33 q 87 -2 137 -2 l 73 -2 q 22 10 50 -2 l 22 12 q 61 84 61 48 q 63 350 63 254 l 63 388 q 10 487 63 455 q 0 491 2 491 l 0 493 l 20 505 q 63 687 63 547 l 63 872 q 12 969 63 937 l 12 971 q 69 981 39 981 q 164 948 141 981 q 258 982 193 982 l 259 982 q 321 968 297 982 l 321 967 q 292 929 305 954 q 273 869 273 887 l 273 721 q 271 631 273 679 q 301 596 271 605 q 322 593 314 593 l 339 593 q 411 631 393 593 l 413 631 q 473 593 427 593 l 490 593 q 535 641 535 593 l 535 869 q 476 966 535 923 q 538 985 502 985 "},"c":{"x_min":0,"x_max":584.625,"ha":610,"o":"m 288 710 l 310 710 q 522 585 465 710 q 533 527 525 576 q 553 491 539 506 q 564 480 553 490 q 522 464 549 464 q 467 495 486 464 l 466 495 q 414 467 438 467 l 404 467 q 366 480 389 467 q 377 513 377 503 q 378 520 377 514 q 341 561 378 549 q 316 564 316 564 q 238 516 259 564 q 228 443 228 489 l 228 429 q 227 417 228 423 q 266 362 227 381 l 266 362 q 228 290 228 339 l 228 231 q 264 130 228 149 q 307 121 286 121 l 324 121 q 389 168 368 121 q 392 182 392 175 q 368 220 392 202 q 412 231 389 231 l 414 231 q 472 204 451 231 q 537 231 494 231 q 584 220 564 231 l 584 219 q 548 164 562 205 q 522 76 535 96 q 317 -22 464 -22 l 293 -22 q 67 115 130 -22 q 42 282 42 168 l 42 290 q 0 360 42 328 l 0 363 q 42 415 42 383 q 174 687 44 626 q 288 710 226 710 "},"&":{"x_min":54.265625,"x_max":1821.03125,"ha":1899,"o":"m 793 1082 l 796 1082 q 798 1079 798 1082 l 798 1072 q 779 1018 798 1048 q 793 1013 787 1013 q 804 1019 798 1013 q 826 1008 813 1019 l 826 999 q 838 985 828 999 l 839 985 l 851 986 l 869 977 q 883 943 874 977 q 885 947 885 943 q 881 956 881 954 l 884 958 l 885 958 q 888 954 888 958 q 893 955 889 954 q 902 948 895 955 q 911 952 908 952 q 929 920 925 934 q 934 918 931 918 q 937 923 934 921 q 952 916 950 918 q 954 917 952 917 q 966 906 954 914 q 982 894 967 900 q 990 890 982 891 l 990 886 l 994 889 l 996 889 q 1011 883 996 883 q 1047 866 1028 866 q 1053 864 1047 864 l 1060 865 q 1076 857 1066 860 l 1079 858 l 1081 858 q 1099 849 1092 858 l 1104 849 q 1118 883 1118 882 l 1117 893 q 1130 900 1117 898 q 1161 936 1130 902 l 1161 940 q 1136 954 1152 940 q 1159 961 1143 961 l 1162 959 l 1165 961 q 1193 931 1193 947 q 1214 865 1207 917 q 1227 850 1214 859 l 1230 851 q 1279 839 1230 846 q 1330 827 1295 832 q 1331 828 1331 827 q 1343 826 1343 827 l 1346 827 q 1347 826 1347 827 q 1351 827 1350 827 l 1358 826 q 1359 827 1358 827 l 1358 830 q 1365 835 1365 833 q 1380 854 1378 843 q 1389 866 1385 854 l 1393 866 l 1393 868 l 1392 870 l 1395 870 l 1397 869 q 1433 908 1397 874 q 1445 917 1445 915 l 1452 917 q 1476 906 1455 914 l 1476 905 q 1465 889 1473 905 l 1469 886 q 1472 889 1469 889 q 1502 883 1474 887 q 1526 866 1520 878 q 1532 857 1526 865 q 1550 862 1547 862 l 1551 859 q 1577 865 1557 862 q 1591 859 1591 862 q 1595 862 1595 861 q 1658 845 1656 849 q 1688 831 1658 841 q 1741 797 1724 810 q 1754 785 1741 795 q 1757 788 1755 788 l 1758 788 q 1784 758 1758 774 q 1803 687 1797 735 q 1807 678 1807 686 q 1806 677 1806 678 q 1818 626 1810 636 l 1816 619 q 1818 607 1818 611 q 1816 605 1816 607 q 1819 602 1819 604 l 1819 601 q 1818 596 1819 598 q 1819 590 1819 593 l 1816 590 l 1819 586 l 1819 585 l 1816 585 l 1816 574 q 1818 569 1816 571 q 1816 563 1816 567 q 1821 560 1821 563 q 1815 533 1821 548 q 1818 516 1818 520 l 1816 516 l 1818 502 l 1818 493 l 1819 486 q 1816 484 1816 486 l 1816 461 q 1818 455 1816 457 q 1816 454 1818 454 q 1819 439 1819 442 l 1818 434 l 1819 425 l 1818 425 q 1819 424 1818 424 q 1818 420 1819 423 q 1819 398 1819 406 l 1815 396 l 1814 396 l 1814 398 q 1808 443 1814 406 q 1810 444 1810 443 l 1808 444 q 1806 442 1806 444 l 1806 431 q 1811 400 1806 407 q 1807 382 1810 382 l 1806 385 l 1806 389 q 1802 390 1803 390 q 1797 389 1799 389 l 1797 385 q 1810 368 1797 376 l 1810 367 l 1808 364 q 1811 362 1811 364 q 1807 322 1807 341 l 1807 317 l 1808 310 q 1804 306 1806 310 l 1806 298 q 1803 290 1803 294 l 1803 288 q 1800 240 1800 244 q 1802 231 1802 236 l 1800 231 q 1799 212 1800 220 q 1800 163 1800 187 l 1800 156 q 1806 139 1806 151 q 1784 93 1806 118 q 1774 63 1782 88 q 1765 48 1768 57 l 1758 47 l 1757 50 l 1751 46 l 1749 47 l 1743 44 q 1727 46 1730 46 l 1715 44 q 1698 51 1703 46 q 1695 48 1698 48 l 1692 50 q 1687 48 1690 48 l 1687 50 q 1710 105 1687 61 q 1714 103 1712 103 q 1731 122 1728 103 l 1731 137 l 1728 137 l 1728 130 q 1724 126 1728 128 l 1723 126 q 1726 144 1725 141 q 1724 145 1724 144 l 1726 145 l 1724 148 l 1724 151 l 1726 153 l 1723 153 l 1723 156 l 1727 162 l 1727 175 l 1722 171 q 1721 179 1721 173 l 1719 179 l 1709 128 l 1706 128 l 1706 130 q 1711 196 1706 141 l 1711 198 l 1710 198 q 1709 190 1709 191 l 1706 190 l 1706 208 q 1695 151 1698 208 q 1696 147 1696 148 q 1690 144 1693 144 l 1690 143 l 1688 126 l 1686 126 l 1686 151 q 1695 197 1686 158 q 1691 202 1693 197 q 1696 238 1696 230 q 1695 242 1695 240 l 1694 242 q 1686 225 1694 235 l 1684 228 q 1691 258 1690 255 q 1688 261 1688 258 l 1688 262 q 1695 284 1695 281 l 1694 305 q 1700 347 1695 322 l 1700 348 q 1698 351 1700 351 q 1692 344 1698 344 l 1694 337 q 1686 332 1691 332 l 1690 326 q 1683 306 1686 323 q 1668 284 1673 288 l 1665 285 l 1642 242 q 1622 206 1639 239 q 1615 190 1619 206 q 1595 126 1607 179 q 1596 122 1596 124 q 1584 94 1591 122 q 1559 74 1572 80 q 1540 33 1556 69 q 1503 25 1535 25 q 1498 27 1498 27 l 1490 25 q 1458 37 1458 29 q 1499 94 1473 71 q 1507 102 1507 94 q 1522 118 1514 102 q 1535 144 1527 118 q 1558 191 1542 145 q 1587 242 1580 215 q 1597 273 1591 242 l 1597 316 q 1574 400 1597 342 q 1566 427 1571 421 l 1568 434 q 1549 506 1562 470 q 1538 498 1547 506 l 1535 498 q 1502 516 1517 516 q 1456 486 1502 502 q 1410 461 1410 462 l 1408 458 l 1403 461 l 1403 454 q 1407 440 1407 442 q 1405 435 1407 440 q 1411 432 1411 435 l 1411 431 l 1408 431 l 1408 430 l 1410 427 l 1407 425 q 1410 417 1410 421 l 1410 404 q 1384 397 1408 400 q 1374 412 1384 400 q 1361 446 1368 446 q 1323 440 1323 444 l 1317 442 l 1285 442 q 1254 446 1273 442 l 1258 432 l 1258 411 q 1247 393 1258 398 q 1233 387 1247 392 q 1211 348 1233 370 l 1188 348 q 1167 392 1167 360 l 1167 394 l 1169 394 q 1167 398 1167 397 l 1169 401 q 1167 406 1167 403 q 1169 408 1169 406 q 1166 411 1166 408 q 1171 431 1169 414 l 1167 434 l 1163 434 q 1155 431 1161 431 l 1155 415 l 1158 411 q 1157 409 1158 409 l 1158 406 l 1158 401 q 1171 343 1158 395 l 1181 306 q 1192 280 1191 291 q 1188 235 1188 249 l 1188 224 q 1218 111 1188 211 l 1218 102 q 1193 69 1218 89 q 1192 61 1192 61 q 1197 42 1197 47 l 1190 35 l 1188 36 q 1176 28 1188 28 l 1176 31 q 1181 33 1181 31 q 1176 35 1178 33 q 1165 21 1173 35 q 1159 17 1159 21 q 1139 16 1157 17 q 1115 25 1115 18 q 1129 47 1121 39 q 1147 70 1133 70 l 1157 85 q 1155 96 1155 92 q 1158 120 1155 101 q 1157 152 1157 137 l 1158 152 q 1154 166 1154 164 q 1157 172 1157 170 q 1147 215 1152 180 q 1121 277 1126 271 l 1121 278 q 1122 280 1121 280 q 1102 326 1116 298 l 1098 336 q 1099 341 1099 339 q 1074 393 1093 350 q 1066 409 1072 394 q 1060 389 1062 409 q 1064 362 1061 369 q 1053 254 1053 331 q 1038 205 1045 254 q 1039 201 1038 204 q 1032 109 1034 154 q 1007 78 1032 105 q 1003 59 1003 62 l 1000 59 l 1000 62 l 999 62 q 984 55 994 55 q 989 48 989 49 l 988 48 l 982 52 q 980 50 980 52 q 981 48 981 50 l 973 47 q 971 48 973 48 q 970 44 971 47 l 973 44 l 973 43 q 970 40 973 40 q 966 42 969 40 l 946 39 q 922 50 922 42 q 921 55 921 52 q 930 70 926 55 q 950 94 940 86 q 970 102 950 96 q 985 134 985 113 q 996 190 988 134 l 996 204 q 1000 217 996 208 q 989 286 996 249 q 990 309 990 302 q 973 462 990 367 q 943 489 973 463 q 919 522 923 509 l 921 522 q 911 556 914 535 q 903 582 908 556 l 902 582 l 903 592 l 903 597 q 899 627 903 603 l 900 627 q 885 647 900 629 q 855 684 863 670 q 820 740 845 694 q 804 770 813 748 q 794 782 799 778 l 794 788 l 790 788 q 782 781 790 786 q 746 746 750 746 q 751 728 751 735 l 751 727 q 737 698 748 711 l 735 698 l 735 701 q 739 714 739 713 l 727 714 q 719 695 725 714 q 708 699 708 697 l 708 701 l 710 708 q 703 701 708 708 q 706 691 706 695 l 700 684 q 685 681 697 684 q 684 682 685 682 l 635 644 q 616 628 635 641 q 612 620 616 625 q 619 615 618 617 l 619 611 q 609 598 619 598 q 566 567 589 573 q 518 461 543 524 q 476 363 507 427 q 447 289 472 344 q 443 278 444 289 l 431 259 q 425 257 431 257 l 427 254 q 398 213 413 238 q 406 155 401 155 q 404 148 404 151 l 416 102 q 413 98 415 98 l 415 96 l 415 94 q 409 88 411 88 q 413 77 413 81 l 413 71 l 412 63 q 430 37 425 47 l 436 39 q 448 29 447 33 l 448 23 q 402 14 448 19 l 375 24 q 360 23 366 23 l 356 23 q 351 24 354 23 q 346 23 349 23 l 342 23 l 337 32 l 330 32 l 311 58 q 322 107 311 65 l 322 109 q 311 153 318 153 q 307 166 309 153 l 308 168 q 297 209 303 179 q 254 239 285 212 q 238 247 251 239 q 229 194 234 196 q 232 187 232 190 q 221 177 231 187 q 223 159 223 173 l 220 159 q 227 140 220 140 q 225 132 225 133 q 232 82 232 119 q 238 59 233 82 l 235 52 l 239 44 q 231 21 238 30 q 205 14 225 14 q 208 4 208 10 l 202 0 l 158 0 q 149 6 149 4 l 149 21 q 138 35 149 26 l 137 48 q 147 82 141 48 l 147 90 q 135 155 142 90 l 135 168 l 134 168 q 111 163 128 168 l 111 164 q 104 162 106 162 l 82 174 q 63 246 71 188 q 71 389 67 360 q 69 400 69 394 l 69 408 q 90 459 69 433 l 92 459 l 89 472 q 90 484 90 478 l 90 485 q 71 558 84 539 q 59 590 63 564 q 61 608 61 599 l 61 613 q 54 626 54 621 q 56 628 56 626 l 56 636 q 61 666 61 654 l 61 678 q 65 701 65 693 q 63 709 65 702 q 90 827 80 796 q 131 873 101 855 q 145 883 145 882 l 145 889 q 142 897 145 893 q 155 906 144 900 q 166 914 157 911 q 186 939 170 929 q 189 944 189 942 q 166 971 189 957 q 145 1000 151 987 l 142 999 l 141 999 l 141 1000 q 153 1035 147 1035 l 153 1042 q 204 1062 168 1051 q 244 1079 221 1079 q 278 1070 278 1076 q 292 1061 286 1062 q 315 1045 292 1052 q 354 1008 332 1037 l 354 994 q 309 946 341 963 q 277 927 277 935 l 282 927 q 278 917 278 920 l 282 920 q 288 917 286 917 l 288 914 l 286 912 l 289 912 l 289 910 q 285 906 289 908 l 286 904 q 266 886 271 886 q 251 859 259 879 q 227 843 242 843 q 217 839 217 841 q 223 838 221 839 l 236 843 q 240 841 240 842 l 247 845 l 251 842 q 281 862 255 842 q 285 864 282 862 q 286 862 285 862 q 293 868 286 868 l 292 870 l 292 873 l 295 877 l 293 886 l 297 889 q 322 877 303 883 l 324 873 q 323 872 323 873 q 347 858 347 872 q 363 836 357 851 q 375 819 373 830 q 385 809 377 819 l 382 808 q 385 801 385 803 l 382 800 q 374 815 374 813 l 373 815 l 373 809 q 375 807 375 809 l 375 803 q 379 796 379 803 l 385 800 q 389 792 389 798 l 389 790 q 385 794 388 790 q 381 793 382 793 l 381 789 l 382 789 l 382 792 l 385 792 q 387 788 387 792 l 390 789 q 397 781 390 787 l 397 778 l 396 778 l 392 781 q 387 779 389 779 l 389 777 l 389 774 l 387 774 l 383 777 l 382 777 l 382 775 q 387 773 384 775 l 390 773 q 400 777 390 777 q 405 762 405 770 l 405 759 q 434 716 414 754 q 457 691 434 704 l 458 689 l 461 690 l 463 690 q 467 681 463 688 l 470 682 q 482 676 482 679 l 485 677 q 492 674 489 674 l 492 673 q 485 669 492 669 l 485 666 l 486 666 q 493 672 493 672 l 495 672 q 497 669 497 671 l 497 668 q 495 665 497 665 l 492 666 l 491 663 q 507 655 499 663 q 511 657 510 657 l 512 654 l 511 651 q 538 636 531 643 q 550 635 545 635 l 575 644 l 579 644 q 583 639 579 642 q 594 662 591 639 l 592 680 q 586 670 591 680 q 578 665 583 670 q 575 668 575 665 l 575 669 q 582 694 582 693 l 582 704 q 579 735 582 720 q 581 740 581 737 q 564 752 575 752 q 545 762 545 754 l 542 765 l 543 771 l 543 778 q 535 792 535 790 q 538 800 535 794 q 535 804 535 800 q 555 858 555 852 q 564 866 560 864 q 575 880 564 873 q 602 920 575 885 q 615 935 604 920 q 634 959 628 945 q 687 1011 640 961 q 697 1023 694 1011 q 711 1031 710 1028 q 703 1038 703 1036 l 703 1039 q 734 1051 734 1043 q 750 1047 739 1051 q 793 1082 782 1071 m 242 1076 l 242 1074 l 244 1074 l 244 1076 l 242 1076 m 248 1074 l 248 1069 q 254 1074 250 1069 l 252 1074 l 250 1073 q 248 1074 250 1074 m 244 1073 l 244 1072 l 247 1072 l 247 1073 l 244 1073 m 266 1069 l 270 1069 l 270 1072 l 269 1072 q 266 1069 266 1071 m 270 1066 l 270 1064 l 271 1064 l 271 1066 l 270 1066 m 1163 925 q 1165 924 1165 925 q 1138 898 1155 918 l 1150 900 l 1162 898 q 1173 916 1169 898 l 1174 916 q 1169 929 1169 928 q 1163 925 1163 927 m 278 914 q 281 912 278 912 l 282 914 l 278 914 m 262 890 l 263 890 q 274 906 274 897 l 277 906 l 280 905 l 282 909 l 281 909 q 280 908 281 908 l 280 910 q 262 890 267 910 m 289 895 l 292 895 q 295 893 295 895 q 288 890 291 890 l 289 887 l 281 881 l 280 881 l 280 883 q 282 889 282 887 q 281 893 281 891 l 284 893 l 286 891 q 289 895 286 895 m 267 891 l 267 890 l 270 890 l 271 893 q 267 891 269 891 m 288 881 l 290 881 q 288 878 290 878 l 288 881 m 1121 876 q 1117 854 1117 859 q 1121 853 1118 854 q 1127 861 1127 855 q 1122 876 1122 861 l 1121 876 m 337 866 l 337 864 l 341 864 l 341 865 q 337 866 339 865 m 322 864 q 323 859 323 861 l 326 859 l 326 861 q 323 864 326 864 l 322 864 m 343 855 l 343 854 q 356 841 345 854 l 355 838 q 359 839 358 839 q 343 855 359 841 m 337 854 l 337 850 l 338 850 q 339 854 338 851 l 337 854 m 304 847 q 307 845 304 845 l 309 845 l 309 847 l 304 847 m 293 842 l 293 841 q 296 838 293 838 l 296 839 q 293 842 296 842 m 315 842 l 315 839 q 318 836 315 836 l 318 842 l 315 842 m 320 842 l 320 839 q 323 842 323 839 l 320 842 m 319 836 q 322 834 319 834 q 324 836 324 834 l 323 836 l 323 835 l 320 836 l 319 836 m 305 832 l 305 830 q 308 832 308 830 l 305 832 m 359 832 l 359 831 q 363 830 361 831 l 364 830 l 364 831 q 360 832 363 831 l 359 832 m 295 824 l 297 824 q 300 827 300 824 l 300 830 q 295 824 298 830 m 311 830 l 311 828 q 314 826 311 826 l 315 826 q 311 830 315 828 m 271 828 l 271 823 l 273 823 l 273 828 l 271 828 m 303 826 l 301 820 q 307 824 307 822 l 304 826 l 303 826 m 359 824 q 363 820 359 822 q 364 824 363 822 l 359 824 m 285 823 q 284 817 285 819 l 286 816 l 288 819 l 288 820 q 285 823 288 823 m 322 823 l 322 819 l 324 817 l 324 819 q 323 823 323 822 l 322 823 m 277 820 l 277 819 q 278 815 278 816 l 281 815 l 281 816 q 277 820 281 818 m 364 820 l 364 817 l 366 817 l 366 820 l 364 820 m 312 811 l 316 811 q 319 813 319 811 q 318 817 318 816 q 312 811 316 817 m 360 817 q 359 813 360 816 q 364 811 362 813 l 364 813 q 362 817 362 813 l 360 817 m 271 815 l 271 812 l 278 812 q 276 815 278 815 l 271 815 m 770 794 l 770 793 q 784 808 781 801 l 784 813 l 781 813 q 770 794 777 812 m 358 811 l 358 800 q 366 794 362 800 l 367 794 q 368 800 367 797 q 366 803 366 800 l 367 805 q 358 811 364 805 m 695 797 l 706 744 l 707 744 q 727 777 727 774 l 737 809 q 695 797 714 808 m 263 808 q 266 805 264 805 l 267 808 l 263 808 m 301 808 l 301 805 q 304 803 301 803 l 305 805 q 303 808 305 808 l 301 808 m 258 805 l 258 801 l 259 801 q 262 804 262 801 l 259 805 l 258 805 m 324 803 l 327 801 l 330 801 l 330 803 q 327 805 330 805 q 324 803 324 805 m 308 803 l 308 801 l 311 801 l 311 803 l 308 803 m 333 803 l 333 796 q 338 797 335 797 l 338 801 l 335 800 q 333 803 335 803 m 263 801 l 263 797 q 266 794 264 794 l 269 796 q 271 793 269 793 l 273 798 l 274 798 l 277 797 l 277 798 l 273 801 q 271 798 273 798 q 263 801 269 798 m 290 798 l 293 798 l 293 801 q 290 798 290 800 m 309 797 q 311 793 311 794 l 312 793 q 316 797 314 793 l 316 798 l 309 797 m 339 797 l 339 794 l 341 794 l 341 797 l 339 797 m 371 794 l 371 790 q 374 788 372 788 q 378 792 374 792 q 377 797 377 794 q 371 794 373 794 m 255 792 q 258 788 258 792 l 259 788 q 262 793 259 790 l 262 796 l 261 796 q 255 792 255 794 m 318 792 l 318 789 q 322 793 320 789 l 322 794 l 320 794 q 318 792 318 794 m 359 793 l 359 792 q 364 789 362 792 l 366 789 q 360 793 366 791 l 359 793 m 265 792 l 261 786 l 261 785 q 273 778 263 778 l 273 774 q 271 773 273 773 l 273 770 l 271 767 l 273 767 l 277 770 l 282 770 l 282 769 l 280 769 l 280 766 l 281 763 l 284 765 l 285 765 l 285 760 q 295 770 295 760 l 293 770 l 295 773 l 295 774 l 290 774 l 290 770 l 289 770 l 278 778 q 276 775 278 775 l 274 778 l 274 779 l 277 779 q 265 792 277 781 m 271 792 l 271 790 q 277 788 274 790 l 278 790 l 276 792 l 271 792 m 299 788 l 303 785 l 304 785 l 304 792 q 299 788 299 790 m 220 789 l 220 788 l 223 788 l 223 789 l 220 789 m 278 788 l 278 786 q 289 775 278 781 l 290 778 l 290 779 q 282 786 282 779 l 282 788 l 278 788 m 356 788 q 359 785 357 785 l 359 788 l 356 788 m 663 774 l 682 751 l 682 752 l 677 788 q 663 774 663 781 m 217 786 l 217 784 q 221 781 221 784 q 224 784 224 781 q 219 786 222 784 l 217 786 m 327 786 l 327 784 l 333 784 q 330 786 333 786 l 327 786 m 363 786 l 360 782 l 366 778 q 367 784 366 781 l 363 786 m 212 782 l 215 782 l 215 785 q 212 782 212 784 m 382 785 l 381 782 l 382 782 q 386 784 385 784 l 386 785 l 382 785 m 209 781 l 209 779 l 212 779 l 212 781 l 209 781 m 358 781 l 358 777 l 359 777 l 359 781 l 358 781 m 215 778 l 215 775 l 221 774 l 223 774 q 219 778 223 776 l 215 778 m 263 775 q 266 773 264 773 l 266 775 l 263 775 m 363 774 l 363 773 q 364 769 364 770 l 368 769 q 364 774 364 772 l 363 774 m 397 774 q 396 770 397 773 q 400 765 400 770 l 401 765 l 401 766 q 398 774 398 771 l 397 774 m 219 771 q 221 769 219 769 l 223 769 q 227 773 225 769 l 225 773 l 219 771 m 375 773 l 375 769 q 385 763 380 769 l 387 765 q 375 773 387 771 m 215 769 l 215 767 q 217 765 215 765 l 217 769 l 215 769 m 212 758 q 216 752 214 752 l 229 767 l 228 767 l 212 758 m 246 767 l 246 763 l 247 763 l 247 767 l 246 767 m 363 767 l 363 765 l 364 765 l 364 767 l 363 767 m 266 766 l 266 765 l 267 762 l 265 760 q 263 765 263 763 l 259 765 l 259 763 q 263 755 263 757 l 266 756 l 267 754 q 254 746 267 751 l 254 744 l 255 744 l 258 746 l 263 744 l 270 750 q 273 747 273 750 q 266 740 266 741 l 271 740 l 289 751 l 289 755 l 286 755 l 280 750 q 277 752 277 750 l 277 754 l 281 754 l 278 758 l 278 759 l 280 759 l 285 756 l 285 758 q 277 765 277 763 l 274 763 l 271 763 l 267 766 l 266 766 m 378 765 q 377 760 378 763 l 381 760 l 381 762 q 378 765 381 765 m 390 763 q 382 756 390 756 q 371 751 382 753 l 371 748 l 374 750 l 377 748 q 394 760 390 754 l 390 763 m 292 759 q 296 754 294 754 l 296 760 q 292 759 293 759 m 396 759 q 397 752 397 757 l 404 754 q 397 759 404 756 l 396 759 m 227 758 q 217 752 227 752 l 216 750 q 220 746 216 748 q 228 755 228 752 l 228 758 l 227 758 m 229 754 l 229 752 l 232 752 l 232 754 l 229 754 m 290 754 l 290 752 l 293 752 l 293 754 l 290 754 m 300 754 l 300 750 l 303 751 l 304 751 l 304 748 q 307 751 307 748 q 300 754 304 751 m 358 754 q 356 750 358 752 l 356 748 l 358 748 q 359 752 358 750 l 359 754 l 358 754 m 378 744 l 378 743 l 379 740 q 393 748 389 748 l 394 751 l 394 752 l 393 752 l 378 744 m 232 751 q 236 747 232 749 l 238 747 l 238 750 l 232 751 m 292 751 l 292 748 l 297 748 l 297 750 q 292 751 294 750 m 653 751 l 653 746 q 658 714 658 716 l 658 712 l 657 709 q 640 718 649 709 q 631 687 637 716 q 623 677 626 687 q 609 653 609 677 q 607 638 607 653 q 643 668 630 658 q 670 693 644 671 l 670 694 q 669 709 670 697 q 673 720 669 712 q 653 751 669 736 m 223 743 q 224 739 224 740 q 233 744 233 741 q 232 748 232 747 q 223 743 223 744 m 288 748 q 282 743 288 743 l 282 741 l 284 741 q 290 744 288 744 l 290 748 l 288 748 m 296 746 q 299 743 296 743 q 303 744 301 744 q 300 747 303 747 q 296 746 297 746 m 609 741 l 611 735 l 611 732 q 608 714 611 720 q 620 689 617 692 q 627 717 624 695 l 628 717 l 624 724 q 627 728 626 728 l 626 731 l 626 744 l 619 744 l 609 741 m 213 736 q 216 733 214 733 q 221 739 218 733 q 219 741 221 741 q 213 736 217 741 m 258 741 l 259 739 l 258 736 q 262 737 261 737 q 258 741 262 739 m 277 740 l 277 737 l 278 737 l 278 740 l 277 740 m 288 739 l 289 736 l 289 735 l 288 732 l 289 732 q 293 739 292 732 q 292 740 292 739 q 288 739 289 739 m 402 737 q 409 729 404 732 l 413 732 l 416 731 l 416 732 q 408 740 413 739 q 402 737 402 739 m 413 740 l 413 739 l 416 739 l 416 740 l 413 740 m 231 739 l 231 735 q 238 729 235 729 l 238 728 q 233 725 233 728 l 235 725 q 240 728 238 728 l 240 729 l 238 729 q 242 732 238 732 l 242 737 q 236 733 236 737 l 235 733 q 232 739 232 733 l 231 739 m 371 739 l 371 736 l 373 736 q 375 739 375 736 l 371 739 m 209 732 l 209 731 l 210 731 l 212 736 q 209 732 209 736 m 223 736 q 227 732 223 734 l 228 732 q 224 736 228 734 l 223 736 m 257 729 l 261 729 q 266 736 261 732 l 265 736 q 257 729 257 731 m 271 736 q 276 733 271 733 l 277 733 l 277 735 l 271 736 m 301 736 l 301 733 l 303 733 l 303 736 l 301 736 m 390 733 q 394 728 392 728 q 401 733 401 732 l 401 735 q 398 736 398 735 q 390 733 393 733 m 220 733 l 220 732 q 223 729 221 729 l 223 731 q 220 733 223 733 m 267 729 l 267 728 q 270 731 270 728 l 270 732 q 267 729 267 732 m 224 727 l 227 725 q 232 728 227 728 l 232 731 q 224 727 224 729 m 262 709 l 263 709 q 280 718 266 712 q 296 731 296 729 l 295 731 q 262 709 269 716 m 396 725 l 398 725 l 405 727 l 405 729 l 404 729 q 396 725 396 728 m 733 729 l 730 724 l 733 722 l 735 722 l 735 727 q 733 729 735 729 m 212 728 l 212 724 q 217 725 215 725 q 215 728 217 728 l 212 728 m 261 728 l 261 725 l 262 725 l 262 728 l 261 728 m 273 725 l 274 725 q 277 728 277 725 l 276 728 q 273 725 273 728 m 381 725 l 381 724 l 386 724 q 389 727 389 724 l 389 728 l 386 728 q 381 725 383 725 m 416 724 q 413 727 413 724 q 409 725 411 725 q 416 718 409 724 q 405 713 407 713 l 405 712 q 408 709 406 709 q 420 717 408 712 l 420 720 q 416 722 416 720 l 416 724 l 417 724 l 420 722 l 420 724 q 419 728 419 727 q 416 724 416 728 m 265 722 l 265 721 q 267 718 265 718 q 271 725 267 721 l 270 725 q 265 722 267 722 m 299 722 l 296 724 q 292 722 293 722 l 293 720 l 293 718 l 290 720 q 286 716 290 718 l 286 718 q 281 714 281 716 l 284 714 l 284 712 l 282 712 q 280 714 280 712 q 276 713 277 713 l 276 709 q 278 706 276 706 q 303 722 301 718 q 305 724 303 724 l 305 725 l 304 725 l 299 722 m 402 721 l 402 717 l 405 717 l 408 725 l 406 725 q 402 721 404 725 m 215 720 l 217 720 l 217 722 q 215 720 215 722 m 385 720 l 387 716 l 390 717 l 393 717 l 390 713 l 394 710 l 398 710 l 398 713 l 393 718 l 393 720 l 394 722 l 392 722 q 385 720 387 720 m 322 721 l 322 720 l 326 720 l 326 721 l 322 721 m 236 716 l 236 713 l 238 713 q 240 717 240 713 l 242 717 l 244 716 l 244 720 q 236 716 238 716 m 248 713 l 248 712 l 251 712 q 261 716 258 716 l 261 720 l 259 720 q 248 713 252 713 m 208 718 l 208 714 q 210 717 210 714 l 210 718 l 208 718 m 216 713 q 224 718 224 716 l 223 718 q 216 713 217 716 m 300 714 l 301 714 q 304 717 304 714 l 303 717 q 300 714 300 717 m 309 717 l 309 714 l 315 714 l 315 717 l 309 717 m 299 709 l 290 710 l 292 704 q 286 701 286 704 l 286 698 l 289 698 q 308 712 299 708 q 307 716 307 714 l 299 709 m 424 716 q 421 708 424 715 l 423 708 q 431 709 424 708 q 428 716 428 712 l 424 716 m 208 712 l 208 708 q 212 709 210 709 l 212 710 q 208 712 210 710 m 227 712 q 229 709 227 709 l 229 712 l 227 712 m 316 709 l 319 708 l 320 708 q 319 712 319 710 q 316 709 316 712 m 682 712 l 682 709 q 685 712 685 709 l 682 712 m 385 710 q 387 708 385 708 l 387 710 l 385 710 m 682 708 l 682 705 l 684 705 q 689 709 689 707 l 689 710 q 682 708 686 708 m 217 709 q 220 706 218 706 l 223 706 l 223 709 l 217 709 m 235 709 q 236 704 236 707 l 238 704 q 239 708 238 706 q 235 709 238 708 m 312 709 l 312 706 l 314 706 l 314 709 l 312 709 m 212 706 l 212 704 l 213 704 l 213 706 l 212 706 m 248 704 l 248 701 q 258 706 258 702 l 255 706 q 248 704 250 704 m 265 701 q 274 705 274 702 l 274 706 q 265 701 267 706 m 320 705 q 308 697 316 697 l 305 697 l 305 699 q 309 702 309 699 l 309 704 l 307 704 q 304 701 304 704 l 301 702 l 300 702 q 290 691 300 698 l 289 691 l 289 693 l 290 695 q 278 691 280 691 l 278 689 l 280 689 l 286 690 l 284 687 l 285 687 q 301 697 295 691 l 304 697 l 308 694 l 315 695 q 316 694 315 694 q 320 704 320 701 l 322 704 l 326 701 l 327 704 l 320 705 m 390 704 l 390 702 q 393 699 393 702 q 396 702 396 699 l 396 705 q 390 704 394 704 m 405 704 q 404 699 405 702 l 405 699 q 411 704 411 701 l 405 704 m 202 697 l 204 697 q 209 702 206 697 l 208 702 q 202 697 204 701 m 227 702 l 227 701 q 231 697 227 699 l 232 699 l 228 702 l 227 702 m 243 699 l 242 697 l 242 695 q 252 685 242 694 l 257 690 l 252 690 l 252 687 l 251 687 q 247 690 251 690 l 247 691 l 248 694 q 243 699 246 694 m 254 699 l 254 694 l 257 694 l 255 697 l 257 699 l 254 699 m 281 699 q 271 697 281 697 l 276 693 q 285 695 282 695 q 281 699 285 697 m 435 699 l 435 697 l 440 697 q 438 699 440 699 l 435 699 m 266 697 l 266 695 q 269 693 267 693 l 269 697 l 266 697 m 322 695 l 322 694 q 327 693 324 694 l 327 695 l 322 695 m 413 693 l 413 690 q 419 691 416 691 l 419 693 q 416 695 419 695 q 413 693 413 695 m 430 695 l 430 691 l 434 691 q 430 695 434 693 m 233 694 l 233 691 l 238 691 l 238 694 l 233 694 m 300 694 q 299 690 300 693 l 301 690 l 304 691 l 305 689 q 301 687 301 689 l 307 685 l 305 687 q 307 693 307 690 l 304 694 l 300 694 m 318 694 l 318 691 l 320 691 l 320 694 l 318 694 m 228 690 l 228 687 l 229 687 q 232 690 232 687 l 228 690 m 315 690 l 315 689 l 318 689 l 318 690 l 315 690 m 423 690 l 420 687 q 425 684 425 687 l 428 684 l 428 685 q 423 690 428 687 m 233 678 l 236 677 l 239 677 l 244 682 l 247 681 q 248 684 247 684 q 247 687 247 686 q 233 678 233 682 m 285 684 q 289 680 285 682 q 295 684 295 682 l 295 687 q 285 684 286 684 m 228 684 l 228 682 q 233 681 231 682 l 233 685 l 232 685 q 228 684 229 684 m 613 685 l 613 682 l 615 682 l 615 685 l 613 685 m 345 682 l 343 680 q 346 668 346 671 l 346 657 q 330 628 342 640 l 334 628 l 334 627 l 330 627 q 337 608 330 616 q 343 597 337 602 q 356 531 351 531 l 354 526 q 360 522 360 526 l 359 517 q 368 489 368 493 q 358 481 367 484 q 355 476 358 476 q 360 463 360 467 q 358 461 358 463 l 358 458 l 360 454 l 359 451 q 370 420 362 434 q 368 408 368 413 l 368 404 q 373 402 370 404 q 368 392 368 395 q 375 389 372 389 q 374 383 375 386 l 381 367 l 379 364 q 386 318 386 349 l 389 317 l 390 317 l 408 345 q 462 440 448 407 q 507 507 499 494 q 535 558 512 511 q 547 574 546 574 q 539 585 545 580 l 537 583 l 534 583 q 522 596 534 588 l 508 596 q 503 597 505 596 q 478 592 482 592 q 424 616 465 592 l 417 615 l 417 616 l 420 620 q 400 636 408 623 q 377 655 377 643 q 346 682 375 655 l 345 682 m 442 681 l 442 680 l 446 680 l 447 682 l 446 682 q 442 681 443 681 m 454 678 l 463 678 l 463 680 q 458 682 461 680 q 454 678 456 682 m 251 681 l 251 678 l 254 678 l 254 681 l 251 681 m 281 678 l 284 677 l 285 677 q 284 681 284 679 q 281 678 281 680 m 609 681 l 609 680 l 612 680 l 612 681 l 609 681 m 469 678 q 472 676 470 676 l 473 676 l 473 678 l 469 678 m 229 677 l 221 668 l 224 668 q 227 673 227 668 l 231 673 q 238 666 237 666 l 239 669 q 229 677 236 677 m 337 677 l 337 674 l 338 674 l 338 677 l 337 677 m 432 677 l 432 674 l 435 674 q 438 677 438 674 l 432 677 m 240 674 q 243 672 241 672 q 246 674 246 672 l 246 676 q 240 674 244 674 m 263 676 l 263 674 l 266 674 l 266 676 l 263 676 m 465 674 q 463 670 465 672 q 466 668 466 670 l 469 669 l 472 668 l 472 672 q 469 674 469 672 l 465 674 m 259 673 q 262 670 260 670 l 262 673 l 259 673 m 250 672 l 250 666 q 254 672 252 666 l 250 672 m 444 666 l 447 666 l 447 669 q 444 666 444 668 m 227 661 l 232 661 l 232 662 q 231 666 231 664 q 227 661 229 666 m 254 659 l 254 658 l 255 658 q 262 661 259 661 l 262 665 l 259 665 q 254 659 257 665 m 327 665 l 327 661 l 330 661 l 330 665 l 327 665 m 239 663 l 239 662 l 242 662 l 242 663 l 239 663 m 477 663 l 477 662 q 480 659 477 659 l 481 659 q 480 663 480 662 l 477 663 m 435 661 l 435 658 l 436 658 q 439 661 439 658 l 435 661 m 453 661 l 451 658 l 451 657 q 454 654 454 657 l 455 654 l 458 655 q 453 661 457 659 m 482 661 l 482 658 l 484 658 l 484 661 l 482 661 m 232 659 q 235 657 233 657 l 235 659 l 232 659 m 250 659 l 248 657 l 251 655 l 252 655 l 252 657 q 250 659 252 659 m 282 659 q 285 657 282 657 l 285 659 l 282 659 m 262 657 l 262 653 l 263 653 q 265 657 263 654 l 262 657 m 324 653 l 324 647 l 326 647 q 330 654 328 647 l 328 654 q 324 653 326 653 m 269 653 l 269 649 q 271 651 271 649 l 271 653 l 269 653 m 447 651 l 447 649 l 453 649 q 450 651 453 651 l 447 651 m 485 651 l 485 650 l 488 650 l 488 651 l 485 651 m 320 650 l 320 646 l 322 646 q 323 650 322 647 l 320 650 m 235 646 l 236 646 q 239 649 239 646 l 238 649 q 235 646 235 648 m 469 646 l 472 646 l 472 649 q 469 646 469 648 m 480 649 l 477 644 l 481 642 l 484 646 l 480 649 m 492 649 l 492 646 l 495 646 q 492 649 495 649 m 442 647 l 442 644 l 443 644 l 443 647 l 442 647 m 247 646 q 244 640 247 640 l 244 639 l 247 639 l 250 643 q 247 646 250 646 m 511 646 l 511 642 l 518 642 l 518 644 l 516 644 l 514 643 q 511 646 514 646 m 227 639 l 227 638 q 232 643 229 638 l 231 643 q 227 639 229 643 m 243 636 l 243 635 l 246 635 l 246 636 l 243 636 m 463 636 l 463 634 l 466 634 l 466 636 l 463 636 m 61 626 l 61 621 l 62 621 q 63 626 62 623 l 61 626 m 104 428 q 92 379 94 396 l 109 366 l 111 366 l 109 378 q 118 408 109 385 l 118 419 q 105 428 117 421 l 104 428 m 477 428 q 470 417 477 417 q 439 366 448 383 q 415 326 425 341 q 405 313 408 322 q 389 293 389 300 l 389 289 l 390 289 q 401 297 398 289 q 440 337 436 322 q 461 371 453 352 q 480 423 467 374 l 478 428 l 477 428 m 1401 419 l 1401 417 l 1404 417 l 1404 419 l 1401 419 m 1403 409 l 1403 406 l 1404 406 l 1404 409 l 1403 409 m 236 404 l 236 367 l 233 363 l 233 337 q 232 332 233 335 l 233 329 l 232 322 l 233 317 q 232 313 233 316 q 233 294 233 301 l 233 286 q 257 273 246 274 q 293 259 282 259 l 295 262 l 295 265 q 281 313 286 290 q 238 404 247 386 l 236 404 m 1203 392 l 1205 392 l 1205 394 q 1203 392 1203 394 m 1199 389 l 1199 387 l 1203 387 l 1203 389 l 1199 389 m 1215 377 l 1215 374 l 1218 370 l 1216 367 l 1216 366 l 1218 366 q 1222 371 1218 368 l 1222 377 l 1215 377 m 90 355 q 88 343 88 346 l 88 341 q 92 310 88 337 q 86 299 86 301 q 89 297 89 299 q 86 294 89 294 q 89 284 89 289 l 89 236 q 86 202 89 217 q 101 183 89 183 q 127 194 127 187 l 127 198 q 122 240 124 230 q 118 254 122 248 l 123 278 l 116 289 q 120 318 120 314 q 118 329 120 320 l 118 337 q 90 355 115 337 m 396 271 l 397 269 l 397 242 l 398 242 q 413 262 411 250 q 427 284 419 262 q 443 317 443 309 q 404 280 421 288 q 396 271 404 274 m 416 302 l 416 298 q 419 301 419 298 l 419 302 l 416 302 m 444 298 l 444 293 l 447 293 l 447 294 q 446 298 446 297 l 444 298 m 262 252 l 262 251 q 297 231 265 250 l 299 231 q 300 238 299 235 q 280 246 299 246 l 263 252 l 262 252 m 378 191 l 378 189 l 381 189 q 382 194 381 192 l 381 194 q 378 191 378 193 m 382 183 q 379 171 381 174 l 381 171 q 383 174 383 171 l 383 183 l 382 183 m 1745 175 q 1742 132 1745 164 q 1750 160 1745 132 l 1751 160 q 1746 175 1746 174 l 1745 175 m 381 166 l 379 163 l 379 162 l 383 162 l 383 163 q 381 166 383 166 m 378 160 l 378 159 l 381 159 l 381 160 l 378 160 m 383 137 q 389 128 387 128 l 394 128 l 394 130 q 389 140 389 136 l 386 140 q 383 137 383 140 m 390 122 l 390 110 l 396 110 l 396 125 q 390 122 392 122 m 1208 117 l 1208 114 l 1209 114 q 1214 115 1212 115 l 1214 117 l 1208 117 m 1208 110 l 1208 105 q 1214 110 1210 105 l 1208 110 m 390 105 l 390 103 l 396 103 l 396 107 q 390 105 392 105 m 409 107 q 406 102 409 105 l 406 101 l 412 99 l 412 105 q 409 107 412 107 m 1204 106 l 1204 103 l 1205 103 l 1205 106 l 1204 106 m 1214 105 l 1214 102 l 1215 102 l 1215 105 l 1214 105 m 1208 96 l 1208 93 l 1211 93 q 1208 96 1211 96 m 398 78 l 398 75 l 400 75 q 408 82 408 75 q 398 78 403 78 m 408 77 l 408 74 q 411 77 411 74 l 408 77 m 1758 56 l 1758 52 q 1761 55 1761 52 l 1761 56 l 1758 56 m 1539 43 q 1536 36 1539 40 l 1536 35 l 1538 35 q 1540 42 1538 37 l 1540 43 l 1539 43 m 1190 42 l 1190 39 l 1192 39 l 1192 42 l 1190 42 m 1527 37 q 1525 32 1527 35 l 1528 29 q 1532 32 1528 32 q 1528 37 1530 37 l 1527 37 m 1496 33 l 1496 29 l 1499 29 l 1499 33 l 1496 33 m 1480 32 l 1480 31 l 1483 31 l 1483 32 l 1480 32 m 1147 23 l 1147 21 l 1152 21 l 1151 24 l 1151 25 l 1154 25 l 1154 28 l 1152 28 q 1147 23 1150 28 m 1158 27 l 1158 21 q 1161 24 1161 21 q 1158 27 1161 27 m 1139 21 l 1139 20 l 1142 20 l 1142 21 l 1139 21 "},"I":{"x_min":0,"x_max":431.34375,"ha":446,"o":"m 102 979 l 108 978 l 116 978 q 212 944 174 978 q 308 979 251 979 l 323 979 q 431 956 376 979 l 431 953 q 333 891 360 933 q 318 845 318 866 l 318 581 q 368 492 318 520 l 368 490 q 318 408 318 467 l 318 125 q 392 19 318 67 q 431 6 416 7 l 431 4 q 358 -10 406 -10 l 341 -10 q 218 32 255 -10 q 185 -2 218 18 q 118 -18 155 -18 l 101 -18 q 0 4 56 -18 l 0 6 q 78 47 35 11 q 109 130 109 77 l 109 389 q 93 465 109 451 q 59 492 84 477 q 101 543 86 507 q 109 630 109 568 l 109 807 q 92 897 109 883 q 4 952 72 927 q 0 953 0 953 l 0 954 q 99 978 40 978 q 102 979 102 978 "},"G":{"x_min":0,"x_max":833.53125,"ha":814,"o":"m 397 1017 l 433 1017 q 668 917 571 1017 q 723 807 715 859 q 746 732 730 758 q 780 699 759 714 l 780 698 q 723 689 748 689 l 709 689 q 618 712 653 689 l 617 712 q 541 690 583 690 l 533 690 q 478 707 498 690 l 478 708 q 503 769 503 743 l 503 774 q 424 838 503 822 q 406 840 422 838 q 297 777 323 840 q 282 689 282 743 l 282 606 q 321 513 282 533 q 337 505 335 505 l 337 503 q 298 476 309 494 q 282 417 282 451 l 282 369 q 347 185 282 219 q 411 171 378 171 q 510 225 485 171 q 524 312 524 247 l 524 352 q 505 460 524 408 q 425 521 479 501 q 409 530 409 528 l 409 531 q 464 541 432 541 q 609 489 552 541 l 610 489 q 730 540 655 540 l 734 540 q 798 530 764 540 l 798 526 q 739 404 739 489 l 739 150 q 833 -78 739 -9 l 833 -80 l 829 -80 q 668 -2 758 -80 q 613 73 621 46 l 604 73 q 493 2 567 22 q 378 -10 442 -10 q 139 83 227 -10 q 70 225 89 134 q 58 404 58 295 q 40 459 50 441 q 2 502 38 470 q 0 504 0 502 q 44 545 29 518 q 61 702 61 567 q 87 832 61 755 q 229 984 134 939 q 397 1017 296 1017 "},"(":{"x_min":92.3125,"x_max":1356.15625,"ha":1492,"o":"m 139 857 l 163 869 q 325 822 279 913 l 327 819 l 324 817 q 232 809 264 826 q 229 730 202 794 q 411 689 253 685 q 617 642 538 679 l 619 639 q 622 649 626 642 l 596 701 q 548 750 562 758 l 514 707 q 444 727 462 691 l 433 748 q 472 841 410 792 l 478 845 q 607 780 543 877 l 633 729 l 640 707 l 642 704 l 645 705 q 677 847 636 787 q 764 930 691 873 l 764 939 l 762 942 l 712 956 q 767 1009 729 990 l 773 1013 q 836 993 819 1026 l 845 976 q 725 803 873 919 q 698 619 650 714 q 707 611 705 615 l 710 613 q 772 813 661 756 q 902 771 857 857 q 870 699 903 716 l 846 687 q 806 714 819 687 l 794 737 l 790 736 q 756 632 731 681 q 758 620 762 621 q 931 487 789 560 l 934 489 l 932 493 q 890 549 900 529 q 920 694 853 660 l 937 703 q 1051 666 978 723 q 1063 651 1058 662 l 1065 647 q 1066 596 1080 618 l 1062 594 q 1009 596 1045 585 l 1002 593 q 1004 564 992 585 q 1211 380 1028 517 q 1287 280 1262 330 l 1308 240 q 1355 -9 1363 134 l 1348 -12 l 1329 -18 q 1274 122 1300 70 q 1110 298 1186 294 q 1039 292 1066 305 l 1029 286 q 1007 219 990 252 l 1011 212 q 1063 170 1023 188 l 1065 166 l 1062 164 q 892 199 931 124 l 887 209 q 941 332 857 267 q 878 335 912 352 l 875 333 q 720 145 825 307 q 640 74 678 94 l 619 63 q 486 103 550 27 l 476 124 q 472 157 463 149 q 585 163 536 138 q 745 418 655 198 q 786 448 772 441 q 870 461 820 465 l 874 463 l 872 466 q 492 522 607 581 l 475 514 q 472 503 469 509 l 474 500 l 505 490 q 472 443 501 457 q 384 463 407 418 q 402 537 375 523 l 400 540 l 390 535 q 248 289 303 490 q 144 179 218 217 q 98 160 100 161 l 96 163 q 106 346 146 268 q 120 514 87 451 q 202 590 144 560 q 247 561 238 578 l 250 554 l 244 533 l 292 558 l 297 539 l 339 560 q 349 557 346 563 l 351 554 l 349 540 l 356 543 q 445 598 418 584 l 452 601 q 493 579 476 613 q 564 585 537 571 l 577 592 q 329 603 556 626 q 109 703 154 616 l 104 713 q 139 857 68 820 "},"`":{"x_min":0,"x_max":0,"ha":695},"U":{"x_min":0,"x_max":781.984375,"ha":814,"o":"m 65 982 l 80 982 q 163 948 134 982 q 246 976 189 976 l 255 976 q 306 964 288 976 l 306 963 q 265 880 265 940 l 265 600 q 299 516 265 535 q 322 499 299 515 q 289 472 295 483 q 265 370 265 444 l 265 355 q 293 219 265 246 q 340 183 307 195 q 345 182 343 183 q 402 218 376 182 l 404 218 q 442 180 427 180 q 500 223 467 180 q 526 352 526 262 q 527 399 527 359 q 495 493 527 475 q 489 497 489 495 q 526 571 526 517 l 526 881 q 482 964 526 937 q 518 972 495 972 l 531 972 q 536 973 535 972 q 628 952 573 973 l 640 946 q 727 976 670 976 q 767 972 746 976 l 767 971 q 738 868 738 940 l 738 581 q 766 501 738 520 q 781 497 778 497 l 781 493 q 750 461 766 493 q 737 385 737 427 q 738 370 738 376 l 738 348 q 687 125 738 196 q 533 15 647 54 q 429 -21 450 -2 q 400 -55 411 -37 q 332 2 372 -11 q 210 35 252 16 q 86 154 131 71 q 48 358 48 219 l 48 397 q 0 503 48 469 q 48 585 48 526 l 48 885 q 1 968 48 922 q 65 982 31 982 "},"F":{"x_min":0,"x_max":660.59375,"ha":678,"o":"m 653 1013 q 660 972 660 993 l 660 961 q 636 876 660 919 q 659 803 659 851 q 658 757 659 796 l 655 756 q 548 791 596 791 q 472 790 519 791 q 370 791 409 791 q 281 760 300 791 q 274 717 274 744 l 274 590 q 300 589 292 589 q 400 621 381 589 q 424 651 406 624 q 442 597 442 633 q 408 512 442 554 q 440 455 440 494 l 440 447 q 427 371 432 371 q 324 413 392 413 l 278 413 l 278 265 q 277 169 278 230 q 319 38 277 99 q 348 11 344 11 l 348 10 q 303 0 333 0 l 286 0 q 185 48 221 0 q 183 54 183 54 q 77 2 152 2 l 67 2 q 14 8 40 2 l 14 9 q 63 107 49 44 q 64 119 64 113 l 64 375 q 0 508 64 473 l 0 510 q 64 607 64 551 l 64 794 q 9 963 64 860 q 3 971 8 963 l 3 972 q 22 975 3 975 l 24 975 q 154 933 88 975 q 167 920 154 932 q 257 965 214 961 q 309 969 287 969 l 550 969 q 653 1013 594 969 "},"r":{"x_min":0,"x_max":463.90625,"ha":522,"o":"m 425 742 q 452 661 452 707 q 419 577 452 611 q 463 503 463 544 l 463 492 q 455 459 459 459 q 413 472 438 472 l 412 472 q 298 446 375 472 q 229 393 274 436 l 229 392 q 252 358 229 367 q 261 355 261 357 q 229 290 229 325 l 229 82 q 257 -3 229 26 l 257 -4 q 218 -10 238 -10 l 204 -10 q 137 16 155 -10 q 73 -10 119 -10 l 61 -10 q 18 -4 42 -10 l 18 -3 q 40 81 40 14 l 40 278 q 20 340 40 328 q 0 356 18 343 q 36 405 27 375 q 40 455 40 421 l 40 588 q 12 680 40 653 q 7 685 7 685 q 52 693 10 692 q 130 671 102 693 q 189 692 149 692 l 194 692 q 233 685 226 691 l 233 684 q 217 583 217 661 l 217 529 l 221 529 q 253 596 225 561 q 342 663 289 633 q 404 710 376 683 q 425 742 415 723 "},":":{"x_min":0,"x_max":0,"ha":424},"x":{"x_min":0,"x_max":567.671875,"ha":610,"o":"m 217 718 l 219 717 q 210 687 210 701 q 252 580 210 657 q 285 513 278 523 l 288 513 q 305 552 290 514 q 356 668 352 642 l 356 684 q 351 710 356 695 l 353 711 l 355 711 q 368 712 364 711 q 444 670 431 712 q 448 657 448 658 q 476 663 461 663 l 484 663 q 550 630 522 663 l 550 628 q 501 585 529 628 q 419 430 419 436 q 417 413 417 424 q 439 379 417 396 l 439 378 q 405 335 405 366 q 439 255 405 314 q 518 86 509 103 q 567 63 539 63 l 567 63 q 499 35 539 35 q 461 44 481 35 l 461 44 q 436 6 461 31 q 381 -14 406 -14 l 377 -14 l 368 -13 l 368 -12 q 378 10 378 -2 q 352 81 378 30 l 290 211 l 285 211 q 257 150 282 208 q 203 31 203 43 q 202 22 202 27 q 220 -12 202 4 l 220 -14 q 204 -17 209 -17 l 195 -17 q 124 22 159 -17 q 115 47 115 37 q 73 35 94 35 l 67 35 q 0 76 21 35 q 44 88 44 83 q 68 129 52 88 l 169 317 q 175 333 175 324 q 143 379 175 347 q 164 400 164 390 q 164 403 164 402 q 122 490 164 417 q 61 585 80 576 q 24 608 44 599 l 24 609 q 52 637 24 619 q 99 649 78 649 l 105 649 q 137 640 123 649 l 137 642 q 202 714 137 685 q 217 718 210 718 "},"*":{"x_min":0,"x_max":0,"ha":741},"V":{"x_min":0,"x_max":872.1875,"ha":909,"o":"m 242 1014 l 254 1014 q 271 1011 263 1014 q 256 954 256 983 l 256 942 q 311 733 256 908 q 358 600 342 608 q 403 572 368 586 l 403 571 q 382 510 382 543 l 382 500 q 431 314 382 479 q 433 303 431 314 l 437 303 q 492 513 486 485 l 492 519 q 473 572 492 543 l 473 573 q 518 613 502 583 q 564 764 532 639 q 607 930 607 906 l 607 937 q 584 1013 607 964 l 596 1013 q 718 946 685 1013 q 775 958 745 958 q 872 918 817 958 l 836 893 q 774 764 798 864 q 718 565 718 582 q 717 556 717 560 q 744 502 717 527 l 744 501 q 680 443 703 486 q 595 163 668 417 q 574 78 574 101 l 574 68 q 600 8 574 35 q 523 -10 573 -10 q 438 17 472 -10 q 346 -15 404 -15 l 330 -15 q 269 2 288 -15 l 269 4 q 298 65 298 35 l 298 69 q 256 221 298 92 q 192 432 204 390 q 125 493 173 472 l 125 495 q 149 549 149 521 l 149 556 q 105 717 149 580 q 52 881 62 859 q 26 913 46 895 q 0 929 0 927 q 82 958 30 958 l 90 958 q 139 945 119 958 q 162 980 145 964 q 242 1014 202 1014 "},"h":{"x_min":0,"x_max":630.0625,"ha":663,"o":"m 59 974 l 66 974 q 149 942 115 974 q 212 973 168 973 q 262 959 237 973 l 262 959 q 234 883 234 927 q 235 853 235 863 l 235 704 q 232 577 235 650 l 239 577 q 425 700 309 700 q 575 602 533 700 q 590 503 590 567 l 590 471 q 623 360 590 378 q 630 355 630 356 l 630 353 q 601 327 619 353 q 590 265 590 306 l 590 79 q 611 12 590 26 l 611 10 q 558 0 575 0 q 505 21 526 0 q 438 -4 482 -4 l 431 -4 q 388 3 410 -4 l 388 4 q 411 65 411 22 q 410 105 410 89 l 410 226 q 411 293 410 242 q 381 353 411 333 l 381 356 q 411 396 411 370 q 397 518 411 505 q 349 542 381 542 q 255 494 305 542 q 235 473 235 477 q 233 419 233 438 l 233 416 q 272 356 233 377 l 272 355 q 242 324 248 341 q 235 286 235 305 l 235 82 q 267 0 235 31 q 230 -8 252 -8 l 220 -8 q 145 19 174 -8 q 56 -8 124 -8 q 18 -3 35 -8 l 18 -1 q 53 73 53 22 l 53 265 q 0 353 53 328 l 0 356 q 46 396 33 370 q 53 439 53 411 l 53 870 q 14 958 53 937 l 14 959 q 59 974 29 974 "},"0":{"x_min":0,"x_max":717.5625,"ha":751,"o":"m 358 990 l 379 990 q 566 908 480 990 q 659 711 630 843 q 676 558 672 651 q 708 518 676 538 q 717 513 717 516 q 678 451 678 479 q 647 222 678 354 q 520 22 608 85 q 387 -18 453 -18 l 366 -18 q 103 160 186 -18 q 61 344 73 229 q 46 459 52 459 q 6 501 36 486 q 0 503 6 501 l 0 507 q 50 569 31 521 q 61 663 55 586 q 86 770 71 728 q 168 908 106 834 q 358 990 252 990 m 255 592 l 255 585 q 285 518 255 535 q 288 516 288 518 l 288 515 q 253 480 265 515 l 251 465 q 268 238 257 267 q 305 158 278 187 q 362 137 332 137 l 374 137 q 467 248 448 137 q 478 406 478 308 l 478 443 q 443 515 478 489 q 474 545 469 529 q 478 569 478 555 l 478 600 q 370 834 478 834 l 356 834 q 266 735 288 834 q 255 592 255 683 "},".":{"x_min":67.828125,"x_max":242.125,"ha":314,"o":"m 151 149 l 158 149 q 236 95 208 149 q 242 65 242 79 l 242 59 q 187 -18 242 8 q 158 -24 171 -24 l 151 -24 q 73 29 101 -24 q 67 59 67 46 l 67 65 q 122 143 67 116 q 151 149 138 149 "},"@":{"x_min":40.6875,"x_max":550.03125,"ha":610,"o":"m 503 1011 q 538 982 526 1011 q 540 971 540 978 l 540 969 q 511 929 540 942 q 499 927 501 927 q 459 960 471 927 q 457 969 457 965 l 457 972 q 491 1011 457 999 l 503 1011 m 366 945 l 366 945 q 400 922 377 922 q 453 910 432 918 q 516 854 494 893 q 538 788 524 841 l 550 773 l 550 772 q 531 728 537 762 q 507 668 528 699 q 440 622 480 634 q 342 612 404 612 q 303 591 303 600 q 298 584 301 591 l 295 584 q 274 606 295 592 q 206 614 269 612 q 74 692 117 614 q 58 748 67 714 q 40 765 51 754 q 62 811 62 785 q 94 879 72 854 q 168 916 115 904 q 215 933 198 916 q 222 910 222 928 q 208 870 222 889 q 220 830 220 848 l 220 817 q 216 803 220 803 q 191 817 216 811 l 185 817 q 147 788 159 817 q 162 772 147 777 l 162 771 q 150 750 150 760 q 221 716 150 716 l 246 716 q 290 733 280 716 q 297 744 297 744 q 325 718 313 718 q 342 716 325 716 l 364 716 q 443 741 435 716 q 446 750 446 748 q 431 771 446 760 q 443 792 443 784 q 404 819 443 811 l 396 819 q 366 803 384 819 l 364 803 q 358 823 358 811 l 358 831 q 376 874 358 852 q 360 906 360 884 q 358 914 358 906 l 358 923 q 366 945 358 940 m 71 573 q 114 560 92 573 q 151 572 125 572 l 168 572 q 170 569 170 572 q 154 518 154 538 q 155 485 155 499 l 155 483 q 154 435 155 461 q 184 390 154 390 l 248 390 l 248 410 q 221 459 248 444 l 221 461 q 244 469 228 469 q 286 453 265 469 q 309 467 297 467 l 313 467 q 352 461 352 465 q 333 399 333 446 l 333 392 l 368 392 q 453 391 398 392 q 517 417 484 391 q 523 424 522 424 q 529 403 528 422 l 529 397 q 505 347 529 362 l 503 347 l 503 346 q 528 297 528 333 l 528 295 q 525 267 528 280 l 524 267 q 472 289 499 287 l 350 289 q 288 259 305 289 q 242 289 267 289 l 152 289 q 70 261 119 289 l 69 261 q 66 271 67 261 q 92 340 66 306 q 70 401 70 360 l 70 508 q 50 568 70 541 l 50 570 q 71 573 67 573 m 499 567 q 539 535 527 567 q 540 526 540 529 l 540 524 q 511 485 540 497 l 499 483 q 459 514 471 483 q 457 524 457 520 l 457 526 q 490 566 457 554 q 499 567 495 566 m 494 249 l 501 249 q 540 216 529 249 l 540 207 q 507 167 540 177 q 497 166 503 166 q 459 198 471 166 q 457 207 457 204 l 457 210 q 486 247 457 236 q 494 249 490 249 m 77 151 q 132 99 94 99 l 250 99 q 296 122 282 99 q 337 99 308 99 l 465 99 q 524 147 505 99 l 525 151 l 526 151 q 534 113 532 149 q 515 51 534 70 l 515 50 q 537 4 537 37 l 537 -7 q 527 -52 537 -25 l 526 -52 q 469 -1 509 -1 l 352 -1 q 309 -8 317 -1 l 296 -23 l 294 -23 q 236 -1 285 -1 l 158 -1 q 103 -9 111 -1 q 77 -52 86 -27 l 76 -52 q 65 0 65 -30 q 80 47 65 29 l 80 49 q 65 93 65 67 l 65 101 q 77 151 65 130 "},"f":{"x_min":0,"x_max":436.09375,"ha":475,"o":"m 421 1003 q 436 965 436 987 l 436 955 q 405 890 436 917 l 405 889 q 432 821 432 857 l 432 814 q 417 777 432 790 l 417 777 q 369 824 380 822 q 355 826 360 826 q 304 810 330 826 q 290 763 290 797 l 290 674 l 365 674 q 419 692 393 674 l 420 692 q 423 674 423 682 l 423 668 q 402 616 423 640 q 419 580 419 602 l 419 572 q 414 541 418 541 q 347 556 396 556 l 290 556 l 290 446 q 326 366 290 389 q 339 356 339 358 q 290 252 290 339 l 290 105 q 324 12 290 37 l 326 9 q 287 2 312 2 l 276 2 q 199 30 230 2 q 150 3 189 14 q 122 0 134 0 l 111 0 q 75 8 91 0 l 75 10 q 109 99 109 42 l 109 255 q 63 356 113 339 q 103 400 96 379 q 109 445 109 414 l 109 552 l 78 552 q 12 531 23 552 l 8 529 q 2 562 4 532 q 23 614 2 599 q 0 661 1 625 l 0 670 q 6 698 1 695 q 61 674 26 674 l 109 674 l 109 799 q 157 918 109 882 q 259 959 206 954 q 354 966 278 963 q 411 992 381 970 q 421 1003 411 994 "},";":{"x_min":0,"x_max":0,"ha":424},"i":{"x_min":0,"x_max":261.796875,"ha":293,"o":"m 130 960 l 137 960 q 220 913 187 960 q 231 873 231 894 q 187 803 231 831 q 132 788 162 788 l 130 788 q 44 835 75 788 q 33 871 33 853 l 33 876 q 91 952 33 925 q 130 960 109 960 m 45 689 q 134 663 103 689 q 196 687 158 687 l 208 687 q 256 678 241 687 l 256 677 q 219 604 219 656 q 221 426 221 505 q 261 358 221 381 l 261 358 q 221 276 221 335 q 220 122 221 262 q 253 10 220 39 l 253 10 q 208 0 232 0 q 134 30 163 0 q 75 0 118 0 l 63 0 q 17 8 40 0 l 17 10 q 44 86 44 31 l 44 297 q 3 357 44 338 l 3 358 q 44 415 44 370 l 44 518 q 44 594 44 545 q 21 659 44 627 l 0 680 q 45 689 17 689 "},"6":{"x_min":0,"x_max":674.15625,"ha":707,"o":"m 240 988 l 259 988 q 337 956 305 988 q 352 932 347 946 q 401 942 378 942 l 417 942 q 488 912 464 942 q 462 901 488 910 q 410 859 434 886 q 282 665 318 741 q 229 543 247 604 q 364 585 292 585 l 374 585 q 572 490 489 585 q 617 403 606 446 q 659 339 634 350 q 674 332 674 333 q 637 286 637 308 q 629 227 633 267 q 565 88 615 144 q 529 52 546 65 q 356 0 455 0 l 337 0 q 93 126 179 0 q 55 217 61 180 q 25 311 38 301 q 0 332 10 332 l 0 334 q 42 439 42 356 q 112 695 46 532 q 202 866 147 777 q 236 963 236 922 q 234 986 234 978 l 240 988 m 235 363 l 235 361 q 269 326 235 340 l 269 325 q 229 269 229 303 l 229 267 q 296 142 229 169 q 328 137 315 137 l 341 137 q 439 218 417 137 q 451 286 451 259 q 426 326 451 317 l 419 327 l 419 328 q 442 362 442 342 q 411 421 442 385 q 339 446 381 446 q 236 373 259 446 q 235 363 235 367 "},"A":{"x_min":0,"x_max":878.984375,"ha":906,"o":"m 516 969 l 531 969 q 602 950 570 969 l 602 948 q 576 902 576 923 l 576 899 q 640 669 576 885 q 701 505 677 526 q 731 486 718 490 l 731 485 q 710 440 710 465 q 780 194 710 416 q 809 115 794 141 q 862 61 834 75 q 878 54 878 56 q 811 29 864 29 q 742 43 777 29 q 717 2 735 14 q 632 -33 696 -21 q 616 -35 623 -35 l 614 -35 l 611 -33 q 619 5 619 -18 q 580 201 619 60 q 577 203 580 203 l 508 203 q 434 166 459 203 q 361 203 408 203 l 290 203 q 244 14 244 30 l 244 6 q 259 -35 244 -12 l 255 -35 q 160 6 211 -35 q 147 33 147 25 l 145 33 q 61 7 113 7 q 0 36 14 7 q 40 57 27 43 q 92 206 61 78 q 147 406 139 364 l 147 419 q 115 485 147 455 l 115 486 q 179 531 159 500 q 219 657 196 560 q 286 897 286 883 l 286 902 q 248 949 286 927 l 248 950 q 328 967 290 967 q 431 941 386 967 q 516 969 466 969 m 415 795 q 349 517 354 547 l 349 505 q 367 461 349 484 q 328 432 337 449 q 316 385 322 417 l 359 385 q 418 419 398 385 q 469 385 443 385 l 518 385 q 499 442 507 442 q 471 457 495 447 q 486 501 486 476 q 453 653 486 526 l 419 795 l 415 795 "},"n":{"x_min":0,"x_max":586.65625,"ha":627,"o":"m 51 693 l 62 693 q 121 666 101 693 q 185 690 145 690 l 192 690 q 226 683 223 689 q 196 587 196 657 l 196 543 l 200 543 q 258 623 221 587 q 350 676 306 668 q 387 682 360 680 q 525 592 486 682 q 552 473 552 533 l 552 432 q 586 360 552 379 q 552 290 552 339 q 552 240 552 257 l 552 105 q 570 23 552 38 l 577 14 l 577 14 q 533 2 556 2 l 526 2 q 469 29 488 2 q 421 -2 457 8 q 400 -5 408 -5 l 388 -5 q 357 3 374 -5 l 357 6 q 382 71 382 39 q 383 73 383 71 q 382 129 382 109 l 382 255 q 383 298 382 271 q 344 360 383 335 l 344 361 q 375 384 365 368 q 383 427 383 403 q 358 517 383 503 q 320 529 345 529 q 229 480 281 529 q 211 463 211 466 q 210 452 210 458 l 210 415 q 239 361 210 375 l 239 360 q 210 294 210 343 q 211 278 210 284 q 210 183 210 220 l 210 143 q 222 46 210 61 q 245 16 227 33 l 245 14 q 196 4 224 4 q 131 25 149 4 q 57 1 111 1 q 12 10 16 4 q 40 90 40 33 q 40 116 40 107 l 40 236 q 40 307 40 259 q 29 335 38 321 q 0 360 16 349 q 18 377 12 369 q 40 457 40 404 l 40 599 q 11 679 40 649 q 51 693 25 693 "},"O":{"x_min":0,"x_max":800.984375,"ha":836,"o":"m 408 1014 l 408 1014 q 467 986 434 986 q 593 946 543 975 q 673 875 622 932 q 723 770 704 834 q 744 583 744 684 q 788 504 756 529 l 800 494 l 800 492 q 746 385 764 463 q 739 276 743 373 q 720 168 733 216 q 595 8 680 53 q 522 -24 568 -8 q 430 -40 485 -33 q 394 -67 415 -44 q 349 -39 376 -46 q 247 -12 282 -27 q 152 50 200 4 q 87 162 107 96 q 62 380 62 252 q 40 444 56 418 q 0 492 29 463 l 0 494 q 57 562 57 536 q 63 609 63 578 l 62 617 q 240 961 62 882 q 337 986 307 986 q 400 1007 377 993 q 408 1014 400 1009 m 284 654 l 284 605 q 328 495 284 522 l 328 494 q 290 438 294 459 q 284 376 284 415 l 284 314 q 337 155 284 184 q 361 148 347 149 q 398 166 380 148 q 435 143 416 143 q 491 181 461 143 q 516 314 516 214 l 516 380 q 479 491 516 468 l 478 491 l 478 495 q 516 573 516 508 l 516 660 q 474 791 516 772 q 451 799 463 799 q 404 778 430 799 l 402 778 q 361 800 378 800 q 301 752 330 800 q 284 654 284 718 "},"3":{"x_min":0,"x_max":647.03125,"ha":678,"o":"m 306 974 l 327 974 q 506 914 427 974 q 556 841 547 877 q 581 795 563 807 q 594 788 591 788 l 594 786 q 558 730 564 756 q 524 663 547 688 q 460 606 493 625 q 425 584 425 585 l 425 579 q 501 558 441 579 q 604 441 577 520 q 626 387 614 403 q 647 373 635 378 l 647 372 q 588 242 624 345 q 520 147 566 192 q 381 61 469 96 q 81 19 277 19 q 10 0 37 19 q 0 33 0 13 l 0 42 q 31 95 0 82 q 3 153 3 119 l 3 170 q 12 209 3 192 l 14 209 q 35 186 16 198 q 102 177 58 177 l 122 177 q 385 257 286 177 q 420 309 420 291 l 420 319 q 392 352 420 339 l 392 356 q 423 395 423 370 q 375 453 423 425 q 327 464 347 464 l 314 464 q 212 413 229 464 l 210 413 q 187 472 187 433 l 187 475 q 194 503 187 488 l 193 503 q 140 535 166 503 q 130 567 130 550 q 136 579 132 579 q 170 574 151 574 q 333 662 212 574 q 379 726 379 705 q 345 767 379 747 q 365 790 365 778 l 365 795 q 301 832 365 823 l 299 832 q 132 746 207 832 q 115 704 115 720 l 113 704 q 75 760 88 716 q 72 779 73 767 q 73 792 73 785 l 73 794 l 71 792 l 56 792 q 8 824 25 792 q 3 847 3 835 q 52 868 33 852 q 306 974 167 974 "},"]":{"x_min":0,"x_max":0,"ha":514},"m":{"x_min":0,"x_max":946.125,"ha":977,"o":"m 52 695 l 63 695 q 117 675 96 695 q 121 668 121 670 l 122 668 q 189 692 147 692 l 195 692 q 229 685 221 692 q 199 588 199 657 l 199 542 l 203 542 q 261 625 219 579 q 392 684 328 684 q 533 583 500 684 q 540 559 537 573 l 547 559 q 747 684 624 684 q 876 617 830 684 q 899 550 899 576 q 908 414 904 519 q 933 368 912 391 q 946 357 934 368 q 906 290 906 335 l 906 85 q 939 6 906 31 l 939 6 q 895 0 918 2 q 825 26 840 0 l 825 28 l 824 28 q 754 -4 802 -4 q 709 6 731 -4 l 709 8 q 733 67 733 35 q 733 126 733 105 l 733 275 q 693 357 733 328 q 727 400 715 369 q 733 450 733 423 l 733 463 q 666 527 733 527 q 561 466 622 527 l 560 466 q 560 431 560 443 q 594 357 560 378 q 560 287 560 337 q 560 71 560 246 q 584 8 560 31 l 584 6 q 537 -5 569 -5 l 533 -5 q 476 22 495 -5 q 404 -13 448 -13 l 394 -13 q 361 -4 380 -13 l 361 -2 q 388 71 388 33 q 387 94 387 86 l 387 295 q 349 356 387 334 l 349 358 q 387 421 387 369 l 387 438 q 358 520 387 504 q 324 528 343 528 l 323 528 q 213 462 280 528 l 213 448 q 212 435 213 439 q 237 361 212 370 q 241 357 241 358 q 213 295 213 337 l 213 117 q 236 22 213 42 q 248 8 236 20 l 248 6 q 199 -2 227 -2 q 132 17 152 -2 l 132 17 q 58 -6 113 -6 q 12 2 16 -3 q 40 72 40 27 l 40 235 q 42 303 40 259 q 29 333 39 317 q 0 357 16 345 q 25 383 21 372 q 40 455 40 411 l 40 596 q 11 680 40 651 q 52 695 25 695 "},"9":{"x_min":0,"x_max":666.015625,"ha":713,"o":"m 314 975 l 332 975 q 573 851 488 975 q 611 761 611 784 q 640 668 628 678 q 666 647 655 647 l 666 645 q 623 541 623 624 q 581 358 611 431 q 485 153 533 227 q 432 23 432 73 q 434 1 434 8 l 427 0 l 409 0 q 332 31 364 0 q 318 54 322 41 q 269 44 292 44 l 254 44 q 183 75 206 44 q 208 86 183 76 q 260 126 236 99 q 387 318 352 242 q 438 438 438 417 q 305 396 377 396 l 295 396 q 101 491 182 396 q 55 577 67 535 q 14 640 39 629 q 0 647 0 645 q 36 693 36 671 q 44 750 40 711 q 109 893 59 832 q 314 975 187 975 m 219 693 q 244 653 219 662 l 252 651 l 252 651 q 228 617 228 637 q 259 559 228 594 q 330 535 288 535 q 432 607 408 535 q 433 616 433 613 l 433 618 q 400 653 433 639 l 400 654 q 439 710 439 676 l 439 712 q 373 835 439 808 q 341 841 354 841 l 328 841 q 231 760 253 841 q 219 693 219 720 "},"l":{"x_min":0,"x_max":274.6875,"ha":317,"o":"m 53 969 l 62 969 q 137 934 113 969 q 223 965 167 965 q 274 954 274 961 q 252 937 257 942 q 221 821 221 907 l 221 465 q 253 369 220 379 q 264 361 258 364 l 264 360 q 221 276 221 334 l 221 109 q 255 11 221 23 q 266 7 262 7 l 266 6 q 223 -4 246 -4 l 212 -4 q 141 16 168 -4 q 137 22 137 20 l 137 22 q 110 1 132 11 q 67 -6 86 -6 l 54 -6 q 8 4 24 -6 l 8 6 q 32 26 18 6 q 43 92 43 42 l 43 271 q 18 347 43 330 l 0 360 q 37 417 25 375 q 43 491 43 436 l 43 821 q 25 923 43 899 q 0 954 19 935 q 53 969 21 969 "},"8":{"x_min":0,"x_max":708.75,"ha":751,"o":"m 338 975 l 366 975 q 540 921 456 975 q 596 862 585 882 q 621 792 621 823 q 642 737 628 752 q 663 720 649 730 l 663 720 q 630 679 630 709 q 586 581 623 628 q 516 524 552 544 q 508 520 508 522 l 508 512 q 626 430 592 486 q 688 324 663 345 q 708 312 704 312 l 708 309 q 671 283 689 309 q 647 183 663 267 q 528 35 609 76 q 364 0 459 0 l 339 0 q 91 120 179 0 q 48 234 53 181 q 28 290 42 276 q 0 318 16 304 q 64 385 45 339 q 112 458 73 418 q 181 505 153 494 q 193 512 193 510 l 193 520 q 81 635 116 553 q 52 707 65 703 q 21 729 35 725 l 21 732 q 69 778 56 748 q 122 885 84 846 q 200 943 168 931 q 338 975 268 975 m 258 754 l 258 754 q 290 727 258 734 l 290 724 q 252 685 270 724 l 252 683 q 292 596 252 629 q 351 579 317 579 q 440 644 416 579 q 448 680 445 663 q 415 717 444 717 l 413 717 l 413 718 q 438 760 438 740 l 438 767 q 411 812 438 786 q 353 830 386 830 l 352 830 q 263 774 284 830 q 258 754 258 763 m 250 356 q 268 318 250 329 l 268 317 l 248 305 q 238 288 238 301 l 238 273 q 271 169 238 212 q 351 139 301 139 q 460 217 437 139 q 468 261 468 244 l 468 265 q 434 316 468 292 l 434 317 q 460 351 460 324 l 460 355 q 404 438 460 408 q 349 448 380 448 q 260 399 298 448 q 250 356 250 373 "},"p":{"x_min":0,"x_max":615.140625,"ha":655,"o":"m 187 693 l 197 693 q 229 681 215 693 q 208 613 208 660 l 208 573 l 214 573 q 391 692 284 692 q 552 585 507 692 q 571 437 571 539 l 571 434 q 614 358 571 381 l 615 356 q 580 303 592 345 q 571 192 571 274 q 556 105 566 138 q 399 -7 520 -7 q 239 75 315 -7 q 222 94 224 93 l 220 94 l 220 -154 q 256 -240 220 -209 l 256 -241 q 230 -244 243 -244 l 225 -244 q 128 -211 162 -244 q 61 -248 113 -235 q 35 -250 48 -250 l 24 -250 q 4 -248 16 -250 l 4 -245 q 40 -154 40 -220 l 40 229 q 11 347 40 305 q 0 358 0 357 q 40 430 40 384 l 40 615 q 12 682 40 658 l 12 683 q 51 689 30 689 q 129 664 100 689 q 157 687 129 672 q 187 693 175 693 m 220 482 l 220 428 q 260 358 220 375 l 260 357 q 226 308 235 340 q 219 248 219 278 q 220 198 220 225 l 220 185 q 282 141 260 151 q 322 134 299 134 l 325 134 q 378 169 366 134 q 390 248 390 201 q 352 357 390 326 l 352 358 q 380 381 368 363 q 389 425 389 404 q 352 528 389 503 q 318 534 335 534 q 220 482 263 534 "},"4":{"x_min":0,"x_max":704.671875,"ha":751,"o":"m 376 967 l 388 967 q 482 924 445 967 q 537 961 491 946 q 585 967 567 967 l 600 967 q 655 957 631 967 l 655 956 q 615 864 615 929 l 615 398 l 623 398 q 634 398 630 398 q 697 423 674 398 l 699 423 q 704 398 704 408 l 704 389 q 676 324 704 349 q 702 264 702 307 l 702 254 q 695 222 699 222 q 628 244 673 244 l 617 244 l 617 94 q 645 11 617 27 q 649 10 647 10 l 649 8 q 598 0 623 0 q 530 31 547 0 q 444 0 496 0 l 427 0 q 392 6 411 0 l 392 8 q 428 92 428 29 l 428 244 q 159 244 221 244 q 120 219 130 244 l 120 219 q 86 294 86 260 l 86 320 l 87 328 l 73 328 q 0 404 27 328 l 1 404 q 19 401 13 401 l 20 401 q 77 458 52 401 q 157 604 151 580 l 158 617 l 158 622 q 148 659 158 639 q 200 680 183 664 q 266 788 218 697 q 330 905 330 894 q 331 912 330 912 q 321 955 331 923 q 376 967 343 967 m 426 800 q 322 617 335 642 q 314 580 314 596 q 324 548 314 565 l 309 548 q 247 491 271 548 q 214 426 214 440 q 240 398 217 398 l 427 398 l 427 800 l 426 800 "},"R":{"x_min":12.203125,"x_max":923.734375,"ha":814,"o":"m 59 990 l 71 990 q 181 948 138 990 q 333 981 227 981 l 348 981 q 585 948 519 981 q 699 839 664 913 q 722 751 704 826 q 771 700 740 713 l 771 698 q 720 631 734 676 q 672 517 707 559 q 585 452 624 467 q 510 434 552 434 l 497 434 l 497 434 q 548 413 517 434 q 598 315 562 401 q 656 263 614 283 l 659 263 q 649 227 649 242 l 649 223 q 716 67 649 187 q 773 -13 729 34 q 897 -89 826 -61 q 923 -101 919 -101 l 923 -103 q 796 -135 879 -135 l 788 -135 q 552 -48 642 -135 q 494 58 528 -25 q 457 138 493 59 q 411 162 439 162 l 409 162 l 409 165 q 420 197 420 179 l 420 202 q 371 328 420 229 q 334 378 358 361 q 267 400 303 400 l 267 109 q 305 0 267 27 l 305 -2 q 257 -13 286 -13 q 159 16 195 -13 q 67 -4 133 -4 q 21 0 42 -4 l 21 0 q 56 99 56 38 l 56 308 q 58 413 56 347 q 12 504 58 469 l 12 505 q 59 589 59 542 q 56 666 56 629 l 56 849 q 12 984 56 928 q 13 985 12 985 q 59 990 31 990 m 267 758 l 267 558 l 346 558 q 467 586 439 558 q 505 642 492 600 l 506 655 q 473 699 506 682 q 497 754 497 729 q 451 813 497 789 q 354 828 422 828 l 333 828 q 273 804 286 828 q 267 758 267 792 "},"o":{"x_min":0,"x_max":628.03125,"ha":663,"o":"m 299 702 l 322 702 q 543 600 482 702 q 569 548 556 584 q 588 423 588 478 q 600 383 592 397 q 628 358 613 368 q 597 318 607 347 q 586 196 591 300 q 567 115 577 137 q 332 -23 505 -23 l 310 -23 q 132 25 186 -23 q 58 144 80 64 q 43 286 43 198 q 29 334 39 316 q 0 358 9 356 l 0 358 q 39 402 39 383 q 47 475 42 406 q 65 556 55 526 q 169 675 97 639 q 299 702 227 702 m 228 423 q 267 360 228 377 l 267 358 q 228 289 228 336 q 246 153 228 196 q 312 113 267 113 l 324 113 q 394 168 380 113 q 404 278 404 213 q 371 358 404 328 q 404 421 404 381 q 377 538 404 499 q 318 562 355 562 q 240 516 261 562 q 228 423 228 491 "},"5":{"x_min":0,"x_max":676.859375,"ha":709,"o":"m 579 988 q 585 959 583 981 q 556 880 585 908 q 584 822 584 861 q 575 767 584 802 l 574 767 q 501 794 557 794 l 256 794 q 223 767 223 794 l 223 761 q 249 718 223 731 l 249 717 q 215 678 215 697 q 208 624 208 660 l 217 623 q 328 647 271 647 l 345 647 q 590 518 510 647 q 623 438 609 485 q 676 341 641 364 l 676 339 q 628 280 628 315 q 581 153 623 223 q 394 18 518 61 q 240 -6 312 -6 q 79 9 198 -6 l 71 9 q 3 -13 37 9 q 0 0 0 -9 l 0 10 q 38 90 0 58 q 50 96 46 96 q 21 159 21 118 q 42 216 21 195 q 88 170 61 179 q 199 155 103 161 q 419 249 368 155 q 427 282 427 270 l 427 288 q 392 345 427 319 q 434 396 434 370 q 383 474 434 431 q 296 500 339 500 q 162 435 219 500 q 75 398 129 398 l 74 398 q 5 424 31 398 q 33 461 24 434 q 58 668 42 484 q 28 719 58 699 l 28 722 q 73 793 73 739 q 81 889 81 875 l 81 891 q 54 961 81 932 l 54 961 q 107 969 79 969 l 107 969 q 168 942 153 969 q 170 933 170 937 q 224 959 183 959 l 431 959 q 514 957 462 959 q 579 988 556 957 "}}}
